<svg width="1024" height="1024" viewBox="0 0 1024 1024" fill="none" xmlns="http://www.w3.org/2000/svg">
<g clip-path="url(#clip0_378_40)">
<g filter="url(#filter0_d_378_40)">
<rect x="320" y="449" width="192" height="191" rx="30" fill="white"/>
<path d="M378.602 492.85C385.149 492.85 390.474 498.085 390.619 504.597C390.621 504.688 390.622 504.779 390.622 504.87C390.622 506.278 390.38 507.63 389.935 508.885C388.283 513.549 383.833 516.89 378.602 516.89C373.372 516.89 368.921 513.549 367.269 508.885C366.824 507.63 366.582 506.278 366.582 504.87C366.582 504.779 366.583 504.688 366.585 504.597C366.73 498.085 372.055 492.85 378.602 492.85Z" fill="#0475D9"/>
<path d="M378.602 577.511C383.863 577.511 388.334 580.89 389.963 585.596C390.39 586.829 390.622 588.153 390.622 589.531C390.622 596.17 385.241 601.551 378.602 601.551C371.964 601.551 366.582 596.17 366.582 589.531C366.582 588.153 366.814 586.829 367.241 585.596C368.87 580.89 373.342 577.511 378.602 577.511Z" fill="#0475D9"/>
<path d="M367.269 508.885C368.139 520.098 368.767 536.742 368.767 545.575C368.767 556.639 368.126 574.714 367.241 585.596C368.87 580.89 373.342 577.511 378.602 577.511C383.863 577.511 388.334 580.89 389.963 585.596C389.078 574.714 388.437 556.639 388.437 545.575C388.437 536.742 389.065 520.098 389.935 508.885C388.283 513.549 383.833 516.89 378.602 516.89C373.372 516.89 368.921 513.549 367.269 508.885Z" fill="#0475D9"/>
<path fill-rule="evenodd" clip-rule="evenodd" d="M366.585 504.597C366.824 504.61 367.054 506.115 367.269 508.885ZM366.582 504.597C366.583 504.597 366.584 504.597 366.585 504.597C366.583 504.688 366.582 504.779 366.582 504.87C366.582 506.278 366.824 507.63 367.269 508.885M367.241 585.596C367.033 588.153 366.812 589.531 366.582 589.531C366.582 588.153 366.814 586.829 367.241 585.596Z" fill="#0475D9"/>
<path fill-rule="evenodd" clip-rule="evenodd" d="M390.622 504.597C390.621 504.597 390.62 504.597 390.619 504.597C390.38 504.61 390.15 506.115 389.935 508.885C390.38 507.63 390.622 506.278 390.622 504.87C390.622 504.779 390.621 504.688 390.619 504.597M390.622 589.531C390.393 589.531 390.171 588.153 389.963 585.596C390.39 586.829 390.622 588.153 390.622 589.531Z" fill="#0475D9"/>
<path d="M456.19 492.85C462.737 492.85 468.062 498.085 468.207 504.597C468.209 504.688 468.21 504.779 468.21 504.87C468.21 506.278 467.968 507.63 467.523 508.885C465.871 513.549 461.421 516.89 456.19 516.89C450.959 516.89 446.509 513.549 444.857 508.885C444.412 507.63 444.17 506.278 444.17 504.87C444.17 504.779 444.171 504.688 444.173 504.597C444.318 498.085 449.643 492.85 456.19 492.85Z" fill="#0475D9"/>
<path d="M456.19 577.511C461.45 577.511 465.922 580.89 467.551 585.596C467.978 586.829 468.21 588.153 468.21 589.531C468.21 596.17 462.829 601.551 456.19 601.551C449.551 601.551 444.17 596.17 444.17 589.531C444.17 588.153 444.402 586.829 444.829 585.596C446.458 580.89 450.93 577.511 456.19 577.511Z" fill="#0475D9"/>
<path d="M444.857 508.885C445.727 520.098 446.355 536.742 446.355 545.575C446.355 556.639 445.714 574.714 444.829 585.596C446.458 580.89 450.93 577.511 456.19 577.511C461.45 577.511 465.922 580.89 467.551 585.596C466.666 574.714 466.025 556.639 466.025 545.575C466.025 536.742 466.653 520.098 467.523 508.885C465.871 513.549 461.421 516.89 456.19 516.89C450.959 516.89 446.509 513.549 444.857 508.885Z" fill="#0475D9"/>
<path fill-rule="evenodd" clip-rule="evenodd" d="M444.173 504.597C444.412 504.61 444.642 506.115 444.857 508.885ZM444.17 504.597C444.171 504.597 444.172 504.597 444.173 504.597C444.171 504.688 444.17 504.779 444.17 504.87C444.17 506.278 444.412 507.63 444.857 508.885M444.829 585.596C444.621 588.153 444.399 589.531 444.17 589.531C444.17 588.153 444.402 586.829 444.829 585.596Z" fill="#0475D9"/>
<path fill-rule="evenodd" clip-rule="evenodd" d="M468.21 504.597C468.209 504.597 468.208 504.597 468.207 504.597C467.968 504.61 467.738 506.115 467.523 508.885C467.968 507.63 468.21 506.278 468.21 504.87C468.21 504.779 468.209 504.688 468.207 504.597M468.21 589.531C467.981 589.531 467.759 588.153 467.551 585.596C467.978 586.829 468.21 588.153 468.21 589.531Z" fill="#0475D9"/>
<path d="M370.069 497.568C374.698 492.938 382.165 492.875 386.873 497.377C386.938 497.44 387.003 497.503 387.068 497.568C388.063 498.564 388.848 499.69 389.421 500.893C391.551 505.359 390.766 510.868 387.068 514.567C383.369 518.266 377.86 519.05 373.394 516.92C372.191 516.347 371.064 515.563 370.069 514.567C370.004 514.502 369.941 514.437 369.878 514.372C365.376 509.664 365.439 502.198 370.069 497.568Z" fill="#0475D9"/>
<path d="M445.606 573.105C449.326 569.385 454.877 568.613 459.357 570.788C460.53 571.358 461.631 572.13 462.605 573.105C467.299 577.799 467.299 585.41 462.605 590.104C457.911 594.798 450.3 594.798 445.606 590.104C444.631 589.13 443.859 588.029 443.289 586.856C441.114 582.376 441.886 576.825 445.606 573.105Z" fill="#0475D9"/>
<path d="M373.394 516.92C381.938 524.233 404.968 546.376 411.214 552.622C419.038 560.445 436.221 578.535 443.289 586.856C441.114 582.376 441.886 576.825 445.606 573.105C449.326 569.385 454.877 568.613 459.357 570.788C451.036 563.72 432.946 546.537 425.123 538.713C418.877 532.467 396.734 509.437 389.421 500.893C391.551 505.359 390.766 510.868 387.068 514.567C383.369 518.266 377.86 519.05 373.394 516.92Z" fill="#0475D9"/>
<path fill-rule="evenodd" clip-rule="evenodd" d="M369.878 514.372C370.056 514.212 371.282 515.113 373.394 516.92ZM369.876 514.374C369.876 514.373 369.877 514.372 369.878 514.372C369.941 514.437 370.004 514.502 370.069 514.567C371.064 515.563 372.191 516.347 373.394 516.92M443.289 586.856C444.95 588.81 445.768 589.942 445.606 590.104C444.631 589.13 443.859 588.029 443.289 586.856Z" fill="#0475D9"/>
<path fill-rule="evenodd" clip-rule="evenodd" d="M386.875 497.375C386.874 497.375 386.873 497.376 386.873 497.377C386.713 497.555 387.614 498.782 389.421 500.893C388.848 499.69 388.063 498.564 387.068 497.568C387.003 497.503 386.938 497.44 386.873 497.377M462.605 573.105C462.443 573.267 461.311 572.449 459.357 570.788C460.53 571.358 461.631 572.13 462.605 573.105Z" fill="#0475D9"/>
</g>
<path d="M380 182L836 336V484H380V182Z" fill="url(#paint0_linear_378_40)"/>
<path d="M958 336V344H934L958 336Z" fill="#004E84"/>
<path d="M188 188L380 182V320H188V188Z" fill="url(#paint1_linear_378_40)"/>
<path d="M64 178V168L188 248V258L64 178Z" fill="#006CB6"/>
<path d="M188 250L644 400V410L188 258V250Z" fill="#006DB8"/>
<path d="M476 68L480 64V70L476 68Z" fill="#018EE8"/>
<path d="M932 240L936 242V246L928 244L932 240Z" fill="#018EE8"/>
<path d="M646 408L188 258L190 804L644 956L646 408Z" fill="url(#paint2_linear_378_40)"/>
<path d="M384 182L190 250L64 168L262 102L384 182Z" fill="#0796F2"/>
<path d="M836 336V892L644 956V400L836 336Z" fill="url(#paint3_linear_378_40)"/>
<g filter="url(#filter1_d_378_40)">
<path d="M932 246L476 86L380 182L840 340L932 246Z" fill="url(#paint4_linear_378_40)"/>
</g>
<g filter="url(#filter2_d_378_40)">
<path d="M932 220L476 68V86L932 246V220Z" fill="#0082D6"/>
</g>
<path d="M676 400H644V408L676 400Z" fill="#004E84"/>
<g filter="url(#filter3_d_378_40)">
<path d="M833.032 336L644 400H767.574L958 336H833.032Z" fill="#0A90EE"/>
</g>
<path d="M936 246.8V244H932V246L936 246.8Z" fill="#05609B"/>
<path d="M932 220L936 216V246H932V220Z" fill="#05609B"/>
<g opacity="0.85">
<path d="M309.446 425.252C326.564 430.862 340.501 449.827 340.9 467.869C340.906 468.121 340.909 468.372 340.909 468.623C340.913 472.497 340.284 476.008 339.125 479.081C334.819 490.498 323.194 495.877 309.519 491.395C295.844 486.912 284.198 473.907 279.864 459.658C278.697 455.823 278.06 451.897 278.056 448.023C278.056 447.772 278.058 447.522 278.063 447.274C278.423 429.481 292.329 419.641 309.446 425.252Z" fill="white"/>
<path d="M309.701 658.182C323.454 662.69 335.154 675.819 339.429 690.163C340.549 693.921 341.159 697.762 341.164 701.554C341.184 719.819 327.13 730.014 309.773 724.325C292.417 718.637 278.331 699.219 278.311 680.954C278.306 677.162 278.909 673.718 280.021 670.692C284.268 659.141 295.948 653.675 309.701 658.182Z" fill="white"/>
<path d="M279.864 459.658C282.174 491.254 283.866 537.585 283.892 561.888C283.926 592.329 282.302 641.511 280.021 670.692C284.268 659.141 295.948 653.675 309.701 658.182C323.454 662.69 335.154 675.819 339.429 690.163C337.083 659.465 335.351 609.183 335.318 578.743C335.291 554.44 336.883 509.185 339.125 479.081C334.819 490.498 323.194 495.877 309.519 491.395C295.844 486.912 284.198 473.907 279.864 459.658Z" fill="white"/>
<path fill-rule="evenodd" clip-rule="evenodd" d="M278.063 447.274C278.688 447.514 279.293 451.851 279.864 459.658ZM278.055 447.271C278.058 447.272 278.061 447.273 278.063 447.274C278.058 447.522 278.056 447.772 278.056 448.023C278.06 451.897 278.697 455.823 279.864 459.658M280.021 670.692C279.485 677.547 278.911 681.15 278.311 680.954C278.306 677.162 278.909 673.718 280.021 670.692Z" fill="white"/>
<path fill-rule="evenodd" clip-rule="evenodd" d="M340.908 467.872C340.906 467.871 340.903 467.87 340.9 467.869C340.276 467.7 339.679 471.643 339.125 479.081C340.284 476.008 340.913 472.497 340.909 468.623C340.909 468.372 340.906 468.121 340.9 467.869M341.164 701.554C340.563 701.357 339.981 697.375 339.429 690.163C340.549 693.921 341.159 697.762 341.164 701.554Z" fill="white"/>
<path d="M512.329 491.741C529.447 497.351 543.384 516.316 543.783 534.359C543.789 534.61 543.792 534.861 543.792 535.113C543.796 538.986 543.167 542.497 542.008 545.571C537.702 556.988 526.077 562.366 512.402 557.884C498.726 553.402 487.081 540.396 482.747 526.147C481.58 522.312 480.943 518.386 480.939 514.512C480.939 514.261 480.941 514.012 480.946 513.763C481.306 495.97 495.212 486.131 512.329 491.741Z" fill="white"/>
<path d="M512.584 724.672C526.337 729.179 538.037 742.308 542.312 756.653C543.432 760.41 544.042 764.252 544.046 768.043C544.066 786.308 530.012 796.503 512.656 790.815C495.3 785.126 481.213 765.708 481.193 747.443C481.189 743.651 481.792 740.208 482.904 737.181C487.151 725.63 498.83 720.164 512.584 724.672Z" fill="white"/>
<path d="M482.747 526.147C485.056 557.743 486.749 604.074 486.775 628.377C486.808 658.818 485.185 708 482.904 737.181C487.151 725.63 498.83 720.164 512.584 724.672C526.337 729.179 538.037 742.308 542.312 756.653C539.965 725.955 538.234 675.673 538.2 645.232C538.174 620.929 539.766 575.674 542.008 545.571C537.702 556.988 526.077 562.366 512.402 557.884C498.726 553.402 487.081 540.396 482.747 526.147Z" fill="white"/>
<path fill-rule="evenodd" clip-rule="evenodd" d="M480.946 513.763C481.571 514.003 482.176 518.34 482.747 526.147ZM480.938 513.761C480.941 513.762 480.943 513.762 480.946 513.763C480.941 514.012 480.939 514.261 480.939 514.512C480.943 518.386 481.58 522.312 482.747 526.147M482.904 737.181C482.368 744.036 481.794 747.64 481.193 747.443C481.189 743.651 481.792 740.208 482.904 737.181Z" fill="white"/>
<path fill-rule="evenodd" clip-rule="evenodd" d="M543.791 534.361C543.788 534.36 543.786 534.359 543.783 534.359C543.159 534.189 542.562 538.132 542.008 545.571C543.167 542.497 543.796 538.986 543.792 535.113C543.792 534.861 543.789 534.61 543.783 534.359M544.046 768.043C543.446 767.847 542.863 763.864 542.312 756.653C543.432 760.41 544.042 764.252 544.046 768.043Z" fill="white"/>
<path d="M287.187 430.924C299.278 422.153 318.799 428.376 331.12 444.798C331.292 445.027 331.462 445.258 331.631 445.49C334.237 449.083 336.292 452.855 337.794 456.655C343.375 470.769 341.341 485.254 331.682 492.261C322.024 499.267 307.622 496.705 295.938 487.018C292.793 484.41 289.845 481.286 287.239 477.694C287.07 477.461 286.903 477.227 286.739 476.993C274.953 460.183 275.097 439.694 287.187 430.924Z" fill="white"/>
<path d="M484.905 703.48C494.619 696.433 509.13 699.065 520.85 708.889C523.92 711.463 526.798 714.53 529.349 718.046C541.636 734.984 541.659 755.924 529.4 764.816C517.141 773.709 497.243 767.187 484.956 750.25C482.406 746.734 480.383 743.045 478.89 739.328C473.189 725.137 475.191 710.526 484.905 703.48Z" fill="white"/>
<path d="M295.938 487.018C318.298 514.459 378.578 595.116 394.927 617.653C415.405 645.882 460.384 710.378 478.89 739.328C473.189 725.137 475.191 710.526 484.905 703.48C494.619 696.433 509.13 699.065 520.85 708.889C499.075 682.311 451.726 619.533 431.248 591.305C414.899 568.767 356.939 486.428 337.794 456.655C343.375 470.769 341.341 485.254 331.682 492.261C322.024 499.267 307.622 496.705 295.938 487.018Z" fill="white"/>
<path fill-rule="evenodd" clip-rule="evenodd" d="M286.739 476.993C287.203 476.705 290.413 480.237 295.938 487.018ZM286.733 476.997C286.735 476.996 286.737 476.994 286.739 476.993C286.903 477.227 287.07 477.461 287.239 477.694C289.845 481.286 292.793 484.41 295.938 487.018M478.89 739.328C483.237 746.128 485.38 749.942 484.956 750.25C482.406 746.734 480.383 743.045 478.89 739.328Z" fill="white"/>
<path fill-rule="evenodd" clip-rule="evenodd" d="M331.126 444.793C331.124 444.795 331.122 444.796 331.12 444.798C330.702 445.15 333.063 449.298 337.794 456.655C336.292 452.855 334.237 449.083 331.631 445.49C331.462 445.258 331.292 445.027 331.12 444.798M529.349 718.046C528.925 718.354 525.965 715.133 520.85 708.889C523.92 711.463 526.798 714.53 529.349 718.046Z" fill="white"/>
</g>
<rect x="384" y="768.283" width="576" height="255.717" rx="45" fill="#FFC225"/>
<path d="M514.701 957V835.395H551.496C560.626 835.395 568.656 836.605 575.586 839.025C582.516 841.335 587.961 845.185 591.921 850.575C595.991 855.855 598.026 863.115 598.026 872.355C598.026 881.155 596.046 888.415 592.086 894.135C588.126 899.745 582.681 903.98 575.751 906.84C568.931 909.59 561.066 910.965 552.156 910.965H533.841V957H514.701ZM533.841 895.455H550.506C560.076 895.455 567.226 893.585 571.956 889.845C576.686 886.105 579.051 880.275 579.051 872.355C579.051 864.215 576.576 858.605 571.626 855.525C566.676 852.445 559.361 850.905 549.681 850.905H533.841V895.455ZM634.893 957V835.395H674.658C683.018 835.395 690.498 836.55 697.098 838.86C703.698 841.06 708.923 844.745 712.773 849.915C716.623 854.975 718.548 861.905 718.548 870.705C718.548 879.175 716.623 886.16 712.773 891.66C708.923 897.16 703.698 901.285 697.098 904.035C690.498 906.675 683.018 907.995 674.658 907.995H654.033V957H634.893ZM654.033 892.65H672.348C681.148 892.65 687.858 890.835 692.478 887.205C697.208 883.465 699.573 877.965 699.573 870.705C699.573 863.335 697.208 858.22 692.478 855.36C687.858 852.39 681.148 850.905 672.348 850.905H654.033V892.65ZM701.223 957L671.028 902.88L685.218 891.825L722.838 957H701.223ZM756.374 957V835.395H828.149V851.565H775.514V885.39H820.064V901.56H775.514V940.665H829.964V957H756.374Z" fill="black"/>
<path d="M514.701 957H511.701V960H514.701V957ZM514.701 835.395V832.395H511.701V835.395H514.701ZM575.586 839.025L574.596 841.857L574.617 841.864L574.637 841.871L575.586 839.025ZM591.921 850.575L589.503 852.351L589.523 852.379L589.544 852.407L591.921 850.575ZM592.086 894.135L594.536 895.865L594.544 895.854L594.552 895.843L592.086 894.135ZM575.751 906.84L576.872 909.622L576.884 909.618L576.895 909.613L575.751 906.84ZM533.841 910.965V907.965H530.841V910.965H533.841ZM533.841 957V960H536.841V957H533.841ZM533.841 895.455H530.841V898.455H533.841V895.455ZM571.956 889.845L573.816 892.198L573.816 892.198L571.956 889.845ZM571.626 855.525L573.21 852.978L573.21 852.978L571.626 855.525ZM533.841 850.905V847.905H530.841V850.905H533.841ZM517.701 957V835.395H511.701V957H517.701ZM514.701 838.395H551.496V832.395H514.701V838.395ZM551.496 838.395C560.368 838.395 568.051 839.572 574.596 841.857L576.575 836.193C569.26 833.638 560.883 832.395 551.496 832.395V838.395ZM574.637 841.871C581.035 844.004 585.944 847.507 589.503 852.351L594.338 848.799C589.977 842.863 583.996 838.666 576.534 836.179L574.637 841.871ZM589.544 852.407C593.079 856.992 595.026 863.526 595.026 872.355H601.026C601.026 862.704 598.902 854.718 594.297 848.743L589.544 852.407ZM595.026 872.355C595.026 880.707 593.15 887.328 589.619 892.427L594.552 895.843C598.941 889.502 601.026 881.603 601.026 872.355H595.026ZM589.635 892.405C586.032 897.508 581.061 901.403 574.606 904.067L576.895 909.613C584.3 906.557 590.219 901.982 594.536 895.865L589.635 892.405ZM574.629 904.058C568.232 906.637 560.76 907.965 552.156 907.965V913.965C561.371 913.965 569.629 912.543 576.872 909.622L574.629 904.058ZM552.156 907.965H533.841V913.965H552.156V907.965ZM530.841 910.965V957H536.841V910.965H530.841ZM533.841 954H514.701V960H533.841V954ZM533.841 898.455H550.506V892.455H533.841V898.455ZM550.506 898.455C560.38 898.455 568.325 896.54 573.816 892.198L570.095 887.492C566.126 890.63 559.771 892.455 550.506 892.455V898.455ZM573.816 892.198C579.479 887.721 582.051 880.882 582.051 872.355H576.051C576.051 879.668 573.892 884.489 570.095 887.492L573.816 892.198ZM582.051 872.355C582.051 863.632 579.367 856.808 573.21 852.978L570.041 858.072C573.784 860.402 576.051 864.798 576.051 872.355H582.051ZM573.21 852.978C567.566 849.466 559.59 847.905 549.681 847.905V853.905C559.131 853.905 565.785 855.424 570.041 858.072L573.21 852.978ZM549.681 847.905H533.841V853.905H549.681V847.905ZM530.841 850.905V895.455H536.841V850.905H530.841ZM634.893 957H631.893V960H634.893V957ZM634.893 835.395V832.395H631.893V835.395H634.893ZM697.098 838.86L696.107 841.692L696.128 841.699L696.149 841.706L697.098 838.86ZM712.773 849.915L710.367 851.707L710.376 851.719L710.385 851.732L712.773 849.915ZM712.773 891.66L710.315 889.94L710.315 889.94L712.773 891.66ZM697.098 904.035L698.212 906.82L698.232 906.812L698.252 906.804L697.098 904.035ZM654.033 907.995V904.995H651.033V907.995H654.033ZM654.033 957V960H657.033V957H654.033ZM654.033 892.65H651.033V895.65H654.033V892.65ZM692.478 887.205L694.331 889.564L694.338 889.558L692.478 887.205ZM692.478 855.36L690.855 857.884L690.89 857.906L690.925 857.927L692.478 855.36ZM654.033 850.905V847.905H651.033V850.905H654.033ZM701.223 957L698.603 958.462L699.461 960H701.223V957ZM671.028 902.88L669.184 900.513L667.154 902.095L668.408 904.342L671.028 902.88ZM685.218 891.825L687.816 890.325L686.093 887.34L683.374 889.458L685.218 891.825ZM722.838 957V960H728.033L725.436 955.5L722.838 957ZM637.893 957V835.395H631.893V957H637.893ZM634.893 838.395H674.658V832.395H634.893V838.395ZM674.658 838.395C682.744 838.395 689.881 839.512 696.107 841.692L698.089 836.028C691.115 833.588 683.291 832.395 674.658 832.395V838.395ZM696.149 841.706C702.215 843.728 706.913 847.069 710.367 851.707L715.179 848.123C710.933 842.421 705.18 838.392 698.046 836.014L696.149 841.706ZM710.385 851.732C713.71 856.102 715.548 862.314 715.548 870.705H721.548C721.548 861.496 719.535 853.848 715.16 848.098L710.385 851.732ZM715.548 870.705C715.548 878.721 713.729 885.062 710.315 889.94L715.23 893.38C719.516 887.258 721.548 879.629 721.548 870.705H715.548ZM710.315 889.94C706.813 894.943 702.054 898.72 695.944 901.266L698.252 906.804C705.341 903.85 711.033 899.377 715.23 893.38L710.315 889.94ZM695.984 901.25C689.794 903.725 682.702 904.995 674.658 904.995V910.995C683.333 910.995 691.201 909.625 698.212 906.82L695.984 901.25ZM674.658 904.995H654.033V910.995H674.658V904.995ZM651.033 907.995V957H657.033V907.995H651.033ZM654.033 954H634.893V960H654.033V954ZM654.033 895.65H672.348V889.65H654.033V895.65ZM672.348 895.65C681.5 895.65 688.977 893.771 694.331 889.564L690.624 884.846C686.739 887.899 680.795 889.65 672.348 889.65V895.65ZM694.338 889.558C699.937 885.132 702.573 878.674 702.573 870.705H696.573C696.573 877.256 694.479 881.798 690.617 884.852L694.338 889.558ZM702.573 870.705C702.573 862.68 699.952 856.373 694.03 852.793L690.925 857.927C694.464 860.067 696.573 863.99 696.573 870.705H702.573ZM694.1 852.836C688.786 849.42 681.408 847.905 672.348 847.905V853.905C680.888 853.905 686.93 855.36 690.855 857.884L694.1 852.836ZM672.348 847.905H654.033V853.905H672.348V847.905ZM651.033 850.905V892.65H657.033V850.905H651.033ZM703.843 955.538L673.648 901.418L668.408 904.342L698.603 958.462L703.843 955.538ZM672.871 905.247L687.061 894.192L683.374 889.458L669.184 900.513L672.871 905.247ZM682.619 893.325L720.239 958.5L725.436 955.5L687.816 890.325L682.619 893.325ZM722.838 954H701.223V960H722.838V954ZM756.374 957H753.374V960H756.374V957ZM756.374 835.395V832.395H753.374V835.395H756.374ZM828.149 835.395H831.149V832.395H828.149V835.395ZM828.149 851.565V854.565H831.149V851.565H828.149ZM775.514 851.565V848.565H772.514V851.565H775.514ZM775.514 885.39H772.514V888.39H775.514V885.39ZM820.064 885.39H823.064V882.39H820.064V885.39ZM820.064 901.56V904.56H823.064V901.56H820.064ZM775.514 901.56V898.56H772.514V901.56H775.514ZM775.514 940.665H772.514V943.665H775.514V940.665ZM829.964 940.665H832.964V937.665H829.964V940.665ZM829.964 957V960H832.964V957H829.964ZM759.374 957V835.395H753.374V957H759.374ZM756.374 838.395H828.149V832.395H756.374V838.395ZM825.149 835.395V851.565H831.149V835.395H825.149ZM828.149 848.565H775.514V854.565H828.149V848.565ZM772.514 851.565V885.39H778.514V851.565H772.514ZM775.514 888.39H820.064V882.39H775.514V888.39ZM817.064 885.39V901.56H823.064V885.39H817.064ZM820.064 898.56H775.514V904.56H820.064V898.56ZM772.514 901.56V940.665H778.514V901.56H772.514ZM775.514 943.665H829.964V937.665H775.514V943.665ZM826.964 940.665V957H832.964V940.665H826.964ZM829.964 954H756.374V960H829.964V954Z" fill="black"/>
</g>
<defs>
<filter id="filter0_d_378_40" x="304" y="445" width="224" height="223" filterUnits="userSpaceOnUse" color-interpolation-filters="sRGB">
<feFlood flood-opacity="0" result="BackgroundImageFix"/>
<feColorMatrix in="SourceAlpha" type="matrix" values="0 0 0 0 0 0 0 0 0 0 0 0 0 0 0 0 0 0 127 0" result="hardAlpha"/>
<feOffset dy="12"/>
<feGaussianBlur stdDeviation="8"/>
<feColorMatrix type="matrix" values="0 0 0 0 0 0 0 0 0 0 0 0 0 0 0 0 0 0 0.25 0"/>
<feBlend mode="normal" in2="BackgroundImageFix" result="effect1_dropShadow_378_40"/>
<feBlend mode="normal" in="SourceGraphic" in2="effect1_dropShadow_378_40" result="shape"/>
</filter>
<filter id="filter1_d_378_40" x="380" y="86" width="553.2" height="254" filterUnits="userSpaceOnUse" color-interpolation-filters="sRGB">
<feFlood flood-opacity="0" result="BackgroundImageFix"/>
<feColorMatrix in="SourceAlpha" type="matrix" values="0 0 0 0 0 0 0 0 0 0 0 0 0 0 0 0 0 0 127 0" result="hardAlpha"/>
<feOffset dx="1.2"/>
<feComposite in2="hardAlpha" operator="out"/>
<feColorMatrix type="matrix" values="0 0 0 0 0.0196078 0 0 0 0 0.376471 0 0 0 0 0.607843 0 0 0 1 0"/>
<feBlend mode="normal" in2="BackgroundImageFix" result="effect1_dropShadow_378_40"/>
<feBlend mode="normal" in="SourceGraphic" in2="effect1_dropShadow_378_40" result="shape"/>
</filter>
<filter id="filter2_d_378_40" x="476" y="67" width="457" height="179" filterUnits="userSpaceOnUse" color-interpolation-filters="sRGB">
<feFlood flood-opacity="0" result="BackgroundImageFix"/>
<feColorMatrix in="SourceAlpha" type="matrix" values="0 0 0 0 0 0 0 0 0 0 0 0 0 0 0 0 0 0 127 0" result="hardAlpha"/>
<feOffset dx="1" dy="-1"/>
<feComposite in2="hardAlpha" operator="out"/>
<feColorMatrix type="matrix" values="0 0 0 0 0.00392157 0 0 0 0 0.556863 0 0 0 0 0.909804 0 0 0 1 0"/>
<feBlend mode="normal" in2="BackgroundImageFix" result="effect1_dropShadow_378_40"/>
<feBlend mode="normal" in="SourceGraphic" in2="effect1_dropShadow_378_40" result="shape"/>
</filter>
<filter id="filter3_d_378_40" x="644" y="336" width="314" height="66" filterUnits="userSpaceOnUse" color-interpolation-filters="sRGB">
<feFlood flood-opacity="0" result="BackgroundImageFix"/>
<feColorMatrix in="SourceAlpha" type="matrix" values="0 0 0 0 0 0 0 0 0 0 0 0 0 0 0 0 0 0 127 0" result="hardAlpha"/>
<feOffset dy="2"/>
<feComposite in2="hardAlpha" operator="out"/>
<feColorMatrix type="matrix" values="0 0 0 0 0 0 0 0 0 0.305882 0 0 0 0 0.517647 0 0 0 1 0"/>
<feBlend mode="normal" in2="BackgroundImageFix" result="effect1_dropShadow_378_40"/>
<feBlend mode="normal" in="SourceGraphic" in2="effect1_dropShadow_378_40" result="shape"/>
</filter>
<linearGradient id="paint0_linear_378_40" x1="609" y1="188" x2="609" y2="396" gradientUnits="userSpaceOnUse">
<stop stop-color="#0072BF"/>
<stop offset="0.978422" stop-color="#005C9E"/>
</linearGradient>
<linearGradient id="paint1_linear_378_40" x1="284" y1="188" x2="284" y2="320" gradientUnits="userSpaceOnUse">
<stop stop-color="#016AB0"/>
<stop offset="1" stop-color="#004C80"/>
</linearGradient>
<linearGradient id="paint2_linear_378_40" x1="417" y1="256" x2="417" y2="956" gradientUnits="userSpaceOnUse">
<stop stop-color="#0B95F3"/>
<stop offset="1" stop-color="#096DD1"/>
</linearGradient>
<linearGradient id="paint3_linear_378_40" x1="740" y1="336" x2="740" y2="954.694" gradientUnits="userSpaceOnUse">
<stop stop-color="#0073C7"/>
<stop offset="1" stop-color="#0164C7"/>
</linearGradient>
<linearGradient id="paint4_linear_378_40" x1="656" y1="92" x2="656" y2="340" gradientUnits="userSpaceOnUse">
<stop stop-color="#0C9DF9"/>
<stop offset="1" stop-color="#0289E7"/>
</linearGradient>
<clipPath id="clip0_378_40">
<rect width="1024" height="1024" fill="white"/>
</clipPath>
</defs>
</svg>
