<svg width="1024" height="1024" viewBox="0 0 1024 1024" fill="none" xmlns="http://www.w3.org/2000/svg">
<g clip-path="url(#clip0_368_543)">
<path fill-rule="evenodd" clip-rule="evenodd" d="M366.585 505.097C366.602 505.098 366.619 505.106 366.635 505.122C366.856 505.327 367.069 506.809 367.269 509.385M366.582 505.097L366.585 505.097C366.583 505.188 366.582 505.279 366.582 505.37C366.582 505.457 366.583 505.543 366.585 505.629C366.613 506.944 366.852 508.207 367.269 509.385M367.241 586.096C367.033 588.653 366.812 590.031 366.582 590.031C366.582 588.653 366.814 587.329 367.241 586.096Z" fill="black"/>
<path fill-rule="evenodd" clip-rule="evenodd" d="M390.622 505.097L390.619 505.097C390.583 505.099 390.547 505.135 390.512 505.205C390.311 505.594 390.118 507.034 389.936 509.385C390.28 508.413 390.503 507.382 390.586 506.313C390.61 506.002 390.622 505.687 390.622 505.37C390.622 505.279 390.621 505.188 390.619 505.097M390.622 590.031C390.393 590.031 390.171 588.653 389.964 586.096C390.391 587.329 390.622 588.653 390.622 590.031Z" fill="black"/>
<path d="M456.19 493.35C462.737 493.35 468.062 498.585 468.207 505.097C468.209 505.188 468.21 505.279 468.21 505.37C468.21 506.778 467.968 508.13 467.523 509.385C467.125 510.51 466.564 511.558 465.868 512.5C463.68 515.466 460.159 517.39 456.19 517.39C452.221 517.39 448.701 515.466 446.512 512.5C445.816 511.558 445.255 510.51 444.857 509.385C444.412 508.13 444.17 506.778 444.17 505.37C444.17 505.279 444.171 505.188 444.173 505.097C444.318 498.585 449.643 493.35 456.19 493.35Z" fill="black"/>
<path fill-rule="evenodd" clip-rule="evenodd" d="M468.21 505.097L468.207 505.097C467.968 505.11 467.738 506.615 467.523 509.385C467.968 508.13 468.21 506.778 468.21 505.37C468.21 505.279 468.209 505.188 468.207 505.097M468.21 590.031C467.981 590.031 467.759 588.653 467.551 586.096C467.978 587.329 468.21 588.653 468.21 590.031Z" fill="black"/>
<path d="M390.619 505.097L390.622 505.097C391.596 505.097 392.422 519.947 392.704 535.232C400.474 542.613 408.028 549.936 411.214 553.122C419.038 560.945 436.221 579.035 443.29 587.356C441.889 584.471 441.71 581.141 442.754 578.143C442.415 571.836 442.165 563.713 442.052 555.533C435.512 549.376 429.034 543.125 425.123 539.213C419.094 533.184 398.253 511.516 390.236 502.334C390.466 503.219 390.598 504.145 390.619 505.097Z" fill="black"/>
<path d="M368.768 546.075C368.768 557.139 368.126 575.215 367.241 586.096C368.871 581.39 373.342 578.011 378.602 578.011C383.863 578.011 388.334 581.39 389.964 586.096C389.079 575.215 388.437 557.139 388.437 546.075C388.437 543.356 388.496 539.896 388.604 536.083C378.454 525.369 369.368 515.382 369.876 514.874L369.878 514.872C368.774 513.717 367.945 512.397 367.39 510.993C368.197 522.138 368.768 537.655 368.768 546.075Z" fill="black"/>
<path d="M378.602 602.051C385.241 602.051 390.622 596.67 390.622 590.031C390.393 590.031 390.171 588.653 389.964 586.096C388.334 581.39 383.863 578.011 378.602 578.011C373.342 578.011 368.871 581.39 367.241 586.096C367.033 588.653 366.812 590.031 366.582 590.031C366.582 596.67 371.964 602.051 378.602 602.051Z" fill="black"/>
<path d="M378.602 517.39C383.833 517.39 388.283 514.05 389.936 509.385C390.118 507.034 390.311 505.594 390.512 505.205C390.363 503.895 390 502.606 389.421 501.393C387.614 499.282 386.713 498.055 386.873 497.877C382.165 493.375 374.699 493.438 370.069 498.068C368.09 500.047 366.946 502.544 366.635 505.122C366.856 505.327 367.069 506.809 367.269 509.385C368.921 514.05 373.372 517.39 378.602 517.39Z" fill="black"/>
<path d="M389.936 509.385C388.283 514.05 383.833 517.39 378.602 517.39C373.372 517.39 368.921 514.05 367.269 509.385C367.288 509.63 367.307 509.878 367.326 510.129C367.347 510.414 367.368 510.702 367.39 510.993C367.945 512.397 368.774 513.717 369.878 514.872C370.056 514.712 371.283 515.613 373.394 517.42C377.86 519.55 383.37 518.766 387.068 515.067C388.326 513.809 389.247 512.342 389.831 510.777C389.845 510.576 389.86 510.376 389.875 510.177L389.896 509.896C389.909 509.725 389.922 509.554 389.936 509.385Z" fill="black"/>
<path d="M370.069 515.067C371.065 516.063 372.191 516.847 373.394 517.42C371.283 515.613 370.056 514.712 369.878 514.872C369.941 514.937 370.004 515.003 370.069 515.067Z" fill="black"/>
<path d="M390.622 505.37C390.622 505.687 390.61 506.002 390.586 506.313C390.618 507.825 390.366 509.342 389.831 510.777C389.379 516.962 389 524.53 388.751 531.492C390.062 532.727 391.386 533.98 392.704 535.232C392.422 519.947 391.596 505.097 390.622 505.097L390.619 505.097C390.621 505.188 390.622 505.279 390.622 505.37Z" fill="black"/>
<path d="M387.068 515.067C383.37 518.766 377.86 519.55 373.394 517.42C376.84 520.37 382.643 525.733 388.751 531.492C389 524.53 389.379 516.962 389.831 510.777C389.247 512.342 388.326 513.809 387.068 515.067Z" fill="black"/>
<path d="M389.875 510.177C389.86 510.376 389.845 510.576 389.831 510.777C390.366 509.342 390.618 507.825 390.586 506.313C390.503 507.382 390.28 508.413 389.936 509.385C389.922 509.554 389.909 509.725 389.896 509.896L389.875 510.177Z" fill="black"/>
<path d="M390.619 505.097C390.598 504.145 390.466 503.219 390.236 502.334C389.947 502.004 389.675 501.69 389.421 501.393C390 502.606 390.363 503.895 390.512 505.205C390.547 505.135 390.583 505.099 390.619 505.097Z" fill="black"/>
<path d="M373.394 517.42C372.191 516.847 371.065 516.063 370.069 515.067C370.004 515.003 369.941 514.937 369.878 514.872L369.876 514.874C369.368 515.382 378.454 525.369 388.604 536.083C388.646 534.598 388.696 533.06 388.751 531.492C382.643 525.733 376.84 520.37 373.394 517.42Z" fill="black"/>
<path d="M444.829 586.096C446.459 581.39 450.93 578.011 456.19 578.011C460.288 578.011 463.907 580.062 466.077 583.193C466.386 579.765 465.229 576.229 462.605 573.605C462.443 573.767 461.311 572.949 459.357 571.289C454.877 569.113 449.326 569.885 445.606 573.605L445.605 573.606C445.382 578.208 445.118 582.537 444.829 586.096Z" fill="black"/>
<path d="M456.19 578.011C450.93 578.011 446.459 581.39 444.829 586.096C444.733 587.276 444.634 588.205 444.533 588.863C445.347 589.892 445.721 590.49 445.606 590.604C450.3 595.298 457.911 595.298 462.605 590.604C464.675 588.534 465.832 585.897 466.077 583.193C463.907 580.062 460.288 578.011 456.19 578.011Z" fill="black"/>
<path d="M442.052 555.533C442.165 563.713 442.415 571.836 442.754 578.143C443.331 576.486 444.282 574.93 445.605 573.606C445.831 568.966 446.015 564.049 446.145 559.365C444.793 558.107 443.421 556.822 442.052 555.533Z" fill="black"/>
<path d="M462.605 573.605C462.443 573.767 461.311 572.949 459.357 571.289C460.531 571.858 461.631 572.631 462.605 573.605Z" fill="black"/>
<path d="M444.533 588.863C444.448 588.756 444.358 588.644 444.263 588.527C444.246 588.665 444.231 588.804 444.219 588.944C444.297 589.058 444.378 589.17 444.461 589.282C444.485 589.157 444.509 589.018 444.533 588.863Z" fill="black"/>
<path d="M445.606 590.604C445.721 590.49 445.347 589.892 444.533 588.863C444.509 589.018 444.485 589.157 444.461 589.282C444.806 589.743 445.187 590.185 445.606 590.604Z" fill="black"/>
<path d="M444.284 589.918C445.036 590.464 445.497 590.713 445.606 590.604C445.187 590.185 444.806 589.743 444.461 589.282C444.403 589.585 444.344 589.798 444.284 589.918Z" fill="black"/>
<path d="M456.19 602.051C462.829 602.051 468.21 596.67 468.21 590.031C467.981 590.031 467.759 588.653 467.551 586.096C467.191 585.056 466.692 584.081 466.077 583.193C465.832 585.897 464.675 588.534 462.605 590.604C457.911 595.298 450.3 595.298 445.606 590.604C445.497 590.713 445.036 590.464 444.284 589.918C444.246 589.993 444.208 590.031 444.17 590.031C444.17 596.67 449.552 602.051 456.19 602.051Z" fill="black"/>
<path d="M444.219 588.944C444.192 589.238 444.176 589.535 444.172 589.835C444.21 589.864 444.247 589.891 444.284 589.918C444.344 589.798 444.403 589.585 444.461 589.282C444.378 589.17 444.297 589.058 444.219 588.944Z" fill="black"/>
<path d="M444.533 588.863C444.634 588.205 444.733 587.276 444.829 586.096C444.56 586.873 444.368 587.687 444.263 588.527C444.358 588.644 444.448 588.756 444.533 588.863Z" fill="black"/>
<path d="M444.17 590.031C444.208 590.031 444.246 589.993 444.284 589.918C444.247 589.891 444.21 589.864 444.172 589.835C444.171 589.901 444.17 589.966 444.17 590.031Z" fill="black"/>
<path d="M442.754 578.143C442.973 582.216 443.229 585.532 443.51 587.617C443.787 587.946 444.039 588.249 444.263 588.527C444.368 587.687 444.56 586.873 444.829 586.096C445.118 582.537 445.382 578.208 445.605 573.606C444.282 574.93 443.331 576.486 442.754 578.143Z" fill="black"/>
<path d="M445.606 573.605C449.326 569.885 454.877 569.113 459.357 571.289C456.067 568.494 451.251 564.118 446.145 559.365C446.015 564.049 445.831 568.966 445.605 573.606L445.606 573.605Z" fill="black"/>
<path d="M442.754 578.143C441.71 581.141 441.889 584.471 443.29 587.356C443.365 587.445 443.438 587.531 443.51 587.617C443.229 585.532 442.973 582.216 442.754 578.143Z" fill="black"/>
<path d="M445.083 512.5C445.834 523.5 446.355 538.028 446.355 546.075C446.355 548.643 446.321 551.59 446.257 554.737C455.497 564.537 463.125 573.085 462.605 573.605C465.229 576.229 466.386 579.765 466.077 583.193C466.692 584.081 467.191 585.056 467.551 586.096C466.666 575.215 466.025 557.139 466.025 546.075C466.025 538.028 466.546 523.5 467.297 512.5H465.868C463.68 515.466 460.159 517.39 456.19 517.39C452.221 517.39 448.701 515.466 446.512 512.5H445.083Z" fill="black"/>
<path d="M459.357 571.289C460.531 571.858 461.631 572.631 462.605 573.605C463.125 573.085 455.497 564.537 446.257 554.737C446.226 556.24 446.189 557.789 446.145 559.365C451.251 564.118 456.067 568.494 459.357 571.289Z" fill="black"/>
<path d="M342.857 0.5L218 0C168.294 0 128 40.2944 128 90L128 742C128 791.706 168.294 832 218 832H806C855.67 832 895.943 791.763 896 742.106L896 742L896 90C896 40.2944 855.706 0 806 0L416 0.5V64.5L489.143 64.5C501.767 64.5 512 74.0513 512 85.8333V107.167C512 118.949 501.767 128.5 489.143 128.5L416 128.5V192.5H489.143C501.767 192.5 512 202.051 512 213.833V235.167C512 246.949 501.767 256.5 489.143 256.5H416V320.5H489.143C501.767 320.5 512 330.051 512 341.833V363.167C512 374.949 501.767 384.5 489.143 384.5H416V448.5H489.143C501.767 448.5 512 458.051 512 469.833V479.5V491.167V610.5C512 627.069 498.569 640.5 482 640.5H350C333.431 640.5 320 627.069 320 610.5V479.5C320 462.931 333.431 449.5 350 449.5H416V448.5H342.857C330.234 448.5 320 438.949 320 427.167V405.833C320 394.051 330.234 384.5 342.857 384.5H416V320.5H342.857C330.234 320.5 320 310.949 320 299.167V277.833C320 266.051 330.234 256.5 342.857 256.5H416V192.5H342.857C330.234 192.5 320 182.949 320 171.167V149.833C320 138.051 330.234 128.5 342.857 128.5L416 128.5V64.5H342.857C330.234 64.5 320 54.9487 320 43.1667V21.8333C320 10.0513 330.234 0.5 342.857 0.5Z" fill="black"/>
<path d="M218 928H806C852.669 928 891.041 892.479 895.556 846.998C871.452 867.576 840.177 880 806 880H218C183.823 880 152.548 867.576 128.444 846.997C132.958 892.479 171.331 928 218 928Z" fill="black"/>
<path d="M218 1024H806C852.669 1024 891.042 988.479 895.556 942.997C871.452 963.576 840.177 976 806 976H218C183.823 976 152.548 963.576 128.444 942.997C132.958 988.479 171.331 1024 218 1024Z" fill="black"/>
<path d="M416 384.5H342.857C330.234 384.5 320 394.051 320 405.833V427.167C320 438.949 330.234 448.5 342.857 448.5H416V384.5Z" fill="black"/>
<path d="M489.143 448.5H416V449.5H482C498.569 449.5 512 462.931 512 479.5V469.833C512 458.051 501.767 448.5 489.143 448.5Z" fill="black"/>
</g>
<defs>
<clipPath id="clip0_368_543">
<rect width="1024" height="1024" fill="white"/>
</clipPath>
</defs>
</svg>
