<svg width="1024" height="1024" viewBox="0 0 1024 1024" fill="none" xmlns="http://www.w3.org/2000/svg">
<g clip-path="url(#clip0_307_45)">
<path d="M860.967 972C869.492 960.068 875.953 946.561 879.832 932H868.817C839.502 956.946 801.509 972 760 972H860.967Z" fill="white"/>
<path d="M879.832 932C880.972 927.718 881.889 923.346 882.57 918.895C878.236 923.516 873.644 927.892 868.817 932H879.832Z" fill="white"/>
<path fill-rule="evenodd" clip-rule="evenodd" d="M564.112 519.064C564.125 519.064 564.138 519.071 564.151 519.083C564.322 519.242 564.487 520.39 564.642 522.385M564.11 519.064L564.112 519.064C564.111 519.134 564.11 519.205 564.11 519.275C564.11 519.343 564.111 519.41 564.112 519.477C564.134 520.495 564.319 521.473 564.642 522.385M564.62 581.803C564.459 583.783 564.288 584.851 564.11 584.851C564.11 583.783 564.289 582.758 564.62 581.803Z" fill="white"/>
<path fill-rule="evenodd" clip-rule="evenodd" d="M582.731 519.064L582.728 519.064C582.7 519.065 582.673 519.093 582.645 519.147C582.49 519.448 582.34 520.563 582.199 522.385C582.466 521.631 582.638 520.833 582.703 520.004C582.721 519.763 582.731 519.52 582.731 519.275C582.731 519.205 582.73 519.134 582.728 519.064M582.731 584.851C582.553 584.851 582.381 583.783 582.22 581.803C582.551 582.758 582.731 583.783 582.731 584.851Z" fill="white"/>
<path fill-rule="evenodd" clip-rule="evenodd" d="M624.209 519.064C624.394 519.074 624.572 520.239 624.739 522.385ZM624.207 519.064L624.209 519.064C624.208 519.134 624.207 519.205 624.207 519.275C624.207 520.366 624.394 521.413 624.739 522.385M624.717 581.803C624.643 582.717 624.566 583.436 624.488 583.946C624.47 584.066 624.451 584.174 624.433 584.27C624.387 584.505 624.342 584.67 624.295 584.763C624.266 584.821 624.237 584.851 624.207 584.851C624.207 584.8 624.207 584.75 624.208 584.699C624.212 584.467 624.224 584.236 624.245 584.009C624.254 583.9 624.266 583.793 624.279 583.685C624.36 583.035 624.509 582.405 624.717 581.803Z" fill="white"/>
<path fill-rule="evenodd" clip-rule="evenodd" d="M642.828 519.064L642.825 519.064C642.64 519.074 642.462 520.239 642.296 522.385C642.64 521.413 642.828 520.366 642.828 519.275C642.828 519.205 642.827 519.134 642.825 519.064M642.828 584.851C642.65 584.851 642.478 583.783 642.317 581.803C642.648 582.758 642.828 583.783 642.828 584.851Z" fill="white"/>
<path fill-rule="evenodd" clip-rule="evenodd" d="M579.828 513.47L579.826 513.471C579.703 513.609 580.401 514.559 581.801 516.194C581.356 515.263 580.749 514.39 579.978 513.619C579.928 513.569 579.877 513.52 579.826 513.471M638.486 572.128C638.36 572.253 637.484 571.62 635.97 570.333C636.879 570.775 637.731 571.373 638.486 572.128Z" fill="white"/>
<path d="M604 402H529.333C516.447 402 506 411.999 506 424.333V446.667C506 459.001 516.447 469 529.333 469H558.013C563.201 460.033 572.896 454 584 454H604V402Z" fill="white"/>
<path d="M565.803 550.804C565.803 559.374 565.306 573.374 564.62 581.803C565.882 578.158 569.346 575.541 573.42 575.541C577.495 575.541 580.958 578.158 582.22 581.803C581.535 573.374 581.038 559.374 581.038 550.804C581.038 548.697 581.084 546.018 581.167 543.064C573.305 534.765 566.268 527.03 566.661 526.636L566.663 526.635C565.808 525.741 565.165 524.718 564.735 523.63C565.361 532.263 565.803 544.282 565.803 550.804Z" fill="white"/>
<path d="M582.728 519.064C582.73 519.134 582.731 519.205 582.731 519.275C582.731 519.52 582.721 519.763 582.703 520.004C582.727 521.176 582.532 522.351 582.117 523.463C581.767 528.254 581.474 534.116 581.281 539.508C588.28 546.106 595.794 553.375 598.681 556.262C604.74 562.322 618.05 576.334 623.525 582.779C621.84 579.309 622.438 575.01 625.319 572.128C625.493 568.534 625.636 564.726 625.737 561.098C619.689 555.467 613.118 549.153 609.454 545.489C604.784 540.819 588.641 524.035 582.431 516.923C582.61 517.609 582.712 518.326 582.728 519.064Z" fill="white"/>
<path d="M624.739 522.385C625.413 531.07 625.9 543.962 625.9 550.804C625.9 553.744 625.841 557.323 625.737 561.098C629.691 564.779 633.422 568.169 635.97 570.333C636.879 570.775 637.731 571.373 638.486 572.128C640.519 574.16 641.415 576.899 641.175 579.554C641.652 580.242 642.038 580.997 642.317 581.803C641.632 573.374 641.135 559.374 641.135 550.804C641.135 543.962 641.621 531.07 642.296 522.385C641.016 525.998 637.569 528.586 633.517 528.586C629.466 528.586 626.019 525.998 624.739 522.385Z" fill="white"/>
<path d="M633.517 528.586C637.569 528.586 641.016 525.998 642.296 522.385C642.462 520.239 642.64 519.074 642.825 519.064C642.713 514.019 638.589 509.965 633.517 509.965C628.446 509.965 624.322 514.019 624.209 519.064C624.394 519.074 624.572 520.239 624.739 522.385C626.019 525.998 629.466 528.586 633.517 528.586Z" fill="white"/>
<path d="M573.42 594.161C578.562 594.161 582.731 589.993 582.731 584.851C582.553 584.851 582.381 583.783 582.22 581.803C580.958 578.158 577.495 575.541 573.42 575.541C569.346 575.541 565.882 578.158 564.62 581.803C564.459 583.783 564.288 584.851 564.11 584.851C564.11 589.993 568.278 594.161 573.42 594.161Z" fill="white"/>
<path d="M633.517 594.161C638.659 594.161 642.828 589.993 642.828 584.851C642.65 584.851 642.478 583.783 642.317 581.803C642.038 580.997 641.652 580.242 641.175 579.554C640.986 581.649 640.09 583.691 638.486 585.294C634.85 588.93 628.955 588.93 625.319 585.294C625.235 585.379 624.878 585.186 624.295 584.763C624.266 584.821 624.237 584.851 624.207 584.851C624.207 589.993 628.375 594.161 633.517 594.161Z" fill="white"/>
<path d="M633.517 575.541C629.443 575.541 625.979 578.158 624.717 581.803C624.643 582.717 624.566 583.436 624.488 583.946C625.118 584.743 625.408 585.206 625.319 585.294C628.955 588.93 634.85 588.93 638.486 585.294C640.09 583.691 640.986 581.649 641.175 579.554C639.494 577.129 636.691 575.541 633.517 575.541Z" fill="white"/>
<path d="M582.199 522.385C580.919 525.998 577.472 528.586 573.42 528.586C569.369 528.586 565.922 525.998 564.642 522.385C564.663 522.655 564.684 522.93 564.704 523.208C564.71 523.282 564.715 523.356 564.721 523.431C564.726 523.497 564.73 523.564 564.735 523.63C565.165 524.718 565.808 525.741 566.663 526.635C566.801 526.511 567.751 527.209 569.386 528.609C572.846 530.258 577.113 529.651 579.978 526.786C580.952 525.812 581.665 524.675 582.117 523.463C582.144 523.098 582.171 522.738 582.199 522.385Z" fill="white"/>
<path d="M573.42 528.586C577.472 528.586 580.919 525.998 582.199 522.385C582.34 520.563 582.49 519.448 582.645 519.147C582.53 518.133 582.248 517.134 581.801 516.194C580.401 514.559 579.703 513.609 579.826 513.471C576.18 509.984 570.397 510.033 566.811 513.619C565.278 515.152 564.392 517.086 564.151 519.083C564.322 519.242 564.487 520.39 564.642 522.385C565.922 525.998 569.369 528.586 573.42 528.586Z" fill="white"/>
<path d="M566.811 526.786C567.582 527.557 568.455 528.165 569.386 528.609C567.751 527.209 566.801 526.511 566.663 526.635C566.712 526.686 566.761 526.736 566.811 526.786Z" fill="white"/>
<path d="M569.386 528.609C568.455 528.165 567.582 527.557 566.811 526.786C566.761 526.736 566.712 526.686 566.663 526.635L566.661 526.636C566.268 527.03 573.305 534.765 581.167 543.064L581.182 542.573L581.191 542.259C581.2 541.961 581.209 541.661 581.219 541.359C581.238 540.75 581.259 540.132 581.281 539.508C576.55 535.047 572.055 530.894 569.386 528.609Z" fill="white"/>
<path d="M579.978 526.786C577.113 529.651 572.846 530.258 569.386 528.609C572.055 530.894 576.55 535.047 581.281 539.508C581.474 534.116 581.767 528.254 582.117 523.463C581.665 524.675 580.952 525.812 579.978 526.786Z" fill="white"/>
<path d="M573.42 509.965C568.349 509.965 564.225 514.019 564.112 519.064C564.125 519.064 564.138 519.071 564.151 519.083C564.392 517.086 565.278 515.152 566.811 513.619C570.397 510.033 576.18 509.984 579.826 513.471L579.828 513.47C579.926 513.371 580.483 513.737 581.392 514.464C579.762 511.767 576.801 509.965 573.42 509.965Z" fill="white"/>
<path d="M579.978 513.619C580.749 514.39 581.356 515.263 581.801 516.194C581.997 516.424 582.208 516.667 582.431 516.923C582.203 516.046 581.85 515.22 581.392 514.464C580.483 513.737 579.926 513.371 579.828 513.47L579.826 513.471C579.877 513.52 579.928 513.569 579.978 513.619Z" fill="white"/>
<path d="M582.728 519.064C582.712 518.326 582.61 517.609 582.431 516.923C582.208 516.667 581.997 516.424 581.801 516.194C582.248 517.134 582.53 518.133 582.645 519.147C582.673 519.093 582.7 519.065 582.728 519.064Z" fill="white"/>
<path d="M582.117 523.463C582.532 522.351 582.727 521.176 582.703 520.004C582.638 520.833 582.466 521.631 582.199 522.385C582.171 522.738 582.144 523.098 582.117 523.463Z" fill="white"/>
<path d="M564.112 519.477C564.003 520.88 564.211 522.303 564.735 523.63L564.721 523.431L564.704 523.208C564.684 522.93 564.663 522.655 564.642 522.385C564.319 521.473 564.134 520.495 564.112 519.477Z" fill="white"/>
<path d="M624.717 581.803C625.979 578.158 629.443 575.541 633.517 575.541C636.691 575.541 639.494 577.129 641.175 579.554C641.415 576.899 640.519 574.16 638.486 572.128C638.36 572.253 637.484 571.62 635.97 570.333C632.5 568.648 628.2 569.246 625.319 572.128L625.319 572.128C625.146 575.693 624.941 579.046 624.717 581.803Z" fill="white"/>
<path d="M625.319 572.128C628.2 569.246 632.5 568.648 635.97 570.333C633.422 568.169 629.691 564.779 625.737 561.098C625.636 564.726 625.493 568.534 625.319 572.128L625.319 572.128Z" fill="white"/>
<path d="M624.279 583.685C624.36 583.035 624.509 582.405 624.717 581.803C624.941 579.046 625.146 575.693 625.319 572.128C622.438 575.01 621.84 579.309 623.525 582.779C623.808 583.112 624.06 583.415 624.279 583.685Z" fill="white"/>
<path d="M625.319 585.294C624.995 584.97 624.699 584.627 624.433 584.27C624.387 584.505 624.342 584.67 624.295 584.763C624.878 585.186 625.235 585.379 625.319 585.294Z" fill="white"/>
<path d="M625.319 585.294C625.408 585.206 625.118 584.743 624.488 583.946C624.47 584.066 624.451 584.174 624.433 584.27C624.699 584.627 624.995 584.97 625.319 585.294Z" fill="white"/>
<path d="M623.525 582.779C623.731 583.202 623.971 583.614 624.245 584.009C624.254 583.9 624.266 583.793 624.279 583.685C624.06 583.415 623.808 583.112 623.525 582.779Z" fill="white"/>
<path d="M126 316C126 247.517 181.517 192 250 192H510.613C507.715 188.279 506 183.664 506 178.667V156.333C506 143.999 516.447 134 529.333 134L604 134V96H250C181.517 96 126 151.517 126 220V316Z" fill="white"/>
<path d="M760 192C828.483 192 884 247.517 884 316V220C884 151.517 828.483 96 760 96H702V111.667C702 124.001 691.553 134 678.667 134L604 134V192H760Z" fill="white"/>
<path d="M760 96C828.483 96 884 151.517 884 220V124C884 117.576 883.511 111.266 882.57 105.105C851.919 72.4198 808.344 52 760 52H604V67L678.667 67C691.553 67 702 76.999 702 89.3333V96H760Z" fill="white"/>
<path d="M126 220C126 151.517 181.517 96 250 96H604V67H529.333C519.131 67 510.457 60.7322 507.287 52H250C201.656 52 158.081 72.4198 127.43 105.105C126.489 111.266 126 117.576 126 124V220Z" fill="white"/>
<path d="M529.333 0H250C187.941 0 136.53 45.5896 127.43 105.105C158.081 72.4198 201.656 52 250 52H507.287C506.453 49.703 506 47.2355 506 44.6667V22.3333C506 9.99897 516.447 0 529.333 0Z" fill="white"/>
<path d="M760 0H604V52H760C808.344 52 851.919 72.4198 882.57 105.105C873.47 45.5896 822.059 0 760 0Z" fill="white"/>
<path d="M884 316C884 247.517 828.483 192 760 192H604V201H678.667C691.553 201 702 210.999 702 223.333V245.667C702 258.001 691.553 268 678.667 268H604V335H678.667C691.553 335 702 344.999 702 357.333V379.667C702 392.001 691.553 402 678.667 402H604V454H636C647.104 454 656.799 460.033 661.987 469H678.667C691.553 469 693 478.999 693 491.333V513.667C693 526.001 682.553 536 669.667 536H669V594C669 610.569 655.569 624 639 624H565C548.431 624 535 610.569 535 594V506C535 497.114 538.863 489.13 545.002 483.637C545.065 478.309 546.518 473.315 558.013 469H529.333C516.447 469 506 459.001 506 446.667V424.333C506 411.999 516.447 402 529.333 402H604V335H529.333C516.447 335 506 325.001 506 312.667V290.333C506 277.999 516.447 268 529.333 268H604V201H529.333C521.668 201 514.866 197.462 510.613 192H250C181.517 192 126 247.517 126 316V708C126 776.483 181.517 832 250 832H388H428H550.784H552.784H626.203H629.536H657.869H659.869H698.762H720.198H729.455H733.483H760C762.122 832 764.233 831.947 766.329 831.841C766.776 831.819 767.222 831.794 767.667 831.767C767.888 831.753 768.109 831.739 768.329 831.725C789.02 830.352 808.323 823.905 825.004 813.616C826.06 812.965 827.106 812.298 828.141 811.616C861.273 789.783 883.312 752.486 883.984 710C883.995 709.335 884 708.668 884 708V670V316Z" fill="white"/>
<path d="M604 469H558.013C546.518 473.315 545.065 478.309 545.002 483.637C550.309 478.888 557.318 476 565 476H639C645.723 476 651.929 478.211 656.931 481.946C656.613 477.253 655.217 472.855 661.987 469H604Z" fill="white"/>
<path d="M636 454H604V469H661.987C656.799 460.033 647.104 454 636 454Z" fill="white"/>
<path d="M604 454H584C572.896 454 563.201 460.033 558.013 469H604V454Z" fill="white"/>
<path d="M693 513.667V491.333C693 478.999 691.553 469 678.667 469H661.987C655.217 472.855 656.613 477.253 656.931 481.946C664.257 487.416 669 496.154 669 506V536H669.667C682.553 536 693 526.001 693 513.667Z" fill="white"/>
<path d="M428 872H388H250C200.785 872 156.633 850.321 126.572 815.993C132.605 878.849 185.562 928 250 928H398.524H454.426H760C794.079 928 824.947 914.252 847.361 892C847.853 891.512 848.341 891.019 848.825 890.523C867.975 870.866 880.656 844.876 883.428 815.992C859.786 842.991 827.427 862.166 790.745 869.123C790.406 869.187 790.067 869.25 789.727 869.313C789.4 869.372 789.073 869.431 788.745 869.489C782.07 870.669 775.256 871.446 768.329 871.792C767.663 871.825 766.997 871.855 766.329 871.88C764.229 871.96 762.119 872 760 872H745.596H743.287H720.578H718.288H682.285H680.285H659.869H657.869H575.2H573.2H552.784H550.784H428Z" fill="white"/>
<path d="M250 1024H760C801.636 1024 838.479 1003.48 860.967 972H760H473H250C201.656 972 158.081 951.58 127.43 918.895C136.53 978.41 187.941 1024 250 1024Z" fill="white"/>
</g>
<defs>
<clipPath id="clip0_307_45">
<rect width="1024" height="1024" fill="white"/>
</clipPath>
</defs>
</svg>
