<svg width="1024" height="1024" viewBox="0 0 1024 1024" fill="none" xmlns="http://www.w3.org/2000/svg">
<g clip-path="url(#clip0_307_43)">
<path fill-rule="evenodd" clip-rule="evenodd" d="M636.874 531.539C636.768 531.645 636.034 531.114 634.765 530.036C635.527 530.406 636.241 530.907 636.874 531.539Z" fill="white"/>
<path fill-rule="evenodd" clip-rule="evenodd" d="M553.038 892V758.288H594.308C604.219 758.288 613.015 759.599 620.665 762.267C628.401 764.847 634.561 769.177 639.051 775.277C643.742 781.37 645.968 789.592 645.968 799.712C645.968 809.397 643.786 817.568 639.273 824.082L639.263 824.097C634.798 830.419 628.671 835.163 620.958 838.345L620.943 838.351C613.382 841.398 604.725 842.896 595.013 842.896H577.467V892H553.038ZM575.466 840.896H595.013C604.522 840.896 612.916 839.429 620.194 836.496C623.229 835.244 625.997 833.746 628.498 832C632.092 829.491 635.136 826.473 637.628 822.944C641.854 816.843 643.967 809.099 643.967 799.712C643.967 789.856 641.795 782.112 637.452 776.48C633.225 770.731 627.414 766.624 620.018 764.16C612.622 761.579 604.052 760.288 594.308 760.288H555.039V832V872V890H575.466V872V840.896ZM577.467 822.352H593.252C603.262 822.352 610.363 820.387 614.903 816.799C619.329 813.301 621.715 807.755 621.715 799.712C621.715 791.418 619.213 786.243 614.735 783.458C609.915 780.461 602.549 778.832 592.371 778.832H577.467V822.352ZM593.252 824.352C603.465 824.352 611.096 822.357 616.144 818.368C621.192 814.379 623.716 808.16 623.716 799.712C623.716 791.029 621.075 785.045 615.792 781.76C610.509 778.475 602.702 776.832 592.371 776.832H575.466V824.352H593.252ZM660.181 892V758.288H704.621C713.72 758.288 721.928 759.543 729.217 762.091C736.607 764.556 742.528 768.712 746.898 774.573C751.352 780.429 753.464 788.297 753.464 797.952C753.464 807.289 751.338 815.169 746.938 821.451C743.959 825.704 740.252 829.22 735.837 832H731.806C737.343 829.14 741.841 825.242 745.299 820.304C749.408 814.437 751.462 806.987 751.462 797.952C751.462 788.565 749.408 781.173 745.299 775.776C741.19 770.261 735.614 766.331 728.57 763.984C721.526 761.52 713.543 760.288 704.621 760.288H662.182V832V872V890H682.609V872V837.728H703.793L722.924 872L732.972 890H756.041L745.645 872H747.956L759.507 892H731.797L702.618 839.728H684.61V892H660.181ZM768.7 892V758.288H849.303V779.536H793.129V811.616H840.675V832.864H793.129V870.576H851.24V892H768.7ZM791.128 872.576V869.489V830.864H838.674V813.616H827.407H791.128V777.536H847.302V760.288H770.701V831.725V871.792V890H849.239V872.576H791.128Z" fill="white"/>
<path fill-rule="evenodd" clip-rule="evenodd" d="M966.978 755C966.978 733.053 951.259 714.776 930.459 710.802C929.139 710.549 927.799 710.355 926.442 710.221C924.966 710.075 923.469 710 921.954 710H886.435V708C886.435 708.668 886.429 709.335 886.419 710H475.212C450.346 710 430.188 730.147 430.188 755V832V872V887C430.188 905.23 441.033 920.928 456.628 928C462.293 930.569 468.585 932 475.212 932H871.243H882.264H921.954C946.82 932 966.978 911.853 966.978 887V755ZM128.597 815.993C128.405 815.774 128.214 815.555 128.024 815.335V804C128.024 808.046 128.218 812.046 128.597 815.993ZM128.597 815.993C158.673 850.321 202.849 872 252.091 872H390.166V887C390.166 901.867 393.985 915.842 400.696 928H252.091C187.619 928 134.632 878.849 128.597 815.993ZM252.091 972C203.721 972 160.123 951.58 129.455 918.895C138.559 978.41 189.998 1024 252.091 1024H762.367C804.026 1024 840.889 1003.48 863.39 972H762.367H475.212H252.091ZM662.182 760.288V832V872V890H682.609V872V837.728H703.793L722.924 872L732.972 890H756.041L745.645 872H747.956L727.245 836.139C727.943 835.893 728.632 835.633 729.313 835.361L729.327 835.356L729.34 835.35C731.652 834.387 733.818 833.271 735.837 832H731.806C737.343 829.14 741.841 825.242 745.299 820.304C749.408 814.437 751.462 806.987 751.462 797.952C751.462 788.565 749.408 781.173 745.299 775.776C741.19 770.261 735.614 766.331 728.57 763.984C721.526 761.52 713.543 760.288 704.621 760.288H662.182ZM684.61 819.36H702.156C711.312 819.36 717.961 817.467 722.402 813.98C726.868 810.449 729.21 805.221 729.21 797.952C729.21 790.527 726.857 785.866 722.604 783.295L722.58 783.281L722.557 783.266C718.09 780.396 711.374 778.832 702.156 778.832H684.61V819.36ZM555.039 760.288V832V872V890H575.466V872V840.896H595.013C604.522 840.896 612.916 839.429 620.194 836.496C623.229 835.244 625.997 833.746 628.498 832C632.092 829.491 635.136 826.473 637.628 822.944C641.854 816.843 643.967 809.099 643.967 799.712C643.967 789.856 641.795 782.112 637.452 776.48C633.225 770.731 627.414 766.624 620.018 764.16C612.622 761.579 604.052 760.288 594.308 760.288H555.039ZM593.252 824.352H575.466V776.832H592.371C602.702 776.832 610.509 778.475 615.792 781.76C621.075 785.045 623.716 791.029 623.716 799.712C623.716 808.16 621.192 814.379 616.144 818.368C611.096 822.357 603.465 824.352 593.252 824.352ZM770.701 831.725V760.288H847.302V777.536H791.128V813.616H827.407H838.674V830.864H791.128V869.489V872.576H849.239V890H770.701V871.792V831.725Z" fill="white"/>
<path fill-rule="evenodd" clip-rule="evenodd" d="M728.57 833.504C727.855 833.79 727.13 834.062 726.395 834.318L726.33 834.341L726.309 834.348L726.295 834.353C726.291 834.355 726.286 834.356 726.282 834.358M731.806 832C730.764 832.538 729.686 833.039 728.57 833.504ZM745.645 872L724.282 835.009ZM745.645 872H747.956ZM747.956 872L727.245 836.139ZM727.245 836.139C727.943 835.893 728.632 835.633 729.313 835.361ZM729.313 835.361L729.327 835.356ZM729.327 835.356L729.34 835.35ZM729.34 835.35C731.652 834.387 733.818 833.271 735.837 832ZM735.837 832H731.806Z" fill="white"/>
<path d="M128.024 316C128.024 247.517 183.571 192 252.091 192H512.845C509.946 188.279 508.23 183.664 508.23 178.667V156.333C508.23 143.999 518.682 134 531.576 134L606.283 134V96H252.091C183.571 96 128.024 151.517 128.024 220V316Z" fill="white"/>
<path d="M128.024 220C128.024 151.517 183.571 96 252.091 96H606.283V67H531.576C521.367 67 512.689 60.7322 509.518 52H252.091C203.721 52 160.123 72.4198 129.455 105.105C128.513 111.266 128.024 117.576 128.024 124V220Z" fill="white"/>
<path d="M531.576 0H252.091C189.998 0 138.559 45.5896 129.455 105.105C160.123 72.4198 203.721 52 252.091 52H509.518C508.683 49.703 508.23 47.2355 508.23 44.6667V22.3333C508.23 9.99897 518.682 0 531.576 0Z" fill="white"/>
<path d="M762.367 0H606.283V52H762.367C810.738 52 854.336 72.4198 885.003 105.105C875.899 45.5896 824.46 0 762.367 0Z" fill="white"/>
<path d="M762.367 96C830.888 96 886.435 151.517 886.435 220V124C886.435 117.576 885.946 111.266 885.003 105.105C854.336 72.4198 810.738 52 762.367 52H606.283V67L680.99 67C693.884 67 704.336 76.999 704.336 89.3333V96H762.367Z" fill="white"/>
<path d="M762.367 192C830.888 192 886.435 247.517 886.435 316V220C886.435 151.517 830.888 96 762.367 96H704.336V111.667C704.336 124.001 693.884 134 680.99 134L606.283 134V192H762.367Z" fill="white"/>
<path fill-rule="evenodd" clip-rule="evenodd" d="M568.112 519.064C568.125 519.064 568.138 519.071 568.151 519.083C568.322 519.242 568.487 520.39 568.642 522.385M568.11 519.064L568.112 519.064C568.111 519.099 568.111 519.134 568.11 519.17C568.11 519.205 568.11 519.24 568.11 519.275C568.11 519.311 568.11 519.347 568.11 519.382C568.111 519.414 568.111 519.446 568.112 519.477C568.134 520.495 568.319 521.473 568.642 522.385M568.62 581.803C568.459 583.783 568.288 584.851 568.11 584.851C568.11 583.783 568.289 582.758 568.62 581.803Z" fill="white"/>
<path fill-rule="evenodd" clip-rule="evenodd" d="M586.731 519.064L586.728 519.064C586.7 519.065 586.673 519.093 586.645 519.147C586.49 519.448 586.34 520.563 586.199 522.385C586.466 521.631 586.638 520.833 586.703 520.004C586.721 519.764 586.731 519.521 586.731 519.275C586.731 519.205 586.73 519.134 586.728 519.064M586.731 584.851C586.553 584.851 586.381 583.783 586.22 581.803C586.551 582.758 586.731 583.783 586.731 584.851Z" fill="white"/>
<path d="M637.517 509.965C642.589 509.965 646.713 514.019 646.825 519.064C646.827 519.134 646.828 519.205 646.828 519.275C646.828 520.366 646.64 521.413 646.296 522.385C645.016 525.998 641.569 528.586 637.517 528.586C633.466 528.586 630.019 525.998 628.739 522.385C628.394 521.413 628.207 520.366 628.207 519.275C628.207 519.205 628.208 519.134 628.209 519.064C628.322 514.019 632.446 509.965 637.517 509.965Z" fill="white"/>
<path fill-rule="evenodd" clip-rule="evenodd" d="M646.828 519.064L646.825 519.064C646.64 519.074 646.462 520.239 646.296 522.385C646.64 521.413 646.828 520.366 646.828 519.275C646.828 519.205 646.827 519.134 646.825 519.064M646.828 584.851C646.65 584.851 646.478 583.783 646.317 581.803C646.648 582.758 646.828 583.783 646.828 584.851Z" fill="white"/>
<path fill-rule="evenodd" clip-rule="evenodd" d="M583.828 513.47L583.826 513.471C583.703 513.609 584.401 514.559 585.801 516.194C585.356 515.263 584.749 514.39 583.978 513.619C583.928 513.569 583.877 513.52 583.826 513.471M642.486 572.128C642.36 572.253 641.484 571.62 639.97 570.333C640.879 570.775 641.731 571.373 642.486 572.128Z" fill="white"/>
<path d="M606.283 402H531.576C518.682 402 508.23 411.999 508.23 424.333V446.667C508.23 459.001 512.682 469 525.576 469H606.283V402Z" fill="white"/>
<path d="M698.336 513.667V491.333C698.336 478.999 687.884 469 674.99 469H606.283V476H643C659.569 476 673 489.431 673 506V536H674.99C687.884 536 698.336 526.001 698.336 513.667Z" fill="white"/>
<path d="M628.717 581.803C629.979 578.158 633.443 575.541 637.517 575.541C640.691 575.541 643.494 577.129 645.175 579.554C645.415 576.899 644.519 574.16 642.486 572.128C642.36 572.253 641.484 571.62 639.97 570.333C636.5 568.648 632.2 569.246 629.319 572.128L629.319 572.128C629.146 575.693 628.941 579.046 628.717 581.803Z" fill="white"/>
<path d="M637.517 575.541C633.443 575.541 629.979 578.158 628.717 581.803C628.643 582.717 628.566 583.436 628.488 583.946C629.118 584.743 629.408 585.206 629.319 585.294C632.955 588.93 638.85 588.93 642.486 585.294C644.09 583.691 644.986 581.649 645.175 579.554C643.494 577.129 640.691 575.541 637.517 575.541Z" fill="white"/>
<path d="M586.728 519.064L586.731 519.064C587.485 519.064 588.124 530.566 588.343 542.405C594.362 548.122 600.213 553.794 602.681 556.262C608.74 562.322 622.05 576.334 627.525 582.779C626.44 580.544 626.302 577.965 627.11 575.643C626.848 570.757 626.654 564.466 626.566 558.129C621.501 553.36 616.483 548.519 613.454 545.489C611.102 543.137 605.841 537.714 600.404 532H600.283V531.873C594.961 526.279 589.491 520.427 586.431 516.923C586.61 517.609 586.712 518.326 586.728 519.064Z" fill="white"/>
<path d="M583.978 526.786C581.113 529.651 576.846 530.258 573.386 528.609C576.055 530.894 580.55 535.047 585.281 539.508C585.474 534.116 585.767 528.254 586.117 523.463C585.665 524.675 584.952 525.812 583.978 526.786Z" fill="white"/>
<path d="M577.42 528.586C581.472 528.586 584.919 525.998 586.199 522.385C586.34 520.563 586.49 519.448 586.645 519.147C586.53 518.133 586.248 517.134 585.801 516.194C584.401 514.559 583.703 513.609 583.826 513.471C580.18 509.984 574.397 510.033 570.811 513.619C569.278 515.152 568.392 517.086 568.151 519.083C568.322 519.242 568.487 520.39 568.642 522.385C569.922 525.998 573.369 528.586 577.42 528.586Z" fill="white"/>
<path d="M577.42 594.161C582.562 594.161 586.731 589.993 586.731 584.851C586.553 584.851 586.381 583.783 586.22 581.803C584.958 578.158 581.495 575.541 577.42 575.541C573.346 575.541 569.882 578.158 568.62 581.803C568.459 583.783 568.288 584.851 568.11 584.851C568.11 589.993 572.278 594.161 577.42 594.161Z" fill="white"/>
<path d="M639.97 570.333C640.879 570.775 641.731 571.373 642.486 572.128C642.889 571.725 636.98 565.104 629.823 557.513C629.799 558.677 629.771 559.877 629.737 561.098C633.691 564.779 637.422 568.169 639.97 570.333Z" fill="white"/>
<path d="M628.433 584.27C628.699 584.627 628.995 584.97 629.319 585.294C629.408 585.206 629.118 584.743 628.488 583.946C628.47 584.066 628.451 584.174 628.433 584.27Z" fill="white"/>
<path d="M628.295 584.763C628.877 585.186 629.235 585.379 629.319 585.294C628.995 584.97 628.699 584.627 628.433 584.27C628.387 584.505 628.341 584.67 628.295 584.763Z" fill="white"/>
<path d="M637.517 594.161C642.659 594.161 646.828 589.993 646.828 584.851C646.65 584.851 646.478 583.783 646.317 581.803C646.038 580.998 645.652 580.242 645.175 579.554C644.986 581.649 644.09 583.691 642.486 585.294C638.85 588.93 632.955 588.93 629.319 585.294C629.235 585.379 628.877 585.186 628.295 584.763C628.266 584.821 628.237 584.851 628.207 584.851C628.207 589.993 632.375 594.161 637.517 594.161Z" fill="white"/>
<path d="M628.279 583.685C628.36 583.035 628.509 582.405 628.717 581.803C628.941 579.046 629.146 575.693 629.319 572.128C628.293 573.154 627.557 574.359 627.11 575.643C627.28 578.797 627.478 581.366 627.696 582.98C627.911 583.235 628.105 583.47 628.279 583.685Z" fill="white"/>
<path d="M627.11 575.643C626.302 577.965 626.44 580.544 627.525 582.779L627.605 582.873C627.636 582.909 627.666 582.945 627.696 582.98C627.478 581.366 627.28 578.797 627.11 575.643Z" fill="white"/>
<path d="M629.737 561.098C628.69 560.123 627.627 559.128 626.566 558.129C626.654 564.466 626.848 570.757 627.11 575.643C627.557 574.359 628.293 573.154 629.319 572.128C629.493 568.534 629.636 564.726 629.737 561.098Z" fill="white"/>
<path d="M628.488 583.946C628.566 583.436 628.643 582.717 628.717 581.803C628.509 582.405 628.36 583.035 628.279 583.685C628.352 583.776 628.422 583.863 628.488 583.946Z" fill="white"/>
<path d="M886.435 316C886.435 247.517 830.888 192 762.367 192H606.283V201H680.99C693.884 201 704.336 210.999 704.336 223.333V245.667C704.336 258.001 693.884 268 680.99 268H606.283V335H680.99C693.884 335 704.336 344.999 704.336 357.333V379.667C704.336 392.001 693.884 402 680.99 402H606.283V469H674.99C687.884 469 698.336 478.999 698.336 491.333V513.667C698.336 526.001 687.884 536 674.99 536H673V594C673 610.569 659.569 624 643 624H569C552.431 624 539 610.569 539 594V506C539 489.431 552.431 476 569 476H606.283V469H525.576C512.682 469 508.23 459.001 508.23 446.667V424.333C508.23 411.999 518.682 402 531.576 402H606.283V335H531.576C518.682 335 508.23 325.001 508.23 312.667V290.333C508.23 277.999 518.682 268 531.576 268H606.283V201H531.576C523.907 201 517.101 197.462 512.845 192H252.091C183.571 192 128.024 247.517 128.024 316V708C128.024 776.483 183.571 832 252.091 832H390.166V755C390.166 708.056 428.242 670 475.212 670H886.435V316Z" fill="white"/>
<path d="M569.803 550.804C569.803 559.374 569.306 573.374 568.62 581.803C569.882 578.158 573.346 575.541 577.42 575.541C581.495 575.541 584.958 578.158 586.22 581.803C585.535 573.374 585.038 559.374 585.038 550.804C585.038 548.697 585.084 546.018 585.167 543.064C577.305 534.765 570.268 527.03 570.661 526.636L570.663 526.635C569.808 525.741 569.165 524.718 568.735 523.63C569.361 532.263 569.803 544.282 569.803 550.804Z" fill="white"/>
<path d="M573.386 528.609C572.455 528.165 571.582 527.557 570.811 526.786C570.761 526.736 570.712 526.686 570.663 526.635L570.661 526.636C570.268 527.03 577.305 534.765 585.167 543.064C585.2 541.914 585.238 540.723 585.281 539.508C580.55 535.047 576.055 530.894 573.386 528.609Z" fill="white"/>
<path d="M586.199 522.385C584.919 525.998 581.472 528.586 577.42 528.586C573.369 528.586 569.922 525.998 568.642 522.385C568.673 522.791 568.705 523.207 568.735 523.63C569.165 524.718 569.808 525.741 570.663 526.635C570.801 526.511 571.751 527.209 573.386 528.609C576.846 530.258 581.113 529.651 583.978 526.786C584.952 525.812 585.665 524.675 586.117 523.463C586.144 523.098 586.171 522.738 586.199 522.385Z" fill="white"/>
<path d="M570.811 526.786C571.582 527.557 572.455 528.165 573.386 528.609C571.751 527.209 570.801 526.511 570.663 526.635C570.712 526.686 570.761 526.736 570.811 526.786Z" fill="white"/>
<path d="M577.42 509.965C572.349 509.965 568.225 514.019 568.112 519.064C568.125 519.064 568.138 519.071 568.151 519.083C568.392 517.086 569.278 515.152 570.811 513.619C574.397 510.033 580.18 509.984 583.826 513.471L583.828 513.47C583.926 513.371 584.483 513.737 585.392 514.464C583.762 511.767 580.801 509.965 577.42 509.965Z" fill="white"/>
<path d="M583.978 513.619C584.749 514.39 585.356 515.263 585.801 516.194C585.997 516.424 586.208 516.667 586.431 516.923C586.203 516.046 585.85 515.22 585.392 514.464C584.483 513.737 583.926 513.371 583.828 513.47L583.826 513.471C583.877 513.52 583.928 513.569 583.978 513.619Z" fill="white"/>
<path d="M585.801 516.194C586.248 517.134 586.53 518.133 586.645 519.147C586.673 519.093 586.7 519.065 586.728 519.064C586.712 518.326 586.61 517.609 586.431 516.923C586.208 516.667 585.997 516.424 585.801 516.194Z" fill="white"/>
<path d="M586.731 519.275C586.731 519.521 586.721 519.764 586.703 520.004C586.727 521.176 586.532 522.351 586.117 523.463C585.767 528.254 585.474 534.116 585.281 539.508C585.751 539.95 586.222 540.395 586.694 540.842C587.244 541.362 587.794 541.884 588.343 542.405C588.124 530.566 587.485 519.064 586.731 519.064L586.728 519.064C586.73 519.134 586.731 519.205 586.731 519.275Z" fill="white"/>
<path d="M646.317 581.803C645.632 573.374 645.135 559.374 645.135 550.804C645.135 546.222 645.353 538.928 645.7 532H629.335C629.682 538.928 629.9 546.222 629.9 550.804C629.9 552.793 629.873 555.076 629.823 557.513C636.98 565.104 642.889 571.725 642.486 572.128C644.519 574.16 645.415 576.899 645.175 579.554C645.652 580.242 646.038 580.998 646.317 581.803Z" fill="white"/>
<path d="M636.874 531.539C636.768 531.645 636.034 531.114 634.765 530.036C633.026 529.192 631.039 529.032 629.206 529.555C629.251 530.361 629.294 531.178 629.335 532H645.7C645.871 528.582 646.073 525.254 646.296 522.385C645.016 525.998 641.569 528.586 637.517 528.586C633.466 528.586 630.019 525.998 628.739 522.385C628.908 524.564 629.065 527.008 629.206 529.555C631.039 529.032 633.026 529.192 634.765 530.036C635.527 530.406 636.241 530.907 636.874 531.539Z" fill="white"/>
<path d="M629.319 572.128C632.2 569.246 636.5 568.648 639.97 570.333C637.422 568.169 633.691 564.779 629.737 561.098C629.636 564.726 629.493 568.534 629.319 572.128L629.319 572.128Z" fill="white"/>
<path d="M586.199 522.385C586.171 522.738 586.144 523.098 586.117 523.463C586.532 522.351 586.727 521.176 586.703 520.004C586.638 520.833 586.466 521.631 586.199 522.385Z" fill="white"/>
</g>
<defs>
<clipPath id="clip0_307_43">
<rect width="1024" height="1024" fill="white"/>
</clipPath>
</defs>
</svg>
