<svg width="512" height="512" viewBox="0 0 512 512" fill="none" xmlns="http://www.w3.org/2000/svg">
<mask id="mask0_204_26" style="mask-type:alpha" maskUnits="userSpaceOnUse" x="66" y="0" width="379" height="512">
<rect x="66" width="379" height="512" rx="62" fill="url(#paint0_linear_204_26)"/>
<rect x="66" width="379" height="512" rx="62" fill="url(#paint1_linear_204_26)"/>
<rect x="66" width="379" height="512" rx="62" fill="black" fill-opacity="0.2"/>
<rect x="66" width="379" height="512" rx="62" fill="black" fill-opacity="0.2"/>
</mask>
<g mask="url(#mask0_204_26)">
<rect x="66" y="96" width="379" height="416" rx="62" fill="url(#paint2_linear_204_26)"/>
<rect x="66" y="96" width="379" height="416" rx="62" fill="black" fill-opacity="0.2"/>
<rect x="66" y="96" width="379" height="416" rx="62" fill="black" fill-opacity="0.2"/>
<g filter="url(#filter0_d_204_26)">
<rect x="66" y="48" width="379" height="416" rx="62" fill="url(#paint3_linear_204_26)"/>
<rect x="66" y="48" width="379" height="416" rx="62" fill="black" fill-opacity="0.2"/>
</g>
<g filter="url(#filter1_d_204_26)">
<rect x="66" width="379" height="416" rx="62" fill="url(#paint4_linear_204_26)"/>
<rect x="66" width="379" height="416" rx="62" fill="url(#paint5_linear_204_26)" fill-opacity="0.45"/>
<rect x="66" width="379" height="416" rx="62" fill="url(#paint6_linear_204_26)" fill-opacity="0.3"/>
</g>
<g filter="url(#filter2_d_204_26)">
<path d="M256 11.1667C256 4.99949 261.223 0 267.667 0H305V33.5H267.667C261.223 33.5 256 28.5005 256 22.3333V11.1667Z" fill="white"/>
<path d="M354 55.8333C354 62.0005 348.777 67 342.333 67L305 67L305 33.5L342.333 33.5C348.777 33.5 354 38.4995 354 44.6667V55.8333Z" fill="white"/>
<path d="M256 78.1667C256 71.9995 261.223 67 267.667 67L305 67L305 100.5H267.667C261.223 100.5 256 95.5005 256 89.3333V78.1667Z" fill="white"/>
<path d="M354 122.833C354 129.001 348.777 134 342.333 134H305L305 100.5H342.333C348.777 100.5 354 105.499 354 111.667V122.833Z" fill="white"/>
<path d="M256 145.167C256 138.999 261.223 134 267.667 134H305L305 167.5H267.667C261.223 167.5 256 162.501 256 156.333V145.167Z" fill="white"/>
<path d="M354 189.833C354 196.001 348.777 201 342.333 201H305L305 167.5H342.333C348.777 167.5 354 172.499 354 178.667V189.833Z" fill="white"/>
</g>
</g>
<g filter="url(#filter3_d_204_26)">
<rect x="280" y="227" width="56" height="62" rx="15" fill="white"/>
<path d="M296.027 241.729C298.152 241.729 299.88 243.427 299.927 245.54C299.927 245.57 299.928 245.599 299.928 245.629C299.928 246.086 299.849 246.524 299.705 246.932C299.169 248.445 297.725 249.529 296.027 249.529C294.33 249.529 292.886 248.445 292.35 246.932C292.206 246.524 292.127 246.086 292.127 245.629C292.127 245.599 292.127 245.57 292.128 245.54C292.175 243.427 293.903 241.729 296.027 241.729Z" fill="#0475D9"/>
<path d="M296.027 269.199C297.734 269.199 299.185 270.296 299.714 271.823C299.852 272.223 299.928 272.653 299.928 273.1C299.928 275.254 298.181 277 296.027 277C293.873 277 292.127 275.254 292.127 273.1C292.127 272.653 292.202 272.223 292.341 271.823C292.87 270.296 294.321 269.199 296.027 269.199Z" fill="#0475D9"/>
<path d="M292.35 246.932C292.632 250.57 292.836 255.97 292.836 258.837C292.836 262.427 292.628 268.292 292.341 271.823C292.87 270.296 294.321 269.199 296.027 269.199C297.734 269.199 299.185 270.296 299.714 271.823C299.427 268.292 299.219 262.427 299.219 258.837C299.219 255.97 299.422 250.57 299.705 246.932C299.169 248.445 297.725 249.529 296.027 249.529C294.33 249.529 292.886 248.445 292.35 246.932Z" fill="#0475D9"/>
<path fill-rule="evenodd" clip-rule="evenodd" d="M292.128 245.54C292.206 245.544 292.28 246.033 292.35 246.932L292.128 245.54ZM292.127 245.54C292.127 245.54 292.128 245.54 292.128 245.54C292.127 245.57 292.127 245.599 292.127 245.629C292.127 246.086 292.206 246.524 292.35 246.932M292.341 271.823C292.273 272.652 292.202 273.1 292.127 273.1C292.127 272.653 292.202 272.223 292.341 271.823Z" fill="#0475D9"/>
<path fill-rule="evenodd" clip-rule="evenodd" d="M299.928 245.54C299.927 245.54 299.927 245.54 299.927 245.54C299.849 245.544 299.775 246.033 299.705 246.932C299.849 246.524 299.928 246.086 299.928 245.629C299.928 245.599 299.927 245.57 299.927 245.54M299.928 273.1C299.853 273.1 299.781 272.652 299.714 271.823C299.852 272.223 299.928 272.653 299.928 273.1Z" fill="#0475D9"/>
<path d="M321.203 241.729C323.328 241.729 325.055 243.427 325.103 245.54C325.103 245.57 325.103 245.599 325.103 245.629C325.103 246.086 325.025 246.524 324.881 246.932C324.344 248.445 322.9 249.529 321.203 249.529C319.506 249.529 318.062 248.445 317.526 246.932C317.381 246.524 317.303 246.086 317.303 245.629C317.303 245.599 317.303 245.57 317.304 245.54C317.351 243.427 319.079 241.729 321.203 241.729Z" fill="#0475D9"/>
<path d="M321.203 269.199C322.91 269.199 324.361 270.296 324.89 271.823C325.028 272.223 325.103 272.653 325.103 273.1C325.103 275.254 323.357 277 321.203 277C319.049 277 317.303 275.254 317.303 273.1C317.303 272.653 317.378 272.223 317.517 271.823C318.045 270.296 319.496 269.199 321.203 269.199Z" fill="#0475D9"/>
<path d="M317.526 246.932C317.808 250.57 318.012 255.97 318.012 258.837C318.012 262.427 317.804 268.292 317.517 271.823C318.045 270.296 319.496 269.199 321.203 269.199C322.91 269.199 324.361 270.296 324.89 271.823C324.603 268.292 324.394 262.427 324.394 258.837C324.394 255.97 324.598 250.57 324.881 246.932C324.344 248.445 322.9 249.529 321.203 249.529C319.506 249.529 318.062 248.445 317.526 246.932Z" fill="#0475D9"/>
<path fill-rule="evenodd" clip-rule="evenodd" d="M317.304 245.54C317.381 245.544 317.456 246.033 317.526 246.932L317.304 245.54ZM317.303 245.54C317.303 245.54 317.304 245.54 317.304 245.54C317.303 245.57 317.303 245.599 317.303 245.629C317.303 246.086 317.381 246.524 317.526 246.932M317.517 271.823C317.449 272.652 317.377 273.1 317.303 273.1C317.303 272.653 317.378 272.223 317.517 271.823Z" fill="#0475D9"/>
<path fill-rule="evenodd" clip-rule="evenodd" d="M325.103 245.54C325.103 245.54 325.103 245.54 325.103 245.54C325.025 245.544 324.95 246.033 324.881 246.932C325.025 246.524 325.103 246.086 325.103 245.629C325.103 245.599 325.103 245.57 325.103 245.54M325.103 273.1C325.029 273.1 324.957 272.652 324.89 271.823C325.028 272.223 325.103 272.653 325.103 273.1Z" fill="#0475D9"/>
<path d="M293.259 243.259C294.761 241.757 297.184 241.737 298.711 243.197C298.732 243.218 298.754 243.238 298.774 243.259C299.098 243.582 299.352 243.948 299.538 244.338C300.229 245.788 299.975 247.575 298.774 248.775C297.574 249.975 295.787 250.23 294.337 249.539C293.947 249.353 293.582 249.098 293.259 248.775C293.238 248.754 293.217 248.733 293.197 248.712C291.736 247.184 291.756 244.762 293.259 243.259Z" fill="#0475D9"/>
<path d="M317.769 267.77C318.976 266.563 320.777 266.312 322.231 267.018C322.612 267.203 322.969 267.453 323.285 267.77C324.808 269.293 324.808 271.762 323.285 273.286C321.762 274.809 319.292 274.809 317.769 273.286C317.453 272.969 317.202 272.612 317.017 272.232C316.311 270.778 316.562 268.977 317.769 267.77Z" fill="#0475D9"/>
<path d="M294.337 249.539C297.11 251.912 304.583 259.097 306.609 261.123C309.148 263.662 314.724 269.532 317.017 272.232C316.311 270.778 316.562 268.977 317.769 267.77C318.976 266.563 320.777 266.312 322.231 267.018C319.531 264.724 313.661 259.149 311.122 256.61C309.096 254.584 301.911 247.111 299.538 244.338C300.229 245.788 299.975 247.575 298.774 248.775C297.574 249.975 295.787 250.23 294.337 249.539Z" fill="#0475D9"/>
<path fill-rule="evenodd" clip-rule="evenodd" d="M293.197 248.712C293.254 248.66 293.652 248.953 294.337 249.539L293.197 248.712ZM293.196 248.713C293.196 248.712 293.196 248.712 293.197 248.712C293.217 248.733 293.238 248.754 293.259 248.775C293.582 249.098 293.947 249.353 294.337 249.539M317.017 272.232C317.556 272.866 317.822 273.233 317.769 273.286C317.453 272.969 317.202 272.612 317.017 272.232Z" fill="#0475D9"/>
<path fill-rule="evenodd" clip-rule="evenodd" d="M298.712 243.197C298.712 243.197 298.711 243.197 298.711 243.197C298.659 243.255 298.952 243.653 299.538 244.338C299.352 243.948 299.098 243.582 298.774 243.259C298.754 243.238 298.732 243.218 298.711 243.197M323.285 267.77C323.232 267.822 322.865 267.557 322.231 267.018C322.612 267.203 322.969 267.453 323.285 267.77Z" fill="#0475D9"/>
</g>
<rect x="217" y="352" width="268.25" height="111" rx="22.5" fill="#FFC225"/>
<path d="M279.392 442V377.144H299.016C303.885 377.144 308.168 377.789 311.864 379.08C315.56 380.312 318.464 382.365 320.576 385.24C322.747 388.056 323.832 391.928 323.832 396.856C323.832 401.549 322.776 405.421 320.664 408.472C318.552 411.464 315.648 413.723 311.952 415.248C308.315 416.715 304.12 417.448 299.368 417.448H289.6V442H279.392ZM289.6 409.176H298.488C303.592 409.176 307.405 408.179 309.928 406.184C312.451 404.189 313.712 401.08 313.712 396.856C313.712 392.515 312.392 389.523 309.752 387.88C307.112 386.237 303.211 385.416 298.048 385.416H289.6V409.176ZM332.934 442V377.144H354.142C358.601 377.144 362.59 377.76 366.11 378.992C369.63 380.165 372.417 382.131 374.47 384.888C376.524 387.587 377.55 391.283 377.55 395.976C377.55 400.493 376.524 404.219 374.47 407.152C372.417 410.085 369.63 412.285 366.11 413.752C362.59 415.16 358.601 415.864 354.142 415.864H343.142V442H332.934ZM343.142 407.68H352.91C357.604 407.68 361.182 406.712 363.646 404.776C366.169 402.781 367.43 399.848 367.43 395.976C367.43 392.045 366.169 389.317 363.646 387.792C361.182 386.208 357.604 385.416 352.91 385.416H343.142V407.68ZM368.31 442L352.206 413.136L359.774 407.24L379.838 442H368.31ZM387.164 442V377.144H425.444V385.768H397.372V403.808H421.132V412.432H397.372V433.288H426.412V442H387.164Z" fill="black"/>
<path d="M279.392 442H278.392V443H279.392V442ZM279.392 377.144V376.144H278.392V377.144H279.392ZM311.864 379.08L311.534 380.024L311.541 380.026L311.548 380.029L311.864 379.08ZM320.576 385.24L319.77 385.832L319.777 385.841L319.784 385.851L320.576 385.24ZM320.664 408.472L321.481 409.049L321.486 409.041L320.664 408.472ZM311.952 415.248L312.326 416.175L312.333 416.172L311.952 415.248ZM289.6 417.448V416.448H288.6V417.448H289.6ZM289.6 442V443H290.6V442H289.6ZM289.6 409.176H288.6V410.176H289.6V409.176ZM309.928 406.184L310.548 406.968L309.928 406.184ZM309.752 387.88L310.28 387.031L309.752 387.88ZM289.6 385.416V384.416H288.6V385.416H289.6ZM280.392 442V377.144H278.392V442H280.392ZM279.392 378.144H299.016V376.144H279.392V378.144ZM299.016 378.144C303.799 378.144 307.966 378.778 311.534 380.024L312.194 378.136C308.369 376.8 303.971 376.144 299.016 376.144V378.144ZM311.548 380.029C315.067 381.202 317.792 383.139 319.77 385.832L321.382 384.648C319.136 381.591 316.053 379.422 312.18 378.131L311.548 380.029ZM319.784 385.851C321.776 388.435 322.832 392.065 322.832 396.856H324.832C324.832 391.791 323.717 387.677 321.368 384.629L319.784 385.851ZM322.832 396.856C322.832 401.4 321.811 405.059 319.842 407.903L321.486 409.041C323.741 405.784 324.832 401.699 324.832 396.856H322.832ZM319.847 407.895C317.854 410.718 315.108 412.864 311.57 414.324L312.333 416.172C316.188 414.582 319.25 412.21 321.481 409.049L319.847 407.895ZM311.578 414.321C308.082 415.73 304.018 416.448 299.368 416.448V418.448C304.222 418.448 308.547 417.699 312.326 416.175L311.578 414.321ZM299.368 416.448H289.6V418.448H299.368V416.448ZM288.6 417.448V442H290.6V417.448H288.6ZM289.6 441H279.392V443H289.6V441ZM289.6 410.176H298.488V408.176H289.6V410.176ZM298.488 410.176C303.693 410.176 307.772 409.164 310.548 406.968L309.308 405.4C307.039 407.194 303.49 408.176 298.488 408.176V410.176ZM310.548 406.968C313.382 404.728 314.712 401.282 314.712 396.856H312.712C312.712 400.878 311.52 403.651 309.308 405.4L310.548 406.968ZM314.712 396.856C314.712 392.32 313.322 388.924 310.28 387.031L309.224 388.729C311.462 390.122 312.712 392.709 312.712 396.856H314.712ZM310.28 387.031C307.409 385.244 303.287 384.416 298.048 384.416V386.416C303.134 386.416 306.815 387.23 309.224 388.729L310.28 387.031ZM298.048 384.416H289.6V386.416H298.048V384.416ZM288.6 385.416V409.176H290.6V385.416H288.6ZM332.934 442H331.934V443H332.934V442ZM332.934 377.144V376.144H331.934V377.144H332.934ZM366.11 378.992L365.78 379.936L365.787 379.938L365.794 379.941L366.11 378.992ZM374.47 384.888L373.668 385.485L373.675 385.494L374.47 384.888ZM374.47 407.152L373.651 406.579V406.579L374.47 407.152ZM366.11 413.752L366.482 414.68L366.488 414.678L366.495 414.675L366.11 413.752ZM343.142 415.864V414.864H342.142V415.864H343.142ZM343.142 442V443H344.142V442H343.142ZM343.142 407.68H342.142V408.68H343.142V407.68ZM363.646 404.776L364.264 405.562L364.267 405.56L363.646 404.776ZM363.646 387.792L363.106 388.633L363.117 388.641L363.129 388.648L363.646 387.792ZM343.142 385.416V384.416H342.142V385.416H343.142ZM368.31 442L367.437 442.487L367.723 443H368.31V442ZM352.206 413.136L351.592 412.347L350.915 412.874L351.333 413.623L352.206 413.136ZM359.774 407.24L360.641 406.74L360.066 405.745L359.16 406.451L359.774 407.24ZM379.838 442V443H381.57L380.705 441.5L379.838 442ZM333.934 442V377.144H331.934V442H333.934ZM332.934 378.144H354.142V376.144H332.934V378.144ZM354.142 378.144C358.51 378.144 362.385 378.747 365.78 379.936L366.441 378.048C362.796 376.773 358.692 376.144 354.142 376.144V378.144ZM365.794 379.941C369.136 381.055 371.747 382.905 373.668 385.485L375.272 384.291C373.087 381.356 370.125 379.276 366.427 378.043L365.794 379.941ZM373.675 385.494C375.553 387.962 376.55 391.419 376.55 395.976H378.55C378.55 391.146 377.495 387.211 375.266 384.282L373.675 385.494ZM376.55 395.976C376.55 400.342 375.559 403.853 373.651 406.579L375.29 407.725C377.488 404.585 378.55 400.645 378.55 395.976H376.55ZM373.651 406.579C371.714 409.346 369.083 411.43 365.726 412.829L366.495 414.675C370.178 413.14 373.12 410.824 375.29 407.725L373.651 406.579ZM365.739 412.824C362.356 414.177 358.496 414.864 354.142 414.864V416.864C358.706 416.864 362.825 416.143 366.482 414.68L365.739 412.824ZM354.142 414.864H343.142V416.864H354.142V414.864ZM342.142 415.864V442H344.142V415.864H342.142ZM343.142 441H332.934V443H343.142V441ZM343.142 408.68H352.91V406.68H343.142V408.68ZM352.91 408.68C357.721 408.68 361.555 407.691 364.264 405.562L363.029 403.99C360.809 405.733 357.486 406.68 352.91 406.68V408.68ZM364.267 405.56C367.079 403.337 368.43 400.084 368.43 395.976H366.43C366.43 399.612 365.259 402.226 363.026 403.992L364.267 405.56ZM368.43 395.976C368.43 391.827 367.084 388.702 364.164 386.936L363.129 388.648C365.254 389.933 366.43 392.264 366.43 395.976H368.43ZM364.187 386.951C361.492 385.218 357.69 384.416 352.91 384.416V386.416C357.517 386.416 360.873 387.198 363.106 388.633L364.187 386.951ZM352.91 384.416H343.142V386.416H352.91V384.416ZM342.142 385.416V407.68H344.142V385.416H342.142ZM369.184 441.513L353.08 412.649L351.333 413.623L367.437 442.487L369.184 441.513ZM352.821 413.925L360.389 408.029L359.16 406.451L351.592 412.347L352.821 413.925ZM358.908 407.74L378.972 442.5L380.705 441.5L360.641 406.74L358.908 407.74ZM379.838 441H368.31V443H379.838V441ZM387.164 442H386.164V443H387.164V442ZM387.164 377.144V376.144H386.164V377.144H387.164ZM425.444 377.144H426.444V376.144H425.444V377.144ZM425.444 385.768V386.768H426.444V385.768H425.444ZM397.372 385.768V384.768H396.372V385.768H397.372ZM397.372 403.808H396.372V404.808H397.372V403.808ZM421.132 403.808H422.132V402.808H421.132V403.808ZM421.132 412.432V413.432H422.132V412.432H421.132ZM397.372 412.432V411.432H396.372V412.432H397.372ZM397.372 433.288H396.372V434.288H397.372V433.288ZM426.412 433.288H427.412V432.288H426.412V433.288ZM426.412 442V443H427.412V442H426.412ZM388.164 442V377.144H386.164V442H388.164ZM387.164 378.144H425.444V376.144H387.164V378.144ZM424.444 377.144V385.768H426.444V377.144H424.444ZM425.444 384.768H397.372V386.768H425.444V384.768ZM396.372 385.768V403.808H398.372V385.768H396.372ZM397.372 404.808H421.132V402.808H397.372V404.808ZM420.132 403.808V412.432H422.132V403.808H420.132ZM421.132 411.432H397.372V413.432H421.132V411.432ZM396.372 412.432V433.288H398.372V412.432H396.372ZM397.372 434.288H426.412V432.288H397.372V434.288ZM425.412 433.288V442H427.412V433.288H425.412ZM426.412 441H387.164V443H426.412V441Z" fill="black"/>
<defs>
<filter id="filter0_d_204_26" x="26" y="8" width="459" height="496" filterUnits="userSpaceOnUse" color-interpolation-filters="sRGB">
<feFlood flood-opacity="0" result="BackgroundImageFix"/>
<feColorMatrix in="SourceAlpha" type="matrix" values="0 0 0 0 0 0 0 0 0 0 0 0 0 0 0 0 0 0 127 0" result="hardAlpha"/>
<feOffset/>
<feGaussianBlur stdDeviation="20"/>
<feComposite in2="hardAlpha" operator="out"/>
<feColorMatrix type="matrix" values="0 0 0 0 0 0 0 0 0 0 0 0 0 0 0 0 0 0 0.25 0"/>
<feBlend mode="normal" in2="BackgroundImageFix" result="effect1_dropShadow_204_26"/>
<feBlend mode="normal" in="SourceGraphic" in2="effect1_dropShadow_204_26" result="shape"/>
</filter>
<filter id="filter1_d_204_26" x="-14" y="-76" width="539" height="576" filterUnits="userSpaceOnUse" color-interpolation-filters="sRGB">
<feFlood flood-opacity="0" result="BackgroundImageFix"/>
<feColorMatrix in="SourceAlpha" type="matrix" values="0 0 0 0 0 0 0 0 0 0 0 0 0 0 0 0 0 0 127 0" result="hardAlpha"/>
<feOffset dy="4"/>
<feGaussianBlur stdDeviation="40"/>
<feComposite in2="hardAlpha" operator="out"/>
<feColorMatrix type="matrix" values="0 0 0 0 0 0 0 0 0 0 0 0 0 0 0 0 0 0 0.4 0"/>
<feBlend mode="normal" in2="BackgroundImageFix" result="effect1_dropShadow_204_26"/>
<feBlend mode="normal" in="SourceGraphic" in2="effect1_dropShadow_204_26" result="shape"/>
</filter>
<filter id="filter2_d_204_26" x="249" y="0" width="112" height="215" filterUnits="userSpaceOnUse" color-interpolation-filters="sRGB">
<feFlood flood-opacity="0" result="BackgroundImageFix"/>
<feColorMatrix in="SourceAlpha" type="matrix" values="0 0 0 0 0 0 0 0 0 0 0 0 0 0 0 0 0 0 127 0" result="hardAlpha"/>
<feOffset dy="7"/>
<feGaussianBlur stdDeviation="3.5"/>
<feComposite in2="hardAlpha" operator="out"/>
<feColorMatrix type="matrix" values="0 0 0 0 0 0 0 0 0 0 0 0 0 0 0 0 0 0 0.25 0"/>
<feBlend mode="normal" in2="BackgroundImageFix" result="effect1_dropShadow_204_26"/>
<feBlend mode="normal" in="SourceGraphic" in2="effect1_dropShadow_204_26" result="shape"/>
</filter>
<filter id="filter3_d_204_26" x="272" y="225" width="72" height="78" filterUnits="userSpaceOnUse" color-interpolation-filters="sRGB">
<feFlood flood-opacity="0" result="BackgroundImageFix"/>
<feColorMatrix in="SourceAlpha" type="matrix" values="0 0 0 0 0 0 0 0 0 0 0 0 0 0 0 0 0 0 127 0" result="hardAlpha"/>
<feOffset dy="6"/>
<feGaussianBlur stdDeviation="4"/>
<feColorMatrix type="matrix" values="0 0 0 0 0 0 0 0 0 0 0 0 0 0 0 0 0 0 0.25 0"/>
<feBlend mode="normal" in2="BackgroundImageFix" result="effect1_dropShadow_204_26"/>
<feBlend mode="normal" in="SourceGraphic" in2="effect1_dropShadow_204_26" result="shape"/>
</filter>
<linearGradient id="paint0_linear_204_26" x1="255.5" y1="0" x2="255.5" y2="512" gradientUnits="userSpaceOnUse">
<stop stop-color="#31A8FF"/>
<stop offset="1" stop-color="#007AD2"/>
</linearGradient>
<linearGradient id="paint1_linear_204_26" x1="66" y1="0" x2="555.681" y2="362.479" gradientUnits="userSpaceOnUse">
<stop stop-color="#81DFFF"/>
<stop offset="0.512573" stop-color="#3AC1FD"/>
<stop offset="1" stop-color="#0B9DFF"/>
</linearGradient>
<linearGradient id="paint2_linear_204_26" x1="255.5" y1="96" x2="255.5" y2="512" gradientUnits="userSpaceOnUse">
<stop stop-color="#0079D5"/>
<stop offset="1" stop-color="#0367CC"/>
</linearGradient>
<linearGradient id="paint3_linear_204_26" x1="255.5" y1="48" x2="255.5" y2="464" gradientUnits="userSpaceOnUse">
<stop stop-color="#0079D5"/>
<stop offset="1" stop-color="#0367CC"/>
</linearGradient>
<linearGradient id="paint4_linear_204_26" x1="255.5" y1="0" x2="255.5" y2="416" gradientUnits="userSpaceOnUse">
<stop stop-color="#0079D5"/>
<stop offset="1" stop-color="#0367CC"/>
</linearGradient>
<linearGradient id="paint5_linear_204_26" x1="255.5" y1="0" x2="255.5" y2="416" gradientUnits="userSpaceOnUse">
<stop stop-color="#0085FF"/>
<stop offset="1" stop-color="#0085FF" stop-opacity="0"/>
</linearGradient>
<linearGradient id="paint6_linear_204_26" x1="255.5" y1="0" x2="255.5" y2="416" gradientUnits="userSpaceOnUse">
<stop stop-color="#00C2FF"/>
<stop offset="1" stop-color="#00D1FF" stop-opacity="0"/>
</linearGradient>
</defs>
</svg>
