<svg width="1024" height="1024" viewBox="0 0 1024 1024" fill="none" xmlns="http://www.w3.org/2000/svg">
<mask id="mask0_308_68" style="mask-type:alpha" maskUnits="userSpaceOnUse" x="133" y="0" width="758" height="1024">
<rect x="133" width="758" height="1024" rx="62" fill="url(#paint0_linear_308_68)"/>
<rect x="133" width="758" height="1024" rx="62" fill="url(#paint1_linear_308_68)"/>
<rect x="133" width="758" height="1024" rx="62" fill="black" fill-opacity="0.2"/>
<rect x="133" width="758" height="1024" rx="62" fill="black" fill-opacity="0.2"/>
</mask>
<g mask="url(#mask0_308_68)">
<rect x="133" y="192" width="758" height="832" rx="124" fill="url(#paint2_linear_308_68)"/>
<rect x="133" y="192" width="758" height="832" rx="124" fill="black" fill-opacity="0.2"/>
<rect x="133" y="192" width="758" height="832" rx="124" fill="black" fill-opacity="0.2"/>
<g filter="url(#filter0_d_308_68)">
<rect x="133" y="96" width="758" height="832" rx="124" fill="url(#paint3_linear_308_68)"/>
<rect x="133" y="96" width="758" height="832" rx="124" fill="black" fill-opacity="0.2"/>
</g>
<g filter="url(#filter1_d_308_68)">
<rect x="133" width="758" height="832" rx="124" fill="url(#paint4_linear_308_68)"/>
<rect x="133" width="758" height="832" rx="124" fill="url(#paint5_linear_308_68)" fill-opacity="0.45"/>
<rect x="133" width="758" height="832" rx="124" fill="url(#paint6_linear_308_68)" fill-opacity="0.3"/>
</g>
<g filter="url(#filter2_d_308_68)">
<path d="M513 22.3333C513 9.99897 523.447 0 536.333 0H611V67H536.333C523.447 67 513 57.001 513 44.6667V22.3333Z" fill="white"/>
<path d="M709 111.667C709 124.001 698.553 134 685.667 134L611 134L611 67L685.667 67C698.553 67 709 76.999 709 89.3333V111.667Z" fill="white"/>
<path d="M513 156.333C513 143.999 523.447 134 536.333 134L611 134L611 201H536.333C523.447 201 513 191.001 513 178.667V156.333Z" fill="white"/>
<path d="M709 245.667C709 258.001 698.553 268 685.667 268H611L611 201H685.667C698.553 201 709 210.999 709 223.333V245.667Z" fill="white"/>
<path d="M513 290.333C513 277.999 523.447 268 536.333 268H611L611 335H536.333C523.447 335 513 325.001 513 312.667V290.333Z" fill="white"/>
<path d="M709 379.667C709 392.001 698.553 402 685.667 402H611L611 335H685.667C698.553 335 709 344.999 709 357.333V379.667Z" fill="white"/>
</g>
</g>
<g filter="url(#filter3_d_308_68)">
<rect x="544" y="476" width="134" height="148" rx="30" fill="white"/>
<path d="M582.42 509.965C587.492 509.965 591.616 514.02 591.728 519.064C591.73 519.134 591.731 519.205 591.731 519.275C591.731 520.366 591.543 521.413 591.199 522.385C589.919 525.998 586.472 528.586 582.42 528.586C578.369 528.586 574.922 525.998 573.642 522.385C573.297 521.413 573.11 520.366 573.11 519.275C573.11 519.205 573.111 519.134 573.112 519.064C573.225 514.02 577.349 509.965 582.42 509.965Z" fill="#0475D9"/>
<path d="M582.42 575.541C586.495 575.541 589.958 578.158 591.22 581.803C591.551 582.758 591.731 583.784 591.731 584.851C591.731 589.993 587.562 594.161 582.42 594.161C577.278 594.161 573.11 589.993 573.11 584.851C573.11 583.784 573.29 582.758 573.62 581.803C574.882 578.158 578.346 575.541 582.42 575.541Z" fill="#0475D9"/>
<path d="M573.642 522.385C574.316 531.07 574.803 543.962 574.803 550.804C574.803 559.374 574.306 573.374 573.62 581.803C574.882 578.158 578.346 575.541 582.42 575.541C586.495 575.541 589.958 578.158 591.22 581.803C590.535 573.374 590.038 559.374 590.038 550.804C590.038 543.962 590.524 531.07 591.199 522.385C589.919 525.998 586.472 528.586 582.42 528.586C578.369 528.586 574.922 525.998 573.642 522.385Z" fill="#0475D9"/>
<path fill-rule="evenodd" clip-rule="evenodd" d="M573.112 519.064C573.297 519.074 573.475 520.239 573.642 522.385ZM573.11 519.064C573.111 519.064 573.111 519.064 573.112 519.064C573.111 519.134 573.11 519.205 573.11 519.275C573.11 520.366 573.297 521.413 573.642 522.385M573.62 581.803C573.459 583.783 573.288 584.851 573.11 584.851C573.11 583.784 573.29 582.758 573.62 581.803Z" fill="#0475D9"/>
<path fill-rule="evenodd" clip-rule="evenodd" d="M591.731 519.064C591.73 519.064 591.729 519.064 591.728 519.064C591.543 519.074 591.365 520.239 591.199 522.385C591.543 521.413 591.731 520.366 591.731 519.275C591.731 519.205 591.73 519.134 591.728 519.064M591.731 584.851C591.553 584.851 591.381 583.783 591.22 581.803C591.551 582.758 591.731 583.784 591.731 584.851Z" fill="#0475D9"/>
<path d="M642.517 509.965C647.589 509.965 651.713 514.02 651.825 519.064C651.827 519.134 651.828 519.205 651.828 519.275C651.828 520.366 651.64 521.413 651.296 522.385C650.016 525.998 646.569 528.586 642.517 528.586C638.466 528.586 635.019 525.998 633.739 522.385C633.394 521.413 633.207 520.366 633.207 519.275C633.207 519.205 633.208 519.134 633.209 519.064C633.322 514.02 637.446 509.965 642.517 509.965Z" fill="#0475D9"/>
<path d="M642.517 575.541C646.592 575.541 650.055 578.158 651.317 581.803C651.648 582.758 651.828 583.784 651.828 584.851C651.828 589.993 647.659 594.161 642.517 594.161C637.375 594.161 633.207 589.993 633.207 584.851C633.207 583.784 633.386 582.758 633.717 581.803C634.979 578.158 638.443 575.541 642.517 575.541Z" fill="#0475D9"/>
<path d="M633.739 522.385C634.413 531.07 634.9 543.962 634.9 550.804C634.9 559.374 634.403 573.374 633.717 581.803C634.979 578.158 638.443 575.541 642.517 575.541C646.592 575.541 650.055 578.158 651.317 581.803C650.632 573.374 650.135 559.374 650.135 550.804C650.135 543.962 650.621 531.07 651.296 522.385C650.016 525.998 646.569 528.586 642.517 528.586C638.466 528.586 635.019 525.998 633.739 522.385Z" fill="#0475D9"/>
<path fill-rule="evenodd" clip-rule="evenodd" d="M633.209 519.064C633.394 519.074 633.572 520.239 633.739 522.385ZM633.207 519.064C633.208 519.064 633.208 519.064 633.209 519.064C633.208 519.134 633.207 519.205 633.207 519.275C633.207 520.366 633.394 521.413 633.739 522.385M633.717 581.803C633.556 583.783 633.385 584.851 633.207 584.851C633.207 583.784 633.386 582.758 633.717 581.803Z" fill="#0475D9"/>
<path fill-rule="evenodd" clip-rule="evenodd" d="M651.828 519.064C651.827 519.064 651.826 519.064 651.825 519.064C651.64 519.074 651.462 520.239 651.296 522.385C651.64 521.413 651.828 520.366 651.828 519.275C651.828 519.205 651.827 519.134 651.825 519.064M651.828 584.851C651.65 584.851 651.478 583.783 651.317 581.803C651.648 582.758 651.828 583.784 651.828 584.851Z" fill="#0475D9"/>
<path d="M575.811 513.619C579.397 510.033 585.18 509.984 588.827 513.471C588.877 513.52 588.928 513.569 588.978 513.619C589.749 514.391 590.357 515.263 590.801 516.195C592.45 519.654 591.843 523.922 588.978 526.786C586.113 529.651 581.846 530.259 578.386 528.609C577.455 528.165 576.582 527.557 575.811 526.786C575.761 526.736 575.712 526.686 575.663 526.635C572.176 522.989 572.225 517.205 575.811 513.619Z" fill="#0475D9"/>
<path d="M634.319 572.128C637.201 569.247 641.5 568.649 644.97 570.334C645.879 570.775 646.731 571.373 647.486 572.128C651.122 575.764 651.122 581.659 647.486 585.295C643.85 588.931 637.955 588.931 634.319 585.295C633.565 584.54 632.966 583.688 632.525 582.779C630.84 579.309 631.438 575.009 634.319 572.128Z" fill="#0475D9"/>
<path d="M578.386 528.609C585.004 534.273 602.843 551.424 607.681 556.262C613.741 562.322 627.05 576.334 632.525 582.779C630.84 579.309 631.438 575.009 634.319 572.128C637.201 569.247 641.5 568.649 644.97 570.334C638.526 564.858 624.513 551.549 618.454 545.489C613.616 540.651 596.465 522.813 590.801 516.195C592.45 519.654 591.843 523.922 588.978 526.786C586.113 529.651 581.846 530.259 578.386 528.609Z" fill="#0475D9"/>
<path fill-rule="evenodd" clip-rule="evenodd" d="M575.663 526.635C575.801 526.511 576.751 527.209 578.386 528.609ZM575.661 526.637C575.662 526.636 575.662 526.636 575.663 526.635C575.712 526.686 575.761 526.736 575.811 526.786C576.582 527.557 577.455 528.165 578.386 528.609M632.525 582.779C633.811 584.293 634.445 585.169 634.319 585.295C633.565 584.54 632.966 583.688 632.525 582.779Z" fill="#0475D9"/>
<path fill-rule="evenodd" clip-rule="evenodd" d="M588.828 513.47C588.828 513.47 588.827 513.471 588.827 513.471C588.703 513.609 589.401 514.559 590.801 516.195C590.357 515.263 589.749 514.391 588.978 513.619C588.928 513.569 588.877 513.52 588.827 513.471M647.486 572.128C647.36 572.254 646.484 571.62 644.97 570.334C645.879 570.775 646.731 571.373 647.486 572.128Z" fill="#0475D9"/>
</g>
<defs>
<filter id="filter0_d_308_68" x="53" y="16" width="918" height="992" filterUnits="userSpaceOnUse" color-interpolation-filters="sRGB">
<feFlood flood-opacity="0" result="BackgroundImageFix"/>
<feColorMatrix in="SourceAlpha" type="matrix" values="0 0 0 0 0 0 0 0 0 0 0 0 0 0 0 0 0 0 127 0" result="hardAlpha"/>
<feOffset/>
<feGaussianBlur stdDeviation="40"/>
<feComposite in2="hardAlpha" operator="out"/>
<feColorMatrix type="matrix" values="0 0 0 0 0 0 0 0 0 0 0 0 0 0 0 0 0 0 0.25 0"/>
<feBlend mode="normal" in2="BackgroundImageFix" result="effect1_dropShadow_308_68"/>
<feBlend mode="normal" in="SourceGraphic" in2="effect1_dropShadow_308_68" result="shape"/>
</filter>
<filter id="filter1_d_308_68" x="-27" y="-152" width="1078" height="1152" filterUnits="userSpaceOnUse" color-interpolation-filters="sRGB">
<feFlood flood-opacity="0" result="BackgroundImageFix"/>
<feColorMatrix in="SourceAlpha" type="matrix" values="0 0 0 0 0 0 0 0 0 0 0 0 0 0 0 0 0 0 127 0" result="hardAlpha"/>
<feOffset dy="8"/>
<feGaussianBlur stdDeviation="80"/>
<feComposite in2="hardAlpha" operator="out"/>
<feColorMatrix type="matrix" values="0 0 0 0 0 0 0 0 0 0 0 0 0 0 0 0 0 0 0.4 0"/>
<feBlend mode="normal" in2="BackgroundImageFix" result="effect1_dropShadow_308_68"/>
<feBlend mode="normal" in="SourceGraphic" in2="effect1_dropShadow_308_68" result="shape"/>
</filter>
<filter id="filter2_d_308_68" x="499" y="0" width="224" height="430" filterUnits="userSpaceOnUse" color-interpolation-filters="sRGB">
<feFlood flood-opacity="0" result="BackgroundImageFix"/>
<feColorMatrix in="SourceAlpha" type="matrix" values="0 0 0 0 0 0 0 0 0 0 0 0 0 0 0 0 0 0 127 0" result="hardAlpha"/>
<feOffset dy="14"/>
<feGaussianBlur stdDeviation="7"/>
<feComposite in2="hardAlpha" operator="out"/>
<feColorMatrix type="matrix" values="0 0 0 0 0 0 0 0 0 0 0 0 0 0 0 0 0 0 0.25 0"/>
<feBlend mode="normal" in2="BackgroundImageFix" result="effect1_dropShadow_308_68"/>
<feBlend mode="normal" in="SourceGraphic" in2="effect1_dropShadow_308_68" result="shape"/>
</filter>
<filter id="filter3_d_308_68" x="528" y="472" width="166" height="180" filterUnits="userSpaceOnUse" color-interpolation-filters="sRGB">
<feFlood flood-opacity="0" result="BackgroundImageFix"/>
<feColorMatrix in="SourceAlpha" type="matrix" values="0 0 0 0 0 0 0 0 0 0 0 0 0 0 0 0 0 0 127 0" result="hardAlpha"/>
<feOffset dy="12"/>
<feGaussianBlur stdDeviation="8"/>
<feColorMatrix type="matrix" values="0 0 0 0 0 0 0 0 0 0 0 0 0 0 0 0 0 0 0.25 0"/>
<feBlend mode="normal" in2="BackgroundImageFix" result="effect1_dropShadow_308_68"/>
<feBlend mode="normal" in="SourceGraphic" in2="effect1_dropShadow_308_68" result="shape"/>
</filter>
<linearGradient id="paint0_linear_308_68" x1="512" y1="0" x2="512" y2="1024" gradientUnits="userSpaceOnUse">
<stop stop-color="#31A8FF"/>
<stop offset="1" stop-color="#007AD2"/>
</linearGradient>
<linearGradient id="paint1_linear_308_68" x1="133" y1="0" x2="1112.36" y2="724.957" gradientUnits="userSpaceOnUse">
<stop stop-color="#81DFFF"/>
<stop offset="0.512573" stop-color="#3AC1FD"/>
<stop offset="1" stop-color="#0B9DFF"/>
</linearGradient>
<linearGradient id="paint2_linear_308_68" x1="512" y1="192" x2="512" y2="1024" gradientUnits="userSpaceOnUse">
<stop stop-color="#0079D5"/>
<stop offset="1" stop-color="#0367CC"/>
</linearGradient>
<linearGradient id="paint3_linear_308_68" x1="512" y1="96" x2="512" y2="928" gradientUnits="userSpaceOnUse">
<stop stop-color="#0079D5"/>
<stop offset="1" stop-color="#0367CC"/>
</linearGradient>
<linearGradient id="paint4_linear_308_68" x1="512" y1="0" x2="512" y2="832" gradientUnits="userSpaceOnUse">
<stop stop-color="#0079D5"/>
<stop offset="1" stop-color="#0367CC"/>
</linearGradient>
<linearGradient id="paint5_linear_308_68" x1="512" y1="0" x2="512" y2="832" gradientUnits="userSpaceOnUse">
<stop stop-color="#0085FF"/>
<stop offset="1" stop-color="#0085FF" stop-opacity="0"/>
</linearGradient>
<linearGradient id="paint6_linear_308_68" x1="512" y1="0" x2="512" y2="832" gradientUnits="userSpaceOnUse">
<stop stop-color="#00C2FF"/>
<stop offset="1" stop-color="#00D1FF" stop-opacity="0"/>
</linearGradient>
</defs>
</svg>
