<svg width="512" height="512" viewBox="0 0 512 512" fill="none" xmlns="http://www.w3.org/2000/svg">
<mask id="mask0_204_26" style="mask-type:alpha" maskUnits="userSpaceOnUse" x="66" y="0" width="379" height="512">
<rect x="66" width="379" height="512" rx="62" fill="url(#paint0_linear_204_26)"/>
<rect x="66" width="379" height="512" rx="62" fill="url(#paint1_linear_204_26)"/>
<rect x="66" width="379" height="512" rx="62" fill="black" fill-opacity="0.2"/>
<rect x="66" width="379" height="512" rx="62" fill="black" fill-opacity="0.2"/>
</mask>
<g mask="url(#mask0_204_26)">
<rect x="66" y="96" width="379" height="416" rx="62" fill="url(#paint2_linear_204_26)"/>
<rect x="66" y="96" width="379" height="416" rx="62" fill="black" fill-opacity="0.2"/>
<rect x="66" y="96" width="379" height="416" rx="62" fill="black" fill-opacity="0.2"/>
<g filter="url(#filter0_d_204_26)">
<rect x="66" y="48" width="379" height="416" rx="62" fill="url(#paint3_linear_204_26)"/>
<rect x="66" y="48" width="379" height="416" rx="62" fill="black" fill-opacity="0.2"/>
</g>
<g filter="url(#filter1_d_204_26)">
<rect x="66" width="379" height="416" rx="62" fill="url(#paint4_linear_204_26)"/>
<rect x="66" width="379" height="416" rx="62" fill="url(#paint5_linear_204_26)" fill-opacity="0.45"/>
<rect x="66" width="379" height="416" rx="62" fill="url(#paint6_linear_204_26)" fill-opacity="0.3"/>
</g>
<g filter="url(#filter2_d_204_26)">
<path d="M256 11.1667C256 4.99949 261.223 0 267.667 0H305V33.5H267.667C261.223 33.5 256 28.5005 256 22.3333V11.1667Z" fill="white"/>
<path d="M354 55.8333C354 62.0005 348.777 67 342.333 67L305 67L305 33.5L342.333 33.5C348.777 33.5 354 38.4995 354 44.6667V55.8333Z" fill="white"/>
<path d="M256 78.1667C256 71.9995 261.223 67 267.667 67L305 67L305 100.5H267.667C261.223 100.5 256 95.5005 256 89.3333V78.1667Z" fill="white"/>
<path d="M354 122.833C354 129.001 348.777 134 342.333 134H305L305 100.5H342.333C348.777 100.5 354 105.499 354 111.667V122.833Z" fill="white"/>
<path d="M256 145.167C256 138.999 261.223 134 267.667 134H305L305 167.5H267.667C261.223 167.5 256 162.501 256 156.333V145.167Z" fill="white"/>
<path d="M354 189.833C354 196.001 348.777 201 342.333 201H305L305 167.5H342.333C348.777 167.5 354 172.499 354 178.667V189.833Z" fill="white"/>
</g>
</g>
<g filter="url(#filter3_d_204_26)">
<rect x="280" y="227" width="56" height="62" rx="15" fill="white"/>
<path d="M296.027 241.729C298.152 241.729 299.88 243.427 299.927 245.54C299.927 245.57 299.928 245.599 299.928 245.629C299.928 246.086 299.849 246.524 299.705 246.932C299.169 248.445 297.725 249.529 296.027 249.529C294.33 249.529 292.886 248.445 292.35 246.932C292.206 246.524 292.127 246.086 292.127 245.629C292.127 245.599 292.127 245.57 292.128 245.54C292.175 243.427 293.903 241.729 296.027 241.729Z" fill="#0475D9"/>
<path d="M296.027 269.199C297.734 269.199 299.185 270.296 299.714 271.823C299.852 272.223 299.928 272.653 299.928 273.1C299.928 275.254 298.181 277 296.027 277C293.873 277 292.127 275.254 292.127 273.1C292.127 272.653 292.202 272.223 292.341 271.823C292.87 270.296 294.321 269.199 296.027 269.199Z" fill="#0475D9"/>
<path d="M292.35 246.932C292.632 250.57 292.836 255.97 292.836 258.837C292.836 262.427 292.628 268.292 292.341 271.823C292.87 270.296 294.321 269.199 296.027 269.199C297.734 269.199 299.185 270.296 299.714 271.823C299.427 268.292 299.219 262.427 299.219 258.837C299.219 255.97 299.422 250.57 299.705 246.932C299.169 248.445 297.725 249.529 296.027 249.529C294.33 249.529 292.886 248.445 292.35 246.932Z" fill="#0475D9"/>
<path fill-rule="evenodd" clip-rule="evenodd" d="M292.128 245.54C292.206 245.544 292.28 246.033 292.35 246.932ZM292.127 245.54C292.127 245.54 292.128 245.54 292.128 245.54C292.127 245.57 292.127 245.599 292.127 245.629C292.127 246.086 292.206 246.524 292.35 246.932M292.341 271.823C292.273 272.652 292.202 273.1 292.127 273.1C292.127 272.653 292.202 272.223 292.341 271.823Z" fill="#0475D9"/>
<path fill-rule="evenodd" clip-rule="evenodd" d="M299.928 245.54C299.927 245.54 299.927 245.54 299.927 245.54C299.849 245.544 299.775 246.033 299.705 246.932C299.849 246.524 299.928 246.086 299.928 245.629C299.928 245.599 299.927 245.57 299.927 245.54M299.928 273.1C299.853 273.1 299.781 272.652 299.714 271.823C299.852 272.223 299.928 272.653 299.928 273.1Z" fill="#0475D9"/>
<path d="M321.203 241.729C323.328 241.729 325.055 243.427 325.103 245.54C325.103 245.57 325.103 245.599 325.103 245.629C325.103 246.086 325.025 246.524 324.881 246.932C324.344 248.445 322.9 249.529 321.203 249.529C319.506 249.529 318.062 248.445 317.526 246.932C317.381 246.524 317.303 246.086 317.303 245.629C317.303 245.599 317.303 245.57 317.304 245.54C317.351 243.427 319.079 241.729 321.203 241.729Z" fill="#0475D9"/>
<path d="M321.203 269.199C322.91 269.199 324.361 270.296 324.89 271.823C325.028 272.223 325.103 272.653 325.103 273.1C325.103 275.254 323.357 277 321.203 277C319.049 277 317.303 275.254 317.303 273.1C317.303 272.653 317.378 272.223 317.517 271.823C318.045 270.296 319.496 269.199 321.203 269.199Z" fill="#0475D9"/>
<path d="M317.526 246.932C317.808 250.57 318.012 255.97 318.012 258.837C318.012 262.427 317.804 268.292 317.517 271.823C318.045 270.296 319.496 269.199 321.203 269.199C322.91 269.199 324.361 270.296 324.89 271.823C324.603 268.292 324.394 262.427 324.394 258.837C324.394 255.97 324.598 250.57 324.881 246.932C324.344 248.445 322.9 249.529 321.203 249.529C319.506 249.529 318.062 248.445 317.526 246.932Z" fill="#0475D9"/>
<path fill-rule="evenodd" clip-rule="evenodd" d="M317.304 245.54C317.381 245.544 317.456 246.033 317.526 246.932ZM317.303 245.54C317.303 245.54 317.304 245.54 317.304 245.54C317.303 245.57 317.303 245.599 317.303 245.629C317.303 246.086 317.381 246.524 317.526 246.932M317.517 271.823C317.449 272.652 317.377 273.1 317.303 273.1C317.303 272.653 317.378 272.223 317.517 271.823Z" fill="#0475D9"/>
<path fill-rule="evenodd" clip-rule="evenodd" d="M325.103 245.54C325.103 245.54 325.103 245.54 325.103 245.54C325.025 245.544 324.95 246.033 324.881 246.932C325.025 246.524 325.103 246.086 325.103 245.629C325.103 245.599 325.103 245.57 325.103 245.54M325.103 273.1C325.029 273.1 324.957 272.652 324.89 271.823C325.028 272.223 325.103 272.653 325.103 273.1Z" fill="#0475D9"/>
<path d="M293.259 243.259C294.761 241.757 297.184 241.737 298.711 243.197C298.732 243.218 298.754 243.238 298.774 243.259C299.098 243.582 299.352 243.948 299.538 244.338C300.229 245.788 299.975 247.575 298.774 248.775C297.574 249.975 295.787 250.23 294.337 249.539C293.947 249.353 293.582 249.098 293.259 248.775C293.238 248.754 293.217 248.733 293.197 248.712C291.736 247.184 291.756 244.762 293.259 243.259Z" fill="#0475D9"/>
<path d="M317.769 267.77C318.976 266.563 320.777 266.312 322.231 267.018C322.612 267.203 322.969 267.453 323.285 267.77C324.808 269.293 324.808 271.762 323.285 273.286C321.762 274.809 319.292 274.809 317.769 273.286C317.453 272.969 317.202 272.612 317.017 272.232C316.311 270.778 316.562 268.977 317.769 267.77Z" fill="#0475D9"/>
<path d="M294.337 249.539C297.11 251.912 304.583 259.097 306.609 261.123C309.148 263.662 314.724 269.532 317.017 272.232C316.311 270.778 316.562 268.977 317.769 267.77C318.976 266.563 320.777 266.312 322.231 267.018C319.531 264.724 313.661 259.149 311.122 256.61C309.096 254.584 301.911 247.111 299.538 244.338C300.229 245.788 299.975 247.575 298.774 248.775C297.574 249.975 295.787 250.23 294.337 249.539Z" fill="#0475D9"/>
<path fill-rule="evenodd" clip-rule="evenodd" d="M293.197 248.712C293.254 248.66 293.652 248.953 294.337 249.539ZM293.196 248.713C293.196 248.712 293.196 248.712 293.197 248.712C293.217 248.733 293.238 248.754 293.259 248.775C293.582 249.098 293.947 249.353 294.337 249.539M317.017 272.232C317.556 272.866 317.822 273.233 317.769 273.286C317.453 272.969 317.202 272.612 317.017 272.232Z" fill="#0475D9"/>
<path fill-rule="evenodd" clip-rule="evenodd" d="M298.712 243.197C298.712 243.197 298.711 243.197 298.711 243.197C298.659 243.255 298.952 243.653 299.538 244.338C299.352 243.948 299.098 243.582 298.774 243.259C298.754 243.238 298.732 243.218 298.711 243.197M323.285 267.77C323.232 267.822 322.865 267.557 322.231 267.018C322.612 267.203 322.969 267.453 323.285 267.77Z" fill="#0475D9"/>
</g>
<defs>
<filter id="filter0_d_204_26" x="26" y="8" width="459" height="496" filterUnits="userSpaceOnUse" color-interpolation-filters="sRGB">
<feFlood flood-opacity="0" result="BackgroundImageFix"/>
<feColorMatrix in="SourceAlpha" type="matrix" values="0 0 0 0 0 0 0 0 0 0 0 0 0 0 0 0 0 0 127 0" result="hardAlpha"/>
<feOffset/>
<feGaussianBlur stdDeviation="20"/>
<feComposite in2="hardAlpha" operator="out"/>
<feColorMatrix type="matrix" values="0 0 0 0 0 0 0 0 0 0 0 0 0 0 0 0 0 0 0.25 0"/>
<feBlend mode="normal" in2="BackgroundImageFix" result="effect1_dropShadow_204_26"/>
<feBlend mode="normal" in="SourceGraphic" in2="effect1_dropShadow_204_26" result="shape"/>
</filter>
<filter id="filter1_d_204_26" x="-14" y="-76" width="539" height="576" filterUnits="userSpaceOnUse" color-interpolation-filters="sRGB">
<feFlood flood-opacity="0" result="BackgroundImageFix"/>
<feColorMatrix in="SourceAlpha" type="matrix" values="0 0 0 0 0 0 0 0 0 0 0 0 0 0 0 0 0 0 127 0" result="hardAlpha"/>
<feOffset dy="4"/>
<feGaussianBlur stdDeviation="40"/>
<feComposite in2="hardAlpha" operator="out"/>
<feColorMatrix type="matrix" values="0 0 0 0 0 0 0 0 0 0 0 0 0 0 0 0 0 0 0.4 0"/>
<feBlend mode="normal" in2="BackgroundImageFix" result="effect1_dropShadow_204_26"/>
<feBlend mode="normal" in="SourceGraphic" in2="effect1_dropShadow_204_26" result="shape"/>
</filter>
<filter id="filter2_d_204_26" x="249" y="0" width="112" height="215" filterUnits="userSpaceOnUse" color-interpolation-filters="sRGB">
<feFlood flood-opacity="0" result="BackgroundImageFix"/>
<feColorMatrix in="SourceAlpha" type="matrix" values="0 0 0 0 0 0 0 0 0 0 0 0 0 0 0 0 0 0 127 0" result="hardAlpha"/>
<feOffset dy="7"/>
<feGaussianBlur stdDeviation="3.5"/>
<feComposite in2="hardAlpha" operator="out"/>
<feColorMatrix type="matrix" values="0 0 0 0 0 0 0 0 0 0 0 0 0 0 0 0 0 0 0.25 0"/>
<feBlend mode="normal" in2="BackgroundImageFix" result="effect1_dropShadow_204_26"/>
<feBlend mode="normal" in="SourceGraphic" in2="effect1_dropShadow_204_26" result="shape"/>
</filter>
<filter id="filter3_d_204_26" x="272" y="225" width="72" height="78" filterUnits="userSpaceOnUse" color-interpolation-filters="sRGB">
<feFlood flood-opacity="0" result="BackgroundImageFix"/>
<feColorMatrix in="SourceAlpha" type="matrix" values="0 0 0 0 0 0 0 0 0 0 0 0 0 0 0 0 0 0 127 0" result="hardAlpha"/>
<feOffset dy="6"/>
<feGaussianBlur stdDeviation="4"/>
<feColorMatrix type="matrix" values="0 0 0 0 0 0 0 0 0 0 0 0 0 0 0 0 0 0 0.25 0"/>
<feBlend mode="normal" in2="BackgroundImageFix" result="effect1_dropShadow_204_26"/>
<feBlend mode="normal" in="SourceGraphic" in2="effect1_dropShadow_204_26" result="shape"/>
</filter>
<linearGradient id="paint0_linear_204_26" x1="255.5" y1="0" x2="255.5" y2="512" gradientUnits="userSpaceOnUse">
<stop stop-color="#31A8FF"/>
<stop offset="1" stop-color="#007AD2"/>
</linearGradient>
<linearGradient id="paint1_linear_204_26" x1="66" y1="0" x2="555.681" y2="362.479" gradientUnits="userSpaceOnUse">
<stop stop-color="#81DFFF"/>
<stop offset="0.512573" stop-color="#3AC1FD"/>
<stop offset="1" stop-color="#0B9DFF"/>
</linearGradient>
<linearGradient id="paint2_linear_204_26" x1="255.5" y1="96" x2="255.5" y2="512" gradientUnits="userSpaceOnUse">
<stop stop-color="#0079D5"/>
<stop offset="1" stop-color="#0367CC"/>
</linearGradient>
<linearGradient id="paint3_linear_204_26" x1="255.5" y1="48" x2="255.5" y2="464" gradientUnits="userSpaceOnUse">
<stop stop-color="#0079D5"/>
<stop offset="1" stop-color="#0367CC"/>
</linearGradient>
<linearGradient id="paint4_linear_204_26" x1="255.5" y1="0" x2="255.5" y2="416" gradientUnits="userSpaceOnUse">
<stop stop-color="#0079D5"/>
<stop offset="1" stop-color="#0367CC"/>
</linearGradient>
<linearGradient id="paint5_linear_204_26" x1="255.5" y1="0" x2="255.5" y2="416" gradientUnits="userSpaceOnUse">
<stop stop-color="#0085FF"/>
<stop offset="1" stop-color="#0085FF" stop-opacity="0"/>
</linearGradient>
<linearGradient id="paint6_linear_204_26" x1="255.5" y1="0" x2="255.5" y2="416" gradientUnits="userSpaceOnUse">
<stop stop-color="#00C2FF"/>
<stop offset="1" stop-color="#00D1FF" stop-opacity="0"/>
</linearGradient>
</defs>
</svg>
