<svg width="1024" height="1024" viewBox="0 0 1024 1024" fill="none" xmlns="http://www.w3.org/2000/svg">
<mask id="mask0_307_2" style="mask-type:alpha" maskUnits="userSpaceOnUse" x="132" y="0" width="758" height="1024">
<rect x="132" width="758" height="1024" rx="62" fill="url(#paint0_linear_307_2)"/>
<rect x="132" width="758" height="1024" rx="62" fill="url(#paint1_linear_307_2)"/>
<rect x="132" width="758" height="1024" rx="62" fill="black" fill-opacity="0.2"/>
<rect x="132" width="758" height="1024" rx="62" fill="black" fill-opacity="0.2"/>
</mask>
<g mask="url(#mask0_307_2)">
<rect x="132" y="192" width="758" height="832" rx="124" fill="url(#paint2_linear_307_2)"/>
<rect x="132" y="192" width="758" height="832" rx="124" fill="black" fill-opacity="0.2"/>
<rect x="132" y="192" width="758" height="832" rx="124" fill="black" fill-opacity="0.2"/>
<g filter="url(#filter0_d_307_2)">
<rect x="132" y="96" width="758" height="832" rx="124" fill="url(#paint3_linear_307_2)"/>
<rect x="132" y="96" width="758" height="832" rx="124" fill="black" fill-opacity="0.2"/>
</g>
<g filter="url(#filter1_d_307_2)">
<rect x="132" width="758" height="832" rx="124" fill="url(#paint4_linear_307_2)"/>
<rect x="132" width="758" height="832" rx="124" fill="url(#paint5_linear_307_2)" fill-opacity="0.45"/>
<rect x="132" width="758" height="832" rx="124" fill="url(#paint6_linear_307_2)" fill-opacity="0.3"/>
</g>
<g filter="url(#filter2_d_307_2)">
<path d="M512 22.3333C512 9.99897 522.447 0 535.333 0H610V67H535.333C522.447 67 512 57.001 512 44.6667V22.3333Z" fill="white"/>
<path d="M708 111.667C708 124.001 697.553 134 684.667 134L610 134L610 67L684.667 67C697.553 67 708 76.999 708 89.3333V111.667Z" fill="white"/>
<path d="M512 156.333C512 143.999 522.447 134 535.333 134L610 134L610 201H535.333C522.447 201 512 191.001 512 178.667V156.333Z" fill="white"/>
<path d="M708 245.667C708 258.001 697.553 268 684.667 268H610L610 201H684.667C697.553 201 708 210.999 708 223.333V245.667Z" fill="white"/>
<path d="M512 290.333C512 277.999 522.447 268 535.333 268H610L610 335H535.333C522.447 335 512 325.001 512 312.667V290.333Z" fill="white"/>
<path d="M708 379.667C708 392.001 697.553 402 684.667 402H610L610 335H684.667C697.553 335 708 344.999 708 357.333V379.667Z" fill="white"/>
</g>
</g>
<g filter="url(#filter3_d_307_2)">
<rect x="544" y="476" width="134" height="148" rx="30" fill="white"/>
<path d="M582.42 509.965C587.492 509.965 591.616 514.019 591.728 519.064C591.73 519.134 591.731 519.205 591.731 519.275C591.731 520.366 591.543 521.413 591.199 522.385C589.919 525.998 586.472 528.586 582.42 528.586C578.369 528.586 574.922 525.998 573.642 522.385C573.297 521.413 573.11 520.366 573.11 519.275C573.11 519.205 573.111 519.134 573.112 519.064C573.225 514.019 577.349 509.965 582.42 509.965Z" fill="#0475D9"/>
<path d="M582.42 575.54C586.495 575.54 589.958 578.158 591.22 581.803C591.551 582.758 591.731 583.783 591.731 584.851C591.731 589.993 587.562 594.161 582.42 594.161C577.278 594.161 573.11 589.993 573.11 584.851C573.11 583.783 573.29 582.758 573.62 581.803C574.882 578.158 578.346 575.54 582.42 575.54Z" fill="#0475D9"/>
<path d="M573.642 522.385C574.316 531.07 574.803 543.962 574.803 550.804C574.803 559.374 574.306 573.374 573.62 581.803C574.882 578.158 578.346 575.54 582.42 575.54C586.495 575.54 589.958 578.158 591.22 581.803C590.535 573.374 590.038 559.374 590.038 550.804C590.038 543.962 590.524 531.07 591.199 522.385C589.919 525.998 586.472 528.586 582.42 528.586C578.369 528.586 574.922 525.998 573.642 522.385Z" fill="#0475D9"/>
<path fill-rule="evenodd" clip-rule="evenodd" d="M573.112 519.064C573.297 519.074 573.475 520.239 573.642 522.385ZM573.11 519.064C573.111 519.064 573.111 519.064 573.112 519.064C573.111 519.134 573.11 519.205 573.11 519.275C573.11 520.366 573.297 521.413 573.642 522.385M573.62 581.803C573.459 583.783 573.288 584.851 573.11 584.851C573.11 583.783 573.29 582.758 573.62 581.803Z" fill="#0475D9"/>
<path fill-rule="evenodd" clip-rule="evenodd" d="M591.731 519.064C591.73 519.064 591.729 519.064 591.728 519.064C591.543 519.074 591.365 520.239 591.199 522.385C591.543 521.413 591.731 520.366 591.731 519.275C591.731 519.205 591.73 519.134 591.728 519.064M591.731 584.851C591.553 584.851 591.381 583.783 591.22 581.803C591.551 582.758 591.731 583.783 591.731 584.851Z" fill="#0475D9"/>
<path d="M642.517 509.965C647.589 509.965 651.713 514.019 651.825 519.064C651.827 519.134 651.828 519.205 651.828 519.275C651.828 520.366 651.64 521.413 651.296 522.385C650.016 525.998 646.569 528.586 642.517 528.586C638.466 528.586 635.019 525.998 633.739 522.385C633.394 521.413 633.207 520.366 633.207 519.275C633.207 519.205 633.208 519.134 633.209 519.064C633.322 514.019 637.446 509.965 642.517 509.965Z" fill="#0475D9"/>
<path d="M642.517 575.54C646.592 575.54 650.055 578.158 651.317 581.803C651.648 582.758 651.828 583.783 651.828 584.851C651.828 589.993 647.659 594.161 642.517 594.161C637.375 594.161 633.207 589.993 633.207 584.851C633.207 583.783 633.386 582.758 633.717 581.803C634.979 578.158 638.443 575.54 642.517 575.54Z" fill="#0475D9"/>
<path d="M633.739 522.385C634.413 531.07 634.9 543.962 634.9 550.804C634.9 559.374 634.403 573.374 633.717 581.803C634.979 578.158 638.443 575.54 642.517 575.54C646.592 575.54 650.055 578.158 651.317 581.803C650.632 573.374 650.135 559.374 650.135 550.804C650.135 543.962 650.621 531.07 651.296 522.385C650.016 525.998 646.569 528.586 642.517 528.586C638.466 528.586 635.019 525.998 633.739 522.385Z" fill="#0475D9"/>
<path fill-rule="evenodd" clip-rule="evenodd" d="M633.209 519.064C633.394 519.074 633.572 520.239 633.739 522.385ZM633.207 519.064C633.208 519.064 633.208 519.064 633.209 519.064C633.208 519.134 633.207 519.205 633.207 519.275C633.207 520.366 633.394 521.413 633.739 522.385M633.717 581.803C633.556 583.783 633.385 584.851 633.207 584.851C633.207 583.783 633.386 582.758 633.717 581.803Z" fill="#0475D9"/>
<path fill-rule="evenodd" clip-rule="evenodd" d="M651.828 519.064C651.827 519.064 651.826 519.064 651.825 519.064C651.64 519.074 651.462 520.239 651.296 522.385C651.64 521.413 651.828 520.366 651.828 519.275C651.828 519.205 651.827 519.134 651.825 519.064M651.828 584.851C651.65 584.851 651.478 583.783 651.317 581.803C651.648 582.758 651.828 583.783 651.828 584.851Z" fill="#0475D9"/>
<path d="M575.811 513.619C579.397 510.033 585.18 509.984 588.827 513.471C588.877 513.52 588.928 513.569 588.978 513.619C589.749 514.39 590.357 515.263 590.801 516.194C592.45 519.654 591.843 523.921 588.978 526.786C586.113 529.651 581.846 530.258 578.386 528.609C577.455 528.165 576.582 527.557 575.811 526.786C575.761 526.736 575.712 526.686 575.663 526.635C572.176 522.988 572.225 517.205 575.811 513.619Z" fill="#0475D9"/>
<path d="M634.319 572.128C637.201 569.246 641.5 568.648 644.97 570.333C645.879 570.775 646.731 571.373 647.486 572.128C651.122 575.764 651.122 581.659 647.486 585.294C643.85 588.93 637.955 588.93 634.319 585.294C633.565 584.54 632.966 583.688 632.525 582.779C630.84 579.308 631.438 575.009 634.319 572.128Z" fill="#0475D9"/>
<path d="M578.386 528.609C585.004 534.273 602.843 551.424 607.681 556.262C613.741 562.322 627.05 576.334 632.525 582.779C630.84 579.308 631.438 575.009 634.319 572.128C637.201 569.246 641.5 568.648 644.97 570.333C638.526 564.858 624.513 551.549 618.454 545.489C613.616 540.651 596.465 522.812 590.801 516.194C592.45 519.654 591.843 523.921 588.978 526.786C586.113 529.651 581.846 530.258 578.386 528.609Z" fill="#0475D9"/>
<path fill-rule="evenodd" clip-rule="evenodd" d="M575.663 526.635C575.801 526.511 576.751 527.209 578.386 528.609ZM575.661 526.636C575.662 526.636 575.662 526.635 575.663 526.635C575.712 526.686 575.761 526.736 575.811 526.786C576.582 527.557 577.455 528.165 578.386 528.609M632.525 582.779C633.811 584.292 634.445 585.169 634.319 585.294C633.565 584.54 632.966 583.688 632.525 582.779Z" fill="#0475D9"/>
<path fill-rule="evenodd" clip-rule="evenodd" d="M588.828 513.47C588.828 513.47 588.827 513.471 588.827 513.471C588.703 513.609 589.401 514.559 590.801 516.194C590.357 515.263 589.749 514.39 588.978 513.619C588.928 513.569 588.877 513.52 588.827 513.471M647.486 572.128C647.36 572.253 646.484 571.619 644.97 570.333C645.879 570.775 646.731 571.373 647.486 572.128Z" fill="#0475D9"/>
</g>
<rect x="434" y="704" width="536.5" height="222" rx="45" fill="#FFC225"/>
<path d="M558.784 883V753.288H598.032C607.771 753.288 616.336 754.579 623.728 757.16C631.12 759.624 636.928 763.731 641.152 769.48C645.493 775.112 647.664 782.856 647.664 792.712C647.664 802.099 645.552 809.843 641.328 815.944C637.104 821.928 631.296 826.445 623.904 829.496C616.629 832.429 608.24 833.896 598.736 833.896H579.2V883H558.784ZM579.2 817.352H596.976C607.184 817.352 614.811 815.357 619.856 811.368C624.901 807.379 627.424 801.16 627.424 792.712C627.424 784.029 624.784 778.045 619.504 774.76C614.224 771.475 606.421 769.832 596.096 769.832H579.2V817.352ZM665.869 883V753.288H708.285C717.202 753.288 725.181 754.52 732.221 756.984C739.261 759.331 744.834 763.261 748.941 768.776C753.048 774.173 755.101 781.565 755.101 790.952C755.101 799.987 753.048 807.437 748.941 813.304C744.834 819.171 739.261 823.571 732.221 826.504C725.181 829.32 717.202 830.728 708.285 830.728H686.285V883H665.869ZM686.285 814.36H705.821C715.208 814.36 722.365 812.424 727.293 808.552C732.338 804.563 734.861 798.696 734.861 790.952C734.861 783.091 732.338 777.635 727.293 774.584C722.365 771.416 715.208 769.832 705.821 769.832H686.285V814.36ZM736.621 883L704.413 825.272L719.549 813.48L759.677 883H736.621ZM774.329 883V753.288H850.889V770.536H794.745V806.616H842.265V823.864H794.745V865.576H852.825V883H774.329Z" fill="black"/>
<path d="M558.784 883H556.784V885H558.784V883ZM558.784 753.288V751.288H556.784V753.288H558.784ZM623.728 757.16L623.069 759.048L623.082 759.053L623.095 759.057L623.728 757.16ZM641.152 769.48L639.54 770.664L639.554 770.683L639.568 770.701L641.152 769.48ZM641.328 815.944L642.962 817.097L642.967 817.09L642.972 817.082L641.328 815.944ZM623.904 829.496L624.652 831.351L624.659 831.348L624.667 831.345L623.904 829.496ZM579.2 833.896V831.896H577.2V833.896H579.2ZM579.2 883V885H581.2V883H579.2ZM579.2 817.352H577.2V819.352H579.2V817.352ZM619.856 811.368L621.096 812.937L619.856 811.368ZM619.504 774.76L620.56 773.062L619.504 774.76ZM579.2 769.832V767.832H577.2V769.832H579.2ZM560.784 883V753.288H556.784V883H560.784ZM558.784 755.288H598.032V751.288H558.784V755.288ZM598.032 755.288C607.599 755.288 615.933 756.556 623.069 759.048L624.387 755.272C616.739 752.601 607.943 751.288 598.032 751.288V755.288ZM623.095 759.057C630.133 761.403 635.584 765.279 639.54 770.664L642.764 768.296C638.272 762.182 632.107 757.845 624.36 755.263L623.095 759.057ZM639.568 770.701C643.552 775.87 645.664 783.13 645.664 792.712H649.664C649.664 782.582 647.434 774.354 642.736 768.259L639.568 770.701ZM645.664 792.712C645.664 801.8 643.621 809.118 639.683 814.806L642.972 817.082C647.482 810.568 649.664 802.397 649.664 792.712H645.664ZM639.694 814.791C635.708 820.437 630.216 824.727 623.141 827.647L624.667 831.345C632.376 828.163 638.499 823.419 642.962 817.097L639.694 814.791ZM623.156 827.641C616.164 830.461 608.036 831.896 598.736 831.896V835.896C608.443 835.896 617.095 834.398 624.652 831.351L623.156 827.641ZM598.736 831.896H579.2V835.896H598.736V831.896ZM577.2 833.896V883H581.2V833.896H577.2ZM579.2 881H558.784V885H579.2V881ZM579.2 819.352H596.976V815.352H579.2V819.352ZM596.976 819.352C607.387 819.352 615.543 817.327 621.096 812.937L618.615 809.799C614.078 813.387 606.981 815.352 596.976 815.352V819.352ZM621.096 812.937C626.763 808.456 629.424 801.565 629.424 792.712H625.424C625.424 800.755 623.039 806.301 618.615 809.799L621.096 812.937ZM629.424 792.712C629.424 783.64 626.645 776.848 620.56 773.062L618.447 776.458C622.923 779.243 625.424 784.418 625.424 792.712H629.424ZM620.56 773.062C614.817 769.488 606.574 767.832 596.096 767.832V771.832C606.268 771.832 613.63 773.461 618.447 776.458L620.56 773.062ZM596.096 767.832H579.2V771.832H596.096V767.832ZM577.2 769.832V817.352H581.2V769.832H577.2ZM665.869 883H663.869V885H665.869V883ZM665.869 753.288V751.288H663.869V753.288H665.869ZM732.221 756.984L731.56 758.872L731.574 758.877L731.588 758.881L732.221 756.984ZM748.941 768.776L747.337 769.971L747.343 769.979L747.349 769.987L748.941 768.776ZM748.941 813.304L747.302 812.157V812.157L748.941 813.304ZM732.221 826.504L732.964 828.361L732.977 828.356L732.99 828.35L732.221 826.504ZM686.285 830.728V828.728H684.285V830.728H686.285ZM686.285 883V885H688.285V883H686.285ZM686.285 814.36H684.285V816.36H686.285V814.36ZM727.293 808.552L728.529 810.125L728.533 810.121L727.293 808.552ZM727.293 774.584L726.211 776.266L726.234 776.281L726.258 776.295L727.293 774.584ZM686.285 769.832V767.832H684.285V769.832H686.285ZM736.621 883L734.874 883.974L735.447 885H736.621V883ZM704.413 825.272L703.184 823.694L701.831 824.748L702.666 826.246L704.413 825.272ZM719.549 813.48L721.281 812.48L720.132 810.49L718.32 811.902L719.549 813.48ZM759.677 883V885H763.141L761.409 882L759.677 883ZM667.869 883V753.288H663.869V883H667.869ZM665.869 755.288H708.285V751.288H665.869V755.288ZM708.285 755.288C717.02 755.288 724.769 756.495 731.56 758.872L732.882 755.096C725.592 752.545 717.384 751.288 708.285 751.288V755.288ZM731.588 758.881C738.273 761.109 743.494 764.81 747.337 769.971L750.545 767.581C746.174 761.712 740.249 757.552 732.853 755.087L731.588 758.881ZM747.349 769.987C751.106 774.925 753.101 781.838 753.101 790.952H757.101C757.101 781.293 754.989 773.422 750.533 767.565L747.349 769.987ZM753.101 790.952C753.101 799.684 751.119 806.705 747.302 812.157L750.579 814.451C754.976 808.169 757.101 800.289 757.101 790.952H753.101ZM747.302 812.157C743.428 817.692 738.165 821.861 731.452 824.658L732.99 828.35C740.357 825.281 746.241 820.649 750.579 814.451L747.302 812.157ZM731.478 824.647C724.712 827.353 716.992 828.728 708.285 828.728V832.728C717.413 832.728 725.65 831.287 732.964 828.361L731.478 824.647ZM708.285 828.728H686.285V832.728H708.285V828.728ZM684.285 830.728V883H688.285V830.728H684.285ZM686.285 881H665.869V885H686.285V881ZM686.285 816.36H705.821V812.36H686.285V816.36ZM705.821 816.36C715.442 816.36 723.111 814.381 728.529 810.125L726.057 806.979C721.619 810.467 714.973 812.36 705.821 812.36V816.36ZM728.533 810.121C734.158 805.674 736.861 799.169 736.861 790.952H732.861C732.861 798.223 730.519 803.452 726.052 806.983L728.533 810.121ZM736.861 790.952C736.861 782.654 734.168 776.404 728.328 772.873L726.258 776.295C730.509 778.866 732.861 783.527 732.861 790.952H736.861ZM728.374 772.902C722.984 769.436 715.381 767.832 705.821 767.832V771.832C715.034 771.832 721.746 773.396 726.211 776.266L728.374 772.902ZM705.821 767.832H686.285V771.832H705.821V767.832ZM684.285 769.832V814.36H688.285V769.832H684.285ZM738.367 882.026L706.159 824.298L702.666 826.246L734.874 883.974L738.367 882.026ZM705.642 826.85L720.778 815.058L718.32 811.902L703.184 823.694L705.642 826.85ZM717.817 814.48L757.945 884L761.409 882L721.281 812.48L717.817 814.48ZM759.677 881H736.621V885H759.677V881ZM774.329 883H772.329V885H774.329V883ZM774.329 753.288V751.288H772.329V753.288H774.329ZM850.889 753.288H852.889V751.288H850.889V753.288ZM850.889 770.536V772.536H852.889V770.536H850.889ZM794.745 770.536V768.536H792.745V770.536H794.745ZM794.745 806.616H792.745V808.616H794.745V806.616ZM842.265 806.616H844.265V804.616H842.265V806.616ZM842.265 823.864V825.864H844.265V823.864H842.265ZM794.745 823.864V821.864H792.745V823.864H794.745ZM794.745 865.576H792.745V867.576H794.745V865.576ZM852.825 865.576H854.825V863.576H852.825V865.576ZM852.825 883V885H854.825V883H852.825ZM776.329 883V753.288H772.329V883H776.329ZM774.329 755.288H850.889V751.288H774.329V755.288ZM848.889 753.288V770.536H852.889V753.288H848.889ZM850.889 768.536H794.745V772.536H850.889V768.536ZM792.745 770.536V806.616H796.745V770.536H792.745ZM794.745 808.616H842.265V804.616H794.745V808.616ZM840.265 806.616V823.864H844.265V806.616H840.265ZM842.265 821.864H794.745V825.864H842.265V821.864ZM792.745 823.864V865.576H796.745V823.864H792.745ZM794.745 867.576H852.825V863.576H794.745V867.576ZM850.825 865.576V883H854.825V865.576H850.825ZM852.825 881H774.329V885H852.825V881Z" fill="black"/>
<defs>
<filter id="filter0_d_307_2" x="52" y="16" width="918" height="992" filterUnits="userSpaceOnUse" color-interpolation-filters="sRGB">
<feFlood flood-opacity="0" result="BackgroundImageFix"/>
<feColorMatrix in="SourceAlpha" type="matrix" values="0 0 0 0 0 0 0 0 0 0 0 0 0 0 0 0 0 0 127 0" result="hardAlpha"/>
<feOffset/>
<feGaussianBlur stdDeviation="40"/>
<feComposite in2="hardAlpha" operator="out"/>
<feColorMatrix type="matrix" values="0 0 0 0 0 0 0 0 0 0 0 0 0 0 0 0 0 0 0.25 0"/>
<feBlend mode="normal" in2="BackgroundImageFix" result="effect1_dropShadow_307_2"/>
<feBlend mode="normal" in="SourceGraphic" in2="effect1_dropShadow_307_2" result="shape"/>
</filter>
<filter id="filter1_d_307_2" x="-28" y="-152" width="1078" height="1152" filterUnits="userSpaceOnUse" color-interpolation-filters="sRGB">
<feFlood flood-opacity="0" result="BackgroundImageFix"/>
<feColorMatrix in="SourceAlpha" type="matrix" values="0 0 0 0 0 0 0 0 0 0 0 0 0 0 0 0 0 0 127 0" result="hardAlpha"/>
<feOffset dy="8"/>
<feGaussianBlur stdDeviation="80"/>
<feComposite in2="hardAlpha" operator="out"/>
<feColorMatrix type="matrix" values="0 0 0 0 0 0 0 0 0 0 0 0 0 0 0 0 0 0 0.4 0"/>
<feBlend mode="normal" in2="BackgroundImageFix" result="effect1_dropShadow_307_2"/>
<feBlend mode="normal" in="SourceGraphic" in2="effect1_dropShadow_307_2" result="shape"/>
</filter>
<filter id="filter2_d_307_2" x="498" y="0" width="224" height="430" filterUnits="userSpaceOnUse" color-interpolation-filters="sRGB">
<feFlood flood-opacity="0" result="BackgroundImageFix"/>
<feColorMatrix in="SourceAlpha" type="matrix" values="0 0 0 0 0 0 0 0 0 0 0 0 0 0 0 0 0 0 127 0" result="hardAlpha"/>
<feOffset dy="14"/>
<feGaussianBlur stdDeviation="7"/>
<feComposite in2="hardAlpha" operator="out"/>
<feColorMatrix type="matrix" values="0 0 0 0 0 0 0 0 0 0 0 0 0 0 0 0 0 0 0.25 0"/>
<feBlend mode="normal" in2="BackgroundImageFix" result="effect1_dropShadow_307_2"/>
<feBlend mode="normal" in="SourceGraphic" in2="effect1_dropShadow_307_2" result="shape"/>
</filter>
<filter id="filter3_d_307_2" x="528" y="472" width="166" height="180" filterUnits="userSpaceOnUse" color-interpolation-filters="sRGB">
<feFlood flood-opacity="0" result="BackgroundImageFix"/>
<feColorMatrix in="SourceAlpha" type="matrix" values="0 0 0 0 0 0 0 0 0 0 0 0 0 0 0 0 0 0 127 0" result="hardAlpha"/>
<feOffset dy="12"/>
<feGaussianBlur stdDeviation="8"/>
<feColorMatrix type="matrix" values="0 0 0 0 0 0 0 0 0 0 0 0 0 0 0 0 0 0 0.25 0"/>
<feBlend mode="normal" in2="BackgroundImageFix" result="effect1_dropShadow_307_2"/>
<feBlend mode="normal" in="SourceGraphic" in2="effect1_dropShadow_307_2" result="shape"/>
</filter>
<linearGradient id="paint0_linear_307_2" x1="511" y1="0" x2="511" y2="1024" gradientUnits="userSpaceOnUse">
<stop stop-color="#31A8FF"/>
<stop offset="1" stop-color="#007AD2"/>
</linearGradient>
<linearGradient id="paint1_linear_307_2" x1="132" y1="0" x2="1111.36" y2="724.957" gradientUnits="userSpaceOnUse">
<stop stop-color="#81DFFF"/>
<stop offset="0.512573" stop-color="#3AC1FD"/>
<stop offset="1" stop-color="#0B9DFF"/>
</linearGradient>
<linearGradient id="paint2_linear_307_2" x1="511" y1="192" x2="511" y2="1024" gradientUnits="userSpaceOnUse">
<stop stop-color="#0079D5"/>
<stop offset="1" stop-color="#0367CC"/>
</linearGradient>
<linearGradient id="paint3_linear_307_2" x1="511" y1="96" x2="511" y2="928" gradientUnits="userSpaceOnUse">
<stop stop-color="#0079D5"/>
<stop offset="1" stop-color="#0367CC"/>
</linearGradient>
<linearGradient id="paint4_linear_307_2" x1="511" y1="0" x2="511" y2="832" gradientUnits="userSpaceOnUse">
<stop stop-color="#0079D5"/>
<stop offset="1" stop-color="#0367CC"/>
</linearGradient>
<linearGradient id="paint5_linear_307_2" x1="511" y1="0" x2="511" y2="832" gradientUnits="userSpaceOnUse">
<stop stop-color="#0085FF"/>
<stop offset="1" stop-color="#0085FF" stop-opacity="0"/>
</linearGradient>
<linearGradient id="paint6_linear_307_2" x1="511" y1="0" x2="511" y2="832" gradientUnits="userSpaceOnUse">
<stop stop-color="#00C2FF"/>
<stop offset="1" stop-color="#00D1FF" stop-opacity="0"/>
</linearGradient>
</defs>
</svg>
