<svg width="1024" height="1024" viewBox="0 0 1024 1024" fill="none" xmlns="http://www.w3.org/2000/svg">
<g clip-path="url(#clip0_0_3)">
<path d="M378.602 492.85C382.968 492.85 386.789 495.177 388.895 498.659C389.485 499.635 389.941 500.702 390.236 501.834C390.466 502.719 390.598 503.645 390.619 504.597C390.621 504.688 390.622 504.779 390.622 504.87C390.622 506.278 390.38 507.63 389.935 508.885C388.283 513.55 383.833 516.89 378.602 516.89C373.372 516.89 368.921 513.55 367.269 508.885C366.852 507.707 366.613 506.444 366.585 505.129C366.583 505.043 366.582 504.957 366.582 504.87C366.582 504.779 366.583 504.688 366.585 504.597C366.73 498.085 372.055 492.85 378.602 492.85Z" fill="white"/>
<path d="M378.602 577.511C383.863 577.511 388.334 580.89 389.964 585.596C390.39 586.829 390.622 588.153 390.622 589.531C390.622 596.17 385.241 601.551 378.602 601.551C371.964 601.551 366.582 596.17 366.582 589.531C366.582 588.153 366.814 586.829 367.241 585.596C368.871 580.89 373.342 577.511 378.602 577.511Z" fill="white"/>
<path d="M367.269 508.885C367.31 509.41 367.35 509.946 367.39 510.493C368.197 521.638 368.768 537.155 368.768 545.575C368.768 556.639 368.126 574.715 367.241 585.596C368.871 580.89 373.342 577.511 378.602 577.511C383.863 577.511 388.334 580.89 389.964 585.596C389.079 574.715 388.437 556.639 388.437 545.575C388.437 542.856 388.496 539.396 388.604 535.583C388.646 534.098 388.695 532.56 388.751 530.992C389.018 523.499 389.437 515.302 389.935 508.885C388.283 513.55 383.833 516.89 378.602 516.89C373.372 516.89 368.921 513.55 367.269 508.885Z" fill="white"/>
<path fill-rule="evenodd" clip-rule="evenodd" d="M366.585 504.597C366.824 504.61 367.054 506.115 367.269 508.885L366.585 504.597ZM366.582 504.597H366.585C366.583 504.688 366.582 504.779 366.582 504.87C366.582 504.957 366.583 505.043 366.585 505.129C366.613 506.444 366.852 507.707 367.269 508.885M367.241 585.596C367.033 588.153 366.812 589.531 366.582 589.531C366.582 588.153 366.814 586.829 367.241 585.596Z" fill="white"/>
<path fill-rule="evenodd" clip-rule="evenodd" d="M390.622 504.597H390.619C390.38 504.61 390.151 506.115 389.935 508.885C390.38 507.63 390.622 506.278 390.622 504.87C390.622 504.779 390.621 504.688 390.619 504.597M390.622 589.531C390.393 589.531 390.171 588.153 389.964 585.596C390.39 586.829 390.622 588.153 390.622 589.531Z" fill="white"/>
<path d="M456.19 492.85C462.737 492.85 468.062 498.085 468.207 504.597C468.209 504.688 468.21 504.779 468.21 504.87C468.21 506.278 467.968 507.63 467.523 508.885C465.871 513.55 461.421 516.89 456.19 516.89C450.96 516.89 446.509 513.55 444.857 508.885C444.412 507.63 444.17 506.278 444.17 504.87C444.17 504.779 444.171 504.688 444.173 504.597C444.318 498.085 449.643 492.85 456.19 492.85Z" fill="white"/>
<path d="M456.19 577.511C461.451 577.511 465.922 580.89 467.551 585.596C467.978 586.829 468.21 588.153 468.21 589.531C468.21 596.17 462.829 601.551 456.19 601.551C449.552 601.551 444.17 596.17 444.17 589.531C444.17 588.153 444.402 586.829 444.829 585.596C446.458 580.89 450.93 577.511 456.19 577.511Z" fill="white"/>
<path d="M444.857 508.885C444.934 509.884 445.01 510.925 445.083 512C445.834 523 446.355 537.528 446.355 545.575C446.355 548.143 446.321 551.09 446.257 554.237C446.226 555.74 446.189 557.289 446.145 558.865C445.886 568.195 445.41 578.448 444.829 585.596C446.458 580.89 450.93 577.511 456.19 577.511C461.451 577.511 465.922 580.89 467.551 585.596C466.666 574.715 466.025 556.639 466.025 545.575C466.025 537.528 466.546 523 467.297 512C467.37 510.925 467.446 509.884 467.523 508.885C465.871 513.55 461.421 516.89 456.19 516.89C450.96 516.89 446.509 513.55 444.857 508.885Z" fill="white"/>
<path fill-rule="evenodd" clip-rule="evenodd" d="M444.173 504.597C444.412 504.61 444.642 506.115 444.857 508.885L444.173 504.597ZM444.17 504.597H444.173C444.171 504.688 444.17 504.779 444.17 504.87C444.17 506.278 444.412 507.63 444.857 508.885M444.829 585.596C444.621 588.153 444.4 589.531 444.17 589.531C444.17 588.153 444.402 586.829 444.829 585.596Z" fill="white"/>
<path fill-rule="evenodd" clip-rule="evenodd" d="M468.21 504.597H468.207C467.968 504.61 467.738 506.115 467.523 508.885C467.968 507.63 468.21 506.278 468.21 504.87C468.21 504.779 468.209 504.688 468.207 504.597M468.21 589.531C467.981 589.531 467.759 588.153 467.551 585.596C467.978 586.829 468.21 588.153 468.21 589.531Z" fill="white"/>
<path d="M370.069 497.568C374.699 492.938 382.165 492.875 386.873 497.377C386.938 497.44 387.003 497.504 387.068 497.568C388.064 498.564 388.848 499.69 389.421 500.893C391.551 505.359 390.767 510.869 387.068 514.567C383.369 518.266 377.86 519.05 373.394 516.92C372.191 516.347 371.065 515.563 370.069 514.567C370.004 514.503 369.941 514.437 369.878 514.372C368.774 513.217 367.944 511.897 367.39 510.493C366.712 508.78 366.444 506.942 366.585 505.129C366.799 502.373 367.961 499.676 370.069 497.568Z" fill="white"/>
<path d="M445.606 573.105C449.326 569.385 454.877 568.613 459.357 570.789C460.531 571.358 461.631 572.131 462.605 573.105C467.299 577.799 467.299 585.41 462.605 590.104C457.911 594.798 450.3 594.798 445.606 590.104C444.769 589.267 444.081 588.336 443.542 587.347C443.496 587.262 443.451 587.178 443.408 587.092C443.367 587.014 443.328 586.935 443.29 586.856C441.114 582.376 441.886 576.825 445.606 573.105Z" fill="white"/>
<path d="M373.394 516.92C376.84 519.87 382.643 525.233 388.751 530.992C390.062 532.227 391.386 533.48 392.704 534.732C400.474 542.113 408.028 549.436 411.214 552.622C419.038 560.445 436.221 578.535 443.29 586.856C441.114 582.376 441.886 576.825 445.606 573.105C449.326 569.385 454.877 568.613 459.357 570.789C456.067 567.994 451.251 563.618 446.145 558.865C444.793 557.607 443.421 556.322 442.052 555.033C435.512 548.876 429.034 542.625 425.123 538.713C419.094 532.684 398.253 511.016 390.236 501.834C389.947 501.504 389.675 501.19 389.421 500.893C391.551 505.359 390.767 510.869 387.068 514.567C383.369 518.266 377.86 519.05 373.394 516.92Z" fill="white"/>
<path fill-rule="evenodd" clip-rule="evenodd" d="M369.878 514.372C370.056 514.212 371.283 515.113 373.394 516.92L369.878 514.372ZM369.876 514.374L369.878 514.372C369.941 514.437 370.004 514.503 370.069 514.567C371.065 515.563 372.191 516.347 373.394 516.92M443.29 586.856C444.95 588.81 445.768 589.942 445.606 590.104C444.769 589.267 444.081 588.336 443.542 587.347C443.496 587.262 443.451 587.178 443.408 587.092C443.367 587.014 443.328 586.935 443.29 586.856Z" fill="white"/>
<path fill-rule="evenodd" clip-rule="evenodd" d="M386.875 497.375L386.873 497.377C386.713 497.555 387.614 498.782 389.421 500.893C388.848 499.69 388.064 498.564 387.068 497.568C387.003 497.504 386.938 497.44 386.873 497.377M462.605 573.105C462.443 573.267 461.311 572.449 459.357 570.789C460.531 571.358 461.631 572.131 462.605 573.105Z" fill="white"/>
<path d="M429 768.283C404.147 768.283 384 788.43 384 813.283V832H505.796V831.735H548.891C551.359 831.735 553.767 831.823 556.112 832H629.05V831.735H674.455C676.89 831.735 679.264 831.823 681.578 832H754.72V831.735H812.959C850.445 828.869 881.506 803.038 892.102 768.283H429Z" fill="white"/>
<path d="M960 979V813.283C960 799.479 953.785 787.127 944 778.873V838V934C944 968.387 931.422 999.837 910.617 1024H915C939.853 1024 960 1003.85 960 979Z" fill="white"/>
<path d="M564.584 886.751C561.29 889.599 555.921 891.3 547.901 891.3H536.216V857.205H547.076C555.298 857.205 560.979 858.609 564.552 860.991L564.589 861.016L564.626 861.039C567.849 863.053 569.816 866.763 569.816 873.18C569.816 879.609 567.932 883.931 564.614 886.725L564.584 886.751Z" fill="white"/>
<path fill-rule="evenodd" clip-rule="evenodd" d="M806 1072H429C413.888 1072 399.619 1068.4 387.003 1062C370.368 1053.57 356.61 1040.28 347.593 1024H429C404.147 1024 384 1003.85 384 979V832H505.796V960H536.216V916.605H549.551C558.675 916.605 566.984 915.122 574.433 912.097C582.084 909.036 588.224 904.285 592.757 897.845C597.484 891.176 599.741 882.885 599.741 873.18C599.741 863.101 597.512 854.786 592.692 848.591C588.114 842.459 581.872 838.113 574.101 835.521C568.587 833.655 562.586 832.489 556.112 832H629.05V960H659.47V913.8H671.603L696.592 960H730.936L712.673 928L701.555 908.519C707.81 905.578 712.923 901.363 716.829 895.874L716.837 895.863L716.845 895.852C719.998 891.335 721.993 886.026 722.906 880C723.297 877.417 723.49 874.701 723.49 871.86C723.49 862.109 721.371 854.03 716.787 847.953C712.322 841.925 706.29 837.725 698.813 835.347C693.513 833.583 687.764 832.473 681.578 832H754.72V960H837.445V933.54H785.14V906.87H827.875V880.41H785.14V858.195H835.63V831.735H812.959C850.445 828.869 881.506 803.038 892.102 768.283H915C921.789 768.283 928.228 769.787 934 772.479C936.035 773.428 937.987 774.525 939.842 775.756C941.289 776.715 942.677 777.757 944 778.873V934C944 968.387 931.422 999.837 910.617 1024C885.309 1053.39 847.828 1072 806 1072ZM347.593 1024H218C171.331 1024 132.959 988.479 128.444 942.998C152.548 963.576 183.823 976 218 976H336V979C336 995.324 340.206 1010.67 347.593 1024ZM128 742C128 791.706 168.294 832 218 832H336V813.283C336 761.921 377.638 720.283 429 720.283H896V90C896 40.2944 855.706 0 806 0H416V64H342.857C330.233 64 320 54.4487 320 42.6667V21.3333C320 9.55125 330.233 0 342.857 0H218C168.294 0 128 40.2944 128 90V742ZM416 128V64H489.143C501.766 64 512 73.5513 512 85.3333V106.667C512 118.449 501.766 128 489.143 128H416ZM416 192H342.857C330.233 192 320 182.449 320 170.667V149.333C320 137.551 330.233 128 342.857 128H416V192ZM416 256V192H489.143C501.766 192 512 201.551 512 213.333V234.667C512 246.449 501.766 256 489.143 256H416ZM416 320H342.857C330.233 320 320 310.449 320 298.667V277.333C320 265.551 330.233 256 342.857 256H416V320ZM416 320H489.143C501.766 320 512 329.551 512 341.333V362.667C512 374.449 501.766 384 489.143 384H416V320ZM128 838.092V846.617L128.073 846.679L128.082 846.687C128.126 846.724 128.169 846.762 128.212 846.799L128.326 846.896L128.444 846.997C132.958 892.479 171.331 928 218 928H336V880H218C183.823 880 152.548 867.576 128.444 846.997C128.153 844.068 128.003 841.097 128 838.092ZM482 640C498.568 640 512 626.569 512 610V479C512 462.431 498.568 449 482 449H350C333.431 449 320 462.431 320 479V610C320 626.569 333.431 640 350 640H482ZM425.123 538.713C429.034 542.625 435.512 548.876 442.052 555.033C443.421 556.322 444.793 557.607 446.145 558.865C446.189 557.289 446.226 555.74 446.257 554.237C446.321 551.09 446.355 548.143 446.355 545.575C446.355 537.528 445.834 523 445.083 512H443.004C443.341 507.475 443.741 504.597 444.17 504.597H444.173C444.318 498.085 449.643 492.85 456.19 492.85C462.737 492.85 468.062 498.085 468.207 504.597H468.21C468.639 504.597 469.039 507.475 469.376 512H467.297C466.546 523 466.025 537.528 466.025 545.575C466.025 556.639 466.666 574.715 467.551 585.596C467.978 586.829 468.21 588.153 468.21 589.531C468.21 596.17 462.829 601.551 456.19 601.551C449.552 601.551 444.17 596.17 444.17 589.531C444.079 589.531 443.989 589.394 443.9 589.132C443.777 588.768 443.658 588.162 443.542 587.347C443.496 587.262 443.451 587.178 443.408 587.092C443.399 587.076 443.391 587.059 443.382 587.042L443.358 586.995L443.355 586.989C443.333 586.945 443.311 586.9 443.29 586.856C436.221 578.535 419.038 560.445 411.214 552.622C408.028 549.436 400.474 542.113 392.704 534.732C391.386 533.48 390.062 532.227 388.751 530.992C388.695 532.56 388.646 534.098 388.604 535.583C388.496 539.396 388.437 542.856 388.437 545.575C388.437 556.639 389.079 574.715 389.964 585.596C390.39 586.829 390.622 588.153 390.622 589.531C390.622 596.17 385.241 601.551 378.602 601.551C371.964 601.551 366.582 596.17 366.582 589.531C366.582 588.153 366.814 586.829 367.241 585.596C368.126 574.715 368.768 556.639 368.768 545.575C368.768 537.155 368.197 521.638 367.39 510.493C366.712 508.78 366.444 506.942 366.585 505.129L366.583 505.052C366.582 504.991 366.582 504.931 366.582 504.87C366.582 504.779 366.583 504.688 366.585 504.597C366.73 498.085 372.055 492.85 378.602 492.85C382.968 492.85 386.789 495.177 388.895 498.659C389.485 499.635 389.941 500.702 390.236 501.834C398.253 511.016 419.094 532.684 425.123 538.713ZM693.565 871.86C693.565 875.137 692.98 877.818 691.875 880C691.026 881.676 689.87 883.058 688.436 884.19L688.42 884.202L688.405 884.215C685.083 886.909 679.878 888.495 672.31 888.495H659.47V880V857.205H672.31C679.982 857.205 685.297 858.499 688.662 860.682L688.701 860.707L688.741 860.732C691.719 862.534 693.565 865.896 693.565 871.86Z" fill="white"/>
</g>
<defs>
<clipPath id="clip0_0_3">
<rect width="1024" height="1024" fill="white"/>
</clipPath>
</defs>
</svg>
