<svg width="1024" height="1024" viewBox="0 0 1024 1024" fill="none" xmlns="http://www.w3.org/2000/svg">
<g clip-path="url(#clip0_368_485)">
<path fill-rule="evenodd" clip-rule="evenodd" d="M366.585 504.597C366.602 504.598 366.619 504.606 366.635 504.622C366.856 504.827 367.069 506.309 367.269 508.885M366.582 504.597L366.585 504.597C366.583 504.688 366.582 504.779 366.582 504.87C366.582 504.957 366.583 505.043 366.585 505.129C366.613 506.444 366.852 507.707 367.269 508.885M367.241 585.596C367.033 588.153 366.812 589.531 366.582 589.531C366.582 588.153 366.814 586.829 367.241 585.596Z" fill="white"/>
<path fill-rule="evenodd" clip-rule="evenodd" d="M390.622 504.597L390.619 504.597C390.583 504.599 390.547 504.635 390.512 504.705C390.311 505.094 390.118 506.534 389.936 508.885C390.28 507.913 390.503 506.882 390.586 505.813C390.61 505.502 390.622 505.187 390.622 504.87C390.622 504.779 390.621 504.688 390.619 504.597M390.622 589.531C390.393 589.531 390.171 588.153 389.964 585.596C390.391 586.829 390.622 588.153 390.622 589.531Z" fill="white"/>
<path d="M456.19 492.85C462.737 492.85 468.062 498.085 468.207 504.597C468.209 504.688 468.21 504.779 468.21 504.87C468.21 506.278 467.968 507.63 467.523 508.885C467.125 510.01 466.564 511.058 465.868 512C463.68 514.966 460.159 516.89 456.19 516.89C452.221 516.89 448.701 514.966 446.512 512C445.816 511.058 445.255 510.01 444.857 508.885C444.412 507.63 444.17 506.278 444.17 504.87C444.17 504.779 444.171 504.688 444.173 504.597C444.318 498.085 449.643 492.85 456.19 492.85Z" fill="white"/>
<path fill-rule="evenodd" clip-rule="evenodd" d="M468.21 504.597L468.207 504.597C467.968 504.61 467.738 506.115 467.523 508.885C467.968 507.63 468.21 506.278 468.21 504.87C468.21 504.779 468.209 504.688 468.207 504.597M468.21 589.531C467.981 589.531 467.759 588.153 467.551 585.596C467.978 586.829 468.21 588.153 468.21 589.531Z" fill="white"/>
<path d="M390.619 504.597L390.622 504.597C391.596 504.597 392.422 519.447 392.704 534.732C400.474 542.113 408.028 549.436 411.214 552.622C419.038 560.445 436.221 578.535 443.29 586.856C441.889 583.971 441.71 580.641 442.754 577.643C442.415 571.336 442.165 563.213 442.052 555.033C435.512 548.876 429.034 542.625 425.123 538.713C419.094 532.684 398.253 511.016 390.236 501.834C390.466 502.719 390.598 503.645 390.619 504.597Z" fill="white"/>
<path d="M368.768 545.575C368.768 556.639 368.126 574.715 367.241 585.596C368.871 580.89 373.342 577.511 378.602 577.511C383.863 577.511 388.334 580.89 389.964 585.596C389.079 574.715 388.437 556.639 388.437 545.575C388.437 542.856 388.496 539.396 388.604 535.583C378.454 524.869 369.368 514.882 369.876 514.374L369.878 514.372C368.774 513.217 367.945 511.897 367.39 510.493C368.197 521.638 368.768 537.155 368.768 545.575Z" fill="white"/>
<path d="M378.602 601.551C385.241 601.551 390.622 596.17 390.622 589.531C390.393 589.531 390.171 588.153 389.964 585.596C388.334 580.89 383.863 577.511 378.602 577.511C373.342 577.511 368.871 580.89 367.241 585.596C367.033 588.153 366.812 589.531 366.582 589.531C366.582 596.17 371.964 601.551 378.602 601.551Z" fill="white"/>
<path d="M378.602 516.89C383.833 516.89 388.283 513.55 389.936 508.885C390.118 506.534 390.311 505.094 390.512 504.705C390.363 503.395 390 502.106 389.421 500.893C387.614 498.782 386.713 497.555 386.873 497.377C382.165 492.875 374.699 492.938 370.069 497.568C368.09 499.547 366.946 502.044 366.635 504.622C366.856 504.827 367.069 506.309 367.269 508.885C368.921 513.55 373.372 516.89 378.602 516.89Z" fill="white"/>
<path d="M389.936 508.885C388.283 513.55 383.833 516.89 378.602 516.89C373.372 516.89 368.921 513.55 367.269 508.885C367.288 509.13 367.307 509.378 367.326 509.629C367.347 509.914 367.368 510.202 367.39 510.493C367.945 511.897 368.774 513.217 369.878 514.372C370.056 514.212 371.283 515.113 373.394 516.92C377.86 519.05 383.37 518.266 387.068 514.567C388.326 513.309 389.247 511.842 389.831 510.277C389.845 510.076 389.86 509.876 389.875 509.677L389.896 509.396C389.909 509.225 389.922 509.054 389.936 508.885Z" fill="white"/>
<path d="M370.069 514.567C371.065 515.563 372.191 516.347 373.394 516.92C371.283 515.113 370.056 514.212 369.878 514.372C369.941 514.437 370.004 514.503 370.069 514.567Z" fill="white"/>
<path d="M390.622 504.87C390.622 505.187 390.61 505.502 390.586 505.813C390.618 507.325 390.366 508.842 389.831 510.277C389.379 516.462 389 524.03 388.751 530.992C390.062 532.227 391.386 533.48 392.704 534.732C392.422 519.447 391.596 504.597 390.622 504.597L390.619 504.597C390.621 504.688 390.622 504.779 390.622 504.87Z" fill="white"/>
<path d="M387.068 514.567C383.37 518.266 377.86 519.05 373.394 516.92C376.84 519.87 382.643 525.233 388.751 530.992C389 524.03 389.379 516.462 389.831 510.277C389.247 511.842 388.326 513.309 387.068 514.567Z" fill="white"/>
<path d="M389.875 509.677C389.86 509.876 389.845 510.076 389.831 510.277C390.366 508.842 390.618 507.325 390.586 505.813C390.503 506.882 390.28 507.913 389.936 508.885C389.922 509.054 389.909 509.225 389.896 509.396L389.875 509.677Z" fill="white"/>
<path d="M390.619 504.597C390.598 503.645 390.466 502.719 390.236 501.834C389.947 501.504 389.675 501.19 389.421 500.893C390 502.106 390.363 503.395 390.512 504.705C390.547 504.635 390.583 504.599 390.619 504.597Z" fill="white"/>
<path d="M373.394 516.92C372.191 516.347 371.065 515.563 370.069 514.567C370.004 514.503 369.941 514.437 369.878 514.372L369.876 514.374C369.368 514.882 378.454 524.869 388.604 535.583C388.646 534.098 388.696 532.56 388.751 530.992C382.643 525.233 376.84 519.87 373.394 516.92Z" fill="white"/>
<path d="M444.829 585.596C446.459 580.89 450.93 577.511 456.19 577.511C460.288 577.511 463.907 579.562 466.077 582.693C466.386 579.265 465.229 575.729 462.605 573.105C462.443 573.267 461.311 572.449 459.357 570.789C454.877 568.613 449.326 569.385 445.606 573.105L445.605 573.106C445.382 577.708 445.118 582.037 444.829 585.596Z" fill="white"/>
<path d="M456.19 577.511C450.93 577.511 446.459 580.89 444.829 585.596C444.733 586.776 444.634 587.705 444.533 588.363C445.347 589.392 445.721 589.99 445.606 590.104C450.3 594.798 457.911 594.798 462.605 590.104C464.675 588.034 465.832 585.397 466.077 582.693C463.907 579.562 460.288 577.511 456.19 577.511Z" fill="white"/>
<path d="M442.052 555.033C442.165 563.213 442.415 571.336 442.754 577.643C443.331 575.986 444.282 574.43 445.605 573.106C445.831 568.466 446.015 563.549 446.145 558.865C444.793 557.607 443.421 556.322 442.052 555.033Z" fill="white"/>
<path d="M462.605 573.105C462.443 573.267 461.311 572.449 459.357 570.789C460.531 571.358 461.631 572.131 462.605 573.105Z" fill="white"/>
<path d="M444.533 588.363C444.448 588.256 444.358 588.144 444.263 588.027C444.246 588.165 444.231 588.304 444.219 588.444C444.297 588.558 444.378 588.67 444.461 588.782C444.485 588.657 444.509 588.518 444.533 588.363Z" fill="white"/>
<path d="M445.606 590.104C445.721 589.99 445.347 589.392 444.533 588.363C444.509 588.518 444.485 588.657 444.461 588.782C444.806 589.243 445.187 589.685 445.606 590.104Z" fill="white"/>
<path d="M444.284 589.418C445.036 589.964 445.497 590.213 445.606 590.104C445.187 589.685 444.806 589.243 444.461 588.782C444.403 589.085 444.344 589.298 444.284 589.418Z" fill="white"/>
<path d="M456.19 601.551C462.829 601.551 468.21 596.17 468.21 589.531C467.981 589.531 467.759 588.153 467.551 585.596C467.191 584.556 466.692 583.581 466.077 582.693C465.832 585.397 464.675 588.034 462.605 590.104C457.911 594.798 450.3 594.798 445.606 590.104C445.497 590.213 445.036 589.964 444.284 589.418C444.246 589.493 444.208 589.531 444.17 589.531C444.17 596.17 449.552 601.551 456.19 601.551Z" fill="white"/>
<path d="M444.219 588.444C444.192 588.738 444.176 589.035 444.172 589.335C444.21 589.364 444.247 589.391 444.284 589.418C444.344 589.298 444.403 589.085 444.461 588.782C444.378 588.67 444.297 588.558 444.219 588.444Z" fill="white"/>
<path d="M444.533 588.363C444.634 587.705 444.733 586.776 444.829 585.596C444.56 586.373 444.368 587.187 444.263 588.027C444.358 588.144 444.448 588.256 444.533 588.363Z" fill="white"/>
<path d="M444.17 589.531C444.208 589.531 444.246 589.493 444.284 589.418C444.247 589.391 444.21 589.364 444.172 589.335C444.171 589.401 444.17 589.466 444.17 589.531Z" fill="white"/>
<path d="M442.754 577.643C442.973 581.716 443.229 585.032 443.51 587.117C443.787 587.446 444.039 587.749 444.263 588.027C444.368 587.187 444.56 586.373 444.829 585.596C445.118 582.037 445.382 577.708 445.605 573.106C444.282 574.43 443.331 575.986 442.754 577.643Z" fill="white"/>
<path d="M445.606 573.105C449.326 569.385 454.877 568.613 459.357 570.789C456.067 567.994 451.251 563.618 446.145 558.865C446.015 563.549 445.831 568.466 445.605 573.106L445.606 573.105Z" fill="white"/>
<path d="M442.754 577.643C441.71 580.641 441.889 583.971 443.29 586.856C443.365 586.945 443.438 587.031 443.51 587.117C443.229 585.032 442.973 581.716 442.754 577.643Z" fill="white"/>
<path d="M445.083 512C445.834 523 446.355 537.528 446.355 545.575C446.355 548.143 446.321 551.09 446.257 554.237C455.497 564.037 463.125 572.585 462.605 573.105C465.229 575.729 466.386 579.265 466.077 582.693C466.692 583.581 467.191 584.556 467.551 585.596C466.666 574.715 466.025 556.639 466.025 545.575C466.025 537.528 466.546 523 467.297 512H465.868C463.68 514.966 460.159 516.89 456.19 516.89C452.221 516.89 448.701 514.966 446.512 512H445.083Z" fill="white"/>
<path d="M459.357 570.789C460.531 571.358 461.631 572.131 462.605 573.105C463.125 572.585 455.497 564.037 446.257 554.237C446.226 555.74 446.189 557.289 446.145 558.865C451.251 563.618 456.067 567.994 459.357 570.789Z" fill="white"/>
<path d="M342.857 0H218C168.294 0 128 40.2944 128 90L128 742C128 791.706 168.294 832 218 832H806C855.67 832 895.943 791.763 896 742.106L896 742L896 90C896 40.2944 855.706 0 806 0H416V64L489.143 64C501.767 64 512 73.5513 512 85.3333V106.667C512 118.449 501.767 128 489.143 128L416 128V192H489.143C501.767 192 512 201.551 512 213.333V234.667C512 246.449 501.767 256 489.143 256H416V320H489.143C501.767 320 512 329.551 512 341.333V362.667C512 374.449 501.767 384 489.143 384H416V448H489.143C501.767 448 512 457.551 512 469.333V479V490.667V610C512 626.569 498.569 640 482 640H350C333.431 640 320 626.569 320 610V479C320 462.431 333.431 449 350 449H416V448H342.857C330.234 448 320 438.449 320 426.667V405.333C320 393.551 330.234 384 342.857 384H416V320H342.857C330.234 320 320 310.449 320 298.667V277.333C320 265.551 330.234 256 342.857 256H416V192H342.857C330.234 192 320 182.449 320 170.667V149.333C320 137.551 330.234 128 342.857 128L416 128V64H342.857C330.234 64 320 54.4487 320 42.6667V21.3333C320 9.55125 330.234 0 342.857 0Z" fill="white"/>
<path d="M218 928H806C852.669 928 891.041 892.479 895.556 846.998C871.452 867.576 840.177 880 806 880H218C183.823 880 152.548 867.576 128.444 846.997C132.958 892.479 171.331 928 218 928Z" fill="white"/>
<path d="M218 1024H806C852.669 1024 891.042 988.479 895.556 942.997C871.452 963.576 840.177 976 806 976H218C183.823 976 152.548 963.576 128.444 942.997C132.958 988.479 171.331 1024 218 1024Z" fill="white"/>
<path d="M416 384H342.857C330.234 384 320 393.551 320 405.333V426.667C320 438.449 330.234 448 342.857 448H416V384Z" fill="white"/>
<path d="M489.143 448H416V449H482C498.569 449 512 462.431 512 479V469.333C512 457.551 501.767 448 489.143 448Z" fill="white"/>
</g>
<defs>
<clipPath id="clip0_368_485">
<rect width="1024" height="1024" fill="white"/>
</clipPath>
</defs>
</svg>
