<svg width="1024" height="1024" viewBox="0 0 1024 1024" fill="none" xmlns="http://www.w3.org/2000/svg">
<mask id="mask0_342_90" style="mask-type:alpha" maskUnits="userSpaceOnUse" x="128" y="0" width="768" height="1024">
<rect x="128" width="768" height="1024" rx="90" fill="url(#paint0_linear_342_90)"/>
<rect x="128" width="768" height="1024" rx="90" fill="url(#paint1_linear_342_90)"/>
<rect x="128" width="768" height="1024" rx="90" fill="black" fill-opacity="0.2"/>
<rect x="128" width="768" height="1024" rx="90" fill="black" fill-opacity="0.2"/>
</mask>
<g mask="url(#mask0_342_90)">
<rect x="127.968" y="192" width="774.079" height="832" rx="90" fill="url(#paint2_linear_342_90)"/>
<rect x="127.968" y="192" width="774.079" height="832" rx="90" fill="black" fill-opacity="0.2"/>
<rect x="127.968" y="192" width="774.079" height="832" rx="90" fill="black" fill-opacity="0.2"/>
<rect x="127.968" y="192" width="774.079" height="832" rx="90" fill="black" fill-opacity="0.2"/>
<g filter="url(#filter0_d_342_90)">
<rect x="128" y="96" width="768" height="864" rx="90" fill="url(#paint3_linear_342_90)"/>
<rect x="128" y="96" width="768" height="864" rx="90" fill="black" fill-opacity="0.2"/>
</g>
<g filter="url(#filter1_d_342_90)">
<rect x="128" width="768" height="896" rx="90" fill="url(#paint4_linear_342_90)"/>
<rect x="128" width="768" height="896" rx="90" fill="url(#paint5_linear_342_90)" fill-opacity="0.45"/>
<rect x="128" width="768" height="896" rx="90" fill="url(#paint6_linear_342_90)" fill-opacity="0.3"/>
</g>
<g filter="url(#filter2_d_342_90)">
<path d="M320 21.3333C320 9.55126 330.233 0 342.857 0H416V64H342.857C330.233 64 320 54.4487 320 42.6667V21.3333Z" fill="white"/>
<path d="M512 106.667C512 118.449 501.767 128 489.143 128L416 128L416 64L489.143 64C501.767 64 512 73.5513 512 85.3333V106.667Z" fill="white"/>
<path d="M320 149.333C320 137.551 330.233 128 342.857 128L416 128L416 192H342.857C330.233 192 320 182.449 320 170.667V149.333Z" fill="white"/>
<path d="M512 234.667C512 246.449 501.767 256 489.143 256H416L416 192H489.143C501.767 192 512 201.551 512 213.333V234.667Z" fill="white"/>
<path d="M320 277.333C320 265.551 330.233 256 342.857 256H416L416 320H342.857C330.233 320 320 310.449 320 298.667V277.333Z" fill="white"/>
<path d="M512 362.667C512 374.449 501.767 384 489.143 384H416L416 320H489.143C501.767 320 512 329.551 512 341.333V362.667Z" fill="white"/>
</g>
</g>
<g filter="url(#filter3_d_342_90)">
<rect x="320" y="449" width="192" height="191" rx="30" fill="white"/>
<path d="M378.602 492.85C385.149 492.85 390.474 498.085 390.619 504.597C390.621 504.688 390.622 504.779 390.622 504.87C390.622 506.278 390.38 507.63 389.935 508.885C388.283 513.55 383.833 516.89 378.602 516.89C373.372 516.89 368.921 513.55 367.269 508.885C366.824 507.63 366.582 506.278 366.582 504.87C366.582 504.779 366.583 504.688 366.585 504.597C366.73 498.085 372.055 492.85 378.602 492.85Z" fill="#0475D9"/>
<path d="M378.602 577.511C383.863 577.511 388.334 580.89 389.963 585.596C390.39 586.829 390.622 588.153 390.622 589.531C390.622 596.17 385.241 601.551 378.602 601.551C371.964 601.551 366.582 596.17 366.582 589.531C366.582 588.153 366.814 586.829 367.241 585.596C368.87 580.89 373.342 577.511 378.602 577.511Z" fill="#0475D9"/>
<path d="M367.269 508.885C368.139 520.098 368.767 536.742 368.767 545.575C368.767 556.639 368.126 574.715 367.241 585.596C368.87 580.89 373.342 577.511 378.602 577.511C383.863 577.511 388.334 580.89 389.963 585.596C389.078 574.715 388.437 556.639 388.437 545.575C388.437 536.742 389.065 520.098 389.935 508.885C388.283 513.55 383.833 516.89 378.602 516.89C373.372 516.89 368.921 513.55 367.269 508.885Z" fill="#0475D9"/>
<path fill-rule="evenodd" clip-rule="evenodd" d="M366.585 504.597C366.824 504.61 367.054 506.115 367.269 508.885L366.585 504.597ZM366.582 504.597C366.583 504.597 366.584 504.597 366.585 504.597C366.583 504.688 366.582 504.779 366.582 504.87C366.582 506.278 366.824 507.63 367.269 508.885M367.241 585.596C367.033 588.153 366.812 589.531 366.582 589.531C366.582 588.153 366.814 586.829 367.241 585.596Z" fill="#0475D9"/>
<path fill-rule="evenodd" clip-rule="evenodd" d="M390.622 504.597C390.621 504.597 390.62 504.597 390.619 504.597C390.38 504.61 390.15 506.115 389.935 508.885C390.38 507.63 390.622 506.278 390.622 504.87C390.622 504.779 390.621 504.688 390.619 504.597M390.622 589.531C390.393 589.531 390.171 588.153 389.963 585.596C390.39 586.829 390.622 588.153 390.622 589.531Z" fill="#0475D9"/>
<path d="M456.19 492.85C462.737 492.85 468.062 498.085 468.207 504.597C468.209 504.688 468.21 504.779 468.21 504.87C468.21 506.278 467.968 507.63 467.523 508.885C465.871 513.55 461.421 516.89 456.19 516.89C450.959 516.89 446.509 513.55 444.857 508.885C444.412 507.63 444.17 506.278 444.17 504.87C444.17 504.779 444.171 504.688 444.173 504.597C444.318 498.085 449.643 492.85 456.19 492.85Z" fill="#0475D9"/>
<path d="M456.19 577.511C461.45 577.511 465.922 580.89 467.551 585.596C467.978 586.829 468.21 588.153 468.21 589.531C468.21 596.17 462.829 601.551 456.19 601.551C449.551 601.551 444.17 596.17 444.17 589.531C444.17 588.153 444.402 586.829 444.829 585.596C446.458 580.89 450.93 577.511 456.19 577.511Z" fill="#0475D9"/>
<path d="M444.857 508.885C445.727 520.098 446.355 536.742 446.355 545.575C446.355 556.639 445.714 574.715 444.829 585.596C446.458 580.89 450.93 577.511 456.19 577.511C461.45 577.511 465.922 580.89 467.551 585.596C466.666 574.715 466.025 556.639 466.025 545.575C466.025 536.742 466.653 520.098 467.523 508.885C465.871 513.55 461.421 516.89 456.19 516.89C450.959 516.89 446.509 513.55 444.857 508.885Z" fill="#0475D9"/>
<path fill-rule="evenodd" clip-rule="evenodd" d="M444.173 504.597C444.412 504.61 444.642 506.115 444.857 508.885L444.173 504.597ZM444.17 504.597C444.171 504.597 444.172 504.597 444.173 504.597C444.171 504.688 444.17 504.779 444.17 504.87C444.17 506.278 444.412 507.63 444.857 508.885M444.829 585.596C444.621 588.153 444.399 589.531 444.17 589.531C444.17 588.153 444.402 586.829 444.829 585.596Z" fill="#0475D9"/>
<path fill-rule="evenodd" clip-rule="evenodd" d="M468.21 504.597C468.209 504.597 468.208 504.597 468.207 504.597C467.968 504.61 467.738 506.115 467.523 508.885C467.968 507.63 468.21 506.278 468.21 504.87C468.21 504.779 468.209 504.688 468.207 504.597M468.21 589.531C467.981 589.531 467.759 588.153 467.551 585.596C467.978 586.829 468.21 588.153 468.21 589.531Z" fill="#0475D9"/>
<path d="M370.069 497.568C374.698 492.938 382.165 492.875 386.873 497.377C386.938 497.44 387.003 497.504 387.068 497.568C388.064 498.564 388.848 499.69 389.421 500.893C391.551 505.359 390.766 510.869 387.068 514.567C383.369 518.266 377.86 519.05 373.394 516.92C372.191 516.347 371.064 515.563 370.069 514.567C370.004 514.503 369.941 514.437 369.878 514.372C365.376 509.664 365.439 502.198 370.069 497.568Z" fill="#0475D9"/>
<path d="M445.606 573.105C449.326 569.385 454.877 568.613 459.357 570.789C460.53 571.358 461.631 572.131 462.605 573.105C467.299 577.799 467.299 585.41 462.605 590.104C457.911 594.798 450.3 594.798 445.606 590.104C444.631 589.13 443.859 588.03 443.289 586.856C441.114 582.376 441.886 576.825 445.606 573.105Z" fill="#0475D9"/>
<path d="M373.394 516.92C381.938 524.233 404.968 546.376 411.214 552.622C419.038 560.445 436.221 578.535 443.289 586.856C441.114 582.376 441.886 576.825 445.606 573.105C449.326 569.385 454.877 568.613 459.357 570.789C451.036 563.72 432.946 546.537 425.123 538.713C418.877 532.467 396.734 509.437 389.421 500.893C391.551 505.359 390.766 510.869 387.068 514.567C383.369 518.266 377.86 519.05 373.394 516.92Z" fill="#0475D9"/>
<path fill-rule="evenodd" clip-rule="evenodd" d="M369.878 514.372C370.056 514.212 371.282 515.113 373.394 516.92L369.878 514.372ZM369.876 514.374C369.876 514.373 369.877 514.373 369.878 514.372C369.941 514.437 370.004 514.503 370.069 514.567C371.064 515.563 372.191 516.347 373.394 516.92M443.289 586.856C444.95 588.81 445.768 589.942 445.606 590.104C444.631 589.13 443.859 588.03 443.289 586.856Z" fill="#0475D9"/>
<path fill-rule="evenodd" clip-rule="evenodd" d="M386.875 497.375C386.874 497.376 386.873 497.376 386.873 497.377C386.713 497.555 387.614 498.782 389.421 500.893C388.848 499.69 388.064 498.564 387.068 497.568C387.003 497.504 386.938 497.44 386.873 497.377M462.605 573.105C462.443 573.267 461.311 572.449 459.357 570.789C460.53 571.358 461.631 572.131 462.605 573.105Z" fill="#0475D9"/>
</g>
<rect x="384" y="768.283" width="576" height="255.717" rx="45" fill="#FFC225"/>
<path d="M514.701 957V835.395H551.496C560.626 835.395 568.656 836.605 575.586 839.025C582.516 841.335 587.961 845.185 591.921 850.575C595.991 855.855 598.026 863.115 598.026 872.355C598.026 881.155 596.046 888.415 592.086 894.135C588.126 899.745 582.681 903.98 575.751 906.84C568.931 909.59 561.066 910.965 552.156 910.965H533.841V957H514.701ZM533.841 895.455H550.506C560.076 895.455 567.226 893.585 571.956 889.845C576.686 886.105 579.051 880.275 579.051 872.355C579.051 864.215 576.576 858.605 571.626 855.525C566.676 852.445 559.361 850.905 549.681 850.905H533.841V895.455ZM634.893 957V835.395H674.658C683.018 835.395 690.498 836.55 697.098 838.86C703.698 841.06 708.923 844.745 712.773 849.915C716.623 854.975 718.548 861.905 718.548 870.705C718.548 879.175 716.623 886.16 712.773 891.66C708.923 897.16 703.698 901.285 697.098 904.035C690.498 906.675 683.018 907.995 674.658 907.995H654.033V957H634.893ZM654.033 892.65H672.348C681.148 892.65 687.858 890.835 692.478 887.205C697.208 883.465 699.573 877.965 699.573 870.705C699.573 863.335 697.208 858.22 692.478 855.36C687.858 852.39 681.148 850.905 672.348 850.905H654.033V892.65ZM701.223 957L671.028 902.88L685.218 891.825L722.838 957H701.223ZM756.374 957V835.395H828.149V851.565H775.514V885.39H820.064V901.56H775.514V940.665H829.964V957H756.374Z" fill="black"/>
<path d="M514.701 957H511.701V960H514.701V957ZM514.701 835.395V832.395H511.701V835.395H514.701ZM575.586 839.025L574.596 841.857L574.617 841.864L574.637 841.871L575.586 839.025ZM591.921 850.575L589.503 852.351L589.523 852.379L589.544 852.407L591.921 850.575ZM592.086 894.135L594.536 895.865L594.544 895.854L594.552 895.843L592.086 894.135ZM575.751 906.84L576.872 909.622L576.884 909.618L576.895 909.613L575.751 906.84ZM533.841 910.965V907.965H530.841V910.965H533.841ZM533.841 957V960H536.841V957H533.841ZM533.841 895.455H530.841V898.455H533.841V895.455ZM571.956 889.845L573.816 892.198L571.956 889.845ZM571.626 855.525L573.21 852.978L571.626 855.525ZM533.841 850.905V847.905H530.841V850.905H533.841ZM517.701 957V835.395H511.701V957H517.701ZM514.701 838.395H551.496V832.395H514.701V838.395ZM551.496 838.395C560.368 838.395 568.051 839.572 574.596 841.857L576.575 836.193C569.26 833.638 560.883 832.395 551.496 832.395V838.395ZM574.637 841.871C581.035 844.004 585.944 847.507 589.503 852.351L594.338 848.799C589.977 842.863 583.996 838.666 576.534 836.179L574.637 841.871ZM589.544 852.407C593.079 856.992 595.026 863.526 595.026 872.355H601.026C601.026 862.704 598.902 854.718 594.297 848.743L589.544 852.407ZM595.026 872.355C595.026 880.707 593.15 887.328 589.619 892.427L594.552 895.843C598.941 889.502 601.026 881.603 601.026 872.355H595.026ZM589.635 892.405C586.032 897.508 581.061 901.403 574.606 904.067L576.895 909.613C584.3 906.557 590.219 901.982 594.536 895.865L589.635 892.405ZM574.629 904.058C568.232 906.637 560.76 907.965 552.156 907.965V913.965C561.371 913.965 569.629 912.543 576.872 909.622L574.629 904.058ZM552.156 907.965H533.841V913.965H552.156V907.965ZM530.841 910.965V957H536.841V910.965H530.841ZM533.841 954H514.701V960H533.841V954ZM533.841 898.455H550.506V892.455H533.841V898.455ZM550.506 898.455C560.38 898.455 568.325 896.54 573.816 892.198L570.095 887.492C566.126 890.63 559.771 892.455 550.506 892.455V898.455ZM573.816 892.198C579.479 887.721 582.051 880.882 582.051 872.355H576.051C576.051 879.668 573.893 884.489 570.095 887.492L573.816 892.198ZM582.051 872.355C582.051 863.632 579.367 856.808 573.21 852.978L570.041 858.072C573.784 860.402 576.051 864.798 576.051 872.355H582.051ZM573.21 852.978C567.566 849.466 559.59 847.905 549.681 847.905V853.905C559.131 853.905 565.785 855.424 570.041 858.072L573.21 852.978ZM549.681 847.905H533.841V853.905H549.681V847.905ZM530.841 850.905V895.455H536.841V850.905H530.841ZM634.893 957H631.893V960H634.893V957ZM634.893 835.395V832.395H631.893V835.395H634.893ZM697.098 838.86L696.107 841.692L696.128 841.699L696.149 841.706L697.098 838.86ZM712.773 849.915L710.367 851.707L710.376 851.719L710.385 851.732L712.773 849.915ZM712.773 891.66L710.315 889.94V889.94L712.773 891.66ZM697.098 904.035L698.212 906.82L698.232 906.812L698.252 906.804L697.098 904.035ZM654.033 907.995V904.995H651.033V907.995H654.033ZM654.033 957V960H657.033V957H654.033ZM654.033 892.65H651.033V895.65H654.033V892.65ZM692.478 887.205L694.331 889.564L694.338 889.558L692.478 887.205ZM692.478 855.36L690.855 857.884L690.89 857.906L690.925 857.927L692.478 855.36ZM654.033 850.905V847.905H651.033V850.905H654.033ZM701.223 957L698.603 958.462L699.461 960H701.223V957ZM671.028 902.88L669.184 900.513L667.154 902.095L668.408 904.342L671.028 902.88ZM685.218 891.825L687.816 890.325L686.093 887.34L683.374 889.458L685.218 891.825ZM722.838 957V960H728.033L725.436 955.5L722.838 957ZM637.893 957V835.395H631.893V957H637.893ZM634.893 838.395H674.658V832.395H634.893V838.395ZM674.658 838.395C682.744 838.395 689.881 839.512 696.107 841.692L698.089 836.028C691.115 833.588 683.291 832.395 674.658 832.395V838.395ZM696.149 841.706C702.215 843.728 706.913 847.069 710.367 851.707L715.179 848.123C710.933 842.421 705.18 838.392 698.046 836.014L696.149 841.706ZM710.385 851.732C713.71 856.102 715.548 862.314 715.548 870.705H721.548C721.548 861.496 719.535 853.848 715.16 848.098L710.385 851.732ZM715.548 870.705C715.548 878.721 713.729 885.062 710.315 889.94L715.23 893.38C719.516 887.258 721.548 879.629 721.548 870.705H715.548ZM710.315 889.94C706.813 894.943 702.054 898.72 695.944 901.266L698.252 906.804C705.341 903.85 711.033 899.377 715.23 893.38L710.315 889.94ZM695.984 901.25C689.794 903.725 682.702 904.995 674.658 904.995V910.995C683.333 910.995 691.201 909.625 698.212 906.82L695.984 901.25ZM674.658 904.995H654.033V910.995H674.658V904.995ZM651.033 907.995V957H657.033V907.995H651.033ZM654.033 954H634.893V960H654.033V954ZM654.033 895.65H672.348V889.65H654.033V895.65ZM672.348 895.65C681.5 895.65 688.977 893.771 694.331 889.564L690.624 884.846C686.739 887.899 680.796 889.65 672.348 889.65V895.65ZM694.338 889.558C699.937 885.132 702.573 878.674 702.573 870.705H696.573C696.573 877.256 694.479 881.798 690.617 884.852L694.338 889.558ZM702.573 870.705C702.573 862.68 699.952 856.373 694.03 852.793L690.925 857.927C694.464 860.067 696.573 863.99 696.573 870.705H702.573ZM694.1 852.836C688.786 849.42 681.408 847.905 672.348 847.905V853.905C680.888 853.905 686.93 855.36 690.855 857.884L694.1 852.836ZM672.348 847.905H654.033V853.905H672.348V847.905ZM651.033 850.905V892.65H657.033V850.905H651.033ZM703.843 955.538L673.648 901.418L668.408 904.342L698.603 958.462L703.843 955.538ZM672.871 905.247L687.061 894.192L683.374 889.458L669.184 900.513L672.871 905.247ZM682.619 893.325L720.239 958.5L725.436 955.5L687.816 890.325L682.619 893.325ZM722.838 954H701.223V960H722.838V954ZM756.374 957H753.374V960H756.374V957ZM756.374 835.395V832.395H753.374V835.395H756.374ZM828.149 835.395H831.149V832.395H828.149V835.395ZM828.149 851.565V854.565H831.149V851.565H828.149ZM775.514 851.565V848.565H772.514V851.565H775.514ZM775.514 885.39H772.514V888.39H775.514V885.39ZM820.064 885.39H823.064V882.39H820.064V885.39ZM820.064 901.56V904.56H823.064V901.56H820.064ZM775.514 901.56V898.56H772.514V901.56H775.514ZM775.514 940.665H772.514V943.665H775.514V940.665ZM829.964 940.665H832.964V937.665H829.964V940.665ZM829.964 957V960H832.964V957H829.964ZM759.374 957V835.395H753.374V957H759.374ZM756.374 838.395H828.149V832.395H756.374V838.395ZM825.149 835.395V851.565H831.149V835.395H825.149ZM828.149 848.565H775.514V854.565H828.149V848.565ZM772.514 851.565V885.39H778.514V851.565H772.514ZM775.514 888.39H820.064V882.39H775.514V888.39ZM817.064 885.39V901.56H823.064V885.39H817.064ZM820.064 898.56H775.514V904.56H820.064V898.56ZM772.514 901.56V940.665H778.514V901.56H772.514ZM775.514 943.665H829.964V937.665H775.514V943.665ZM826.964 940.665V957H832.964V940.665H826.964ZM829.964 954H756.374V960H829.964V954Z" fill="black"/>
<defs>
<filter id="filter0_d_342_90" x="48" y="16" width="928" height="1024" filterUnits="userSpaceOnUse" color-interpolation-filters="sRGB">
<feFlood flood-opacity="0" result="BackgroundImageFix"/>
<feColorMatrix in="SourceAlpha" type="matrix" values="0 0 0 0 0 0 0 0 0 0 0 0 0 0 0 0 0 0 127 0" result="hardAlpha"/>
<feOffset/>
<feGaussianBlur stdDeviation="40"/>
<feComposite in2="hardAlpha" operator="out"/>
<feColorMatrix type="matrix" values="0 0 0 0 0 0 0 0 0 0 0 0 0 0 0 0 0 0 0.25 0"/>
<feBlend mode="normal" in2="BackgroundImageFix" result="effect1_dropShadow_342_90"/>
<feBlend mode="normal" in="SourceGraphic" in2="effect1_dropShadow_342_90" result="shape"/>
</filter>
<filter id="filter1_d_342_90" x="-32" y="-152" width="1088" height="1216" filterUnits="userSpaceOnUse" color-interpolation-filters="sRGB">
<feFlood flood-opacity="0" result="BackgroundImageFix"/>
<feColorMatrix in="SourceAlpha" type="matrix" values="0 0 0 0 0 0 0 0 0 0 0 0 0 0 0 0 0 0 127 0" result="hardAlpha"/>
<feOffset dy="8"/>
<feGaussianBlur stdDeviation="80"/>
<feComposite in2="hardAlpha" operator="out"/>
<feColorMatrix type="matrix" values="0 0 0 0 0 0 0 0 0 0 0 0 0 0 0 0 0 0 0.4 0"/>
<feBlend mode="normal" in2="BackgroundImageFix" result="effect1_dropShadow_342_90"/>
<feBlend mode="normal" in="SourceGraphic" in2="effect1_dropShadow_342_90" result="shape"/>
</filter>
<filter id="filter2_d_342_90" x="306" y="0" width="220" height="412" filterUnits="userSpaceOnUse" color-interpolation-filters="sRGB">
<feFlood flood-opacity="0" result="BackgroundImageFix"/>
<feColorMatrix in="SourceAlpha" type="matrix" values="0 0 0 0 0 0 0 0 0 0 0 0 0 0 0 0 0 0 127 0" result="hardAlpha"/>
<feOffset dy="14"/>
<feGaussianBlur stdDeviation="7"/>
<feComposite in2="hardAlpha" operator="out"/>
<feColorMatrix type="matrix" values="0 0 0 0 0 0 0 0 0 0 0 0 0 0 0 0 0 0 0.25 0"/>
<feBlend mode="normal" in2="BackgroundImageFix" result="effect1_dropShadow_342_90"/>
<feBlend mode="normal" in="SourceGraphic" in2="effect1_dropShadow_342_90" result="shape"/>
</filter>
<filter id="filter3_d_342_90" x="304" y="445" width="224" height="223" filterUnits="userSpaceOnUse" color-interpolation-filters="sRGB">
<feFlood flood-opacity="0" result="BackgroundImageFix"/>
<feColorMatrix in="SourceAlpha" type="matrix" values="0 0 0 0 0 0 0 0 0 0 0 0 0 0 0 0 0 0 127 0" result="hardAlpha"/>
<feOffset dy="12"/>
<feGaussianBlur stdDeviation="8"/>
<feColorMatrix type="matrix" values="0 0 0 0 0 0 0 0 0 0 0 0 0 0 0 0 0 0 0.25 0"/>
<feBlend mode="normal" in2="BackgroundImageFix" result="effect1_dropShadow_342_90"/>
<feBlend mode="normal" in="SourceGraphic" in2="effect1_dropShadow_342_90" result="shape"/>
</filter>
<linearGradient id="paint0_linear_342_90" x1="512" y1="0" x2="512" y2="1024" gradientUnits="userSpaceOnUse">
<stop stop-color="#31A8FF"/>
<stop offset="1" stop-color="#007AD2"/>
</linearGradient>
<linearGradient id="paint1_linear_342_90" x1="128" y1="0" x2="1111.04" y2="737.28" gradientUnits="userSpaceOnUse">
<stop stop-color="#81DFFF"/>
<stop offset="0.512573" stop-color="#3AC1FD"/>
<stop offset="1" stop-color="#0B9DFF"/>
</linearGradient>
<linearGradient id="paint2_linear_342_90" x1="515.008" y1="192" x2="515.008" y2="1024" gradientUnits="userSpaceOnUse">
<stop stop-color="#0079D5"/>
<stop offset="1" stop-color="#0367CC"/>
</linearGradient>
<linearGradient id="paint3_linear_342_90" x1="512" y1="96" x2="512" y2="960" gradientUnits="userSpaceOnUse">
<stop stop-color="#0079D5"/>
<stop offset="1" stop-color="#0367CC"/>
</linearGradient>
<linearGradient id="paint4_linear_342_90" x1="512" y1="0" x2="512" y2="896" gradientUnits="userSpaceOnUse">
<stop stop-color="#0079D5"/>
<stop offset="1" stop-color="#0367CC"/>
</linearGradient>
<linearGradient id="paint5_linear_342_90" x1="512" y1="0" x2="512" y2="896" gradientUnits="userSpaceOnUse">
<stop stop-color="#0085FF"/>
<stop offset="1" stop-color="#0085FF" stop-opacity="0"/>
</linearGradient>
<linearGradient id="paint6_linear_342_90" x1="512" y1="0" x2="512" y2="896" gradientUnits="userSpaceOnUse">
<stop stop-color="#00C2FF"/>
<stop offset="1" stop-color="#00D1FF" stop-opacity="0"/>
</linearGradient>
</defs>
</svg>
